sansstiefel.sfdir

StartChar: .notdef
Encoding: 0 0 0
Width: 595
VWidth: 530
Flags: W
HStem: -180 90<165 430> 720 90<165 430>
VStem: 75 90<-90 720> 430 90<-90 720>
LayerCount: 2
Fore
SplineSet
75 -135 m 2
 75 765 l 2
 75 777 80 789 88 797 c 0
 96 805 108 810 120 810 c 2
 475 810 l 2
 487 810 499 805 507 797 c 0
 515 789 520 777 520 765 c 2
 520 -135 l 2
 520 -147 515 -159 507 -167 c 0
 499 -175 487 -180 475 -180 c 2
 120 -180 l 2
 108 -180 96 -175 88 -167 c 0
 80 -159 75 -147 75 -135 c 2
165 -90 m 1
 430 -90 l 1
 430 720 l 1
 165 720 l 1
 165 -90 l 1
EndSplineSet
EndChar

StartChar: exclam
Encoding: 33 33 128
Width: 240
VWidth: 1076
Flags: W
HStem: 790 20G<45 132.5>
VStem: 45 120<720 803.519>
LayerCount: 2
Fore
SplineSet
45 720 m 1
 45 810 l 1
 120 810 l 2
 145 810 165 790 165 765 c 2
 165 270 l 1
 195 270 l 1
 195 180 l 1
 120 180 l 2
 95 180 75 200 75 225 c 2
 75 720 l 1
 45 720 l 1
60 45 m 1
 135 120 l 1
 210 45 l 1
 135 -30 l 1
 60 45 l 1
EndSplineSet
EndChar

StartChar: numbersign
Encoding: 35 35 143
Width: 600
VWidth: 1076
Flags: W
HStem: 0 90<45 82 300 337> 180 90<45 97 203 352 458 510> 450 90<90 142 248 397 503 555> 630 90<263 300 518 555>
LayerCount: 2
Fore
SplineSet
45 0 m 1
 45 90 l 1
 82 90 l 1
 97 180 l 1
 45 180 l 1
 45 270 l 1
 112 270 l 1
 142 450 l 1
 90 450 l 1
 90 540 l 1
 157 540 l 1
 181 682 l 2
 183 692 188 702 196 709 c 0
 204 716 214 720 225 720 c 2
 300 720 l 1
 300 630 l 1
 263 630 l 1
 248 540 l 1
 412 540 l 1
 436 682 l 2
 438 692 443 702 451 709 c 0
 459 716 469 720 480 720 c 2
 555 720 l 1
 555 630 l 1
 518 630 l 1
 503 540 l 1
 555 540 l 1
 555 450 l 1
 488 450 l 1
 458 270 l 1
 510 270 l 1
 510 180 l 1
 443 180 l 1
 419 38 l 2
 417 28 412 18 404 11 c 0
 396 4 386 0 375 0 c 2
 300 0 l 1
 300 90 l 1
 337 90 l 1
 352 180 l 1
 188 180 l 1
 164 38 l 2
 162 28 157 18 149 11 c 0
 141 4 131 0 120 0 c 2
 45 0 l 1
203 270 m 1
 367 270 l 1
 397 450 l 1
 233 450 l 1
 203 270 l 1
EndSplineSet
EndChar

StartChar: dollar
Encoding: 36 36 116
Width: 630
VWidth: 909
Flags: W
HStem: 45 90<75 141.522> 330 90<176.644 269 363 450.844> 585 90<486.072 555> 790 20G<290.98 382>
VStem: 75 90<430.531 594> 248 90<-90 8> 258 90<102 245.27> 282 90<465.77 618> 292 90<712 810> 465 90<126 316.891>
LayerCount: 2
Fore
SplineSet
75 45 m 1xfc40
 75 135 l 1
 120 135 l 2
 124 135 127 135 131 134 c 2
 258 102 l 1xfa40
 269 330 l 1
 240 330 214 331 191 335 c 0
 157 341 122 358 103 388 c 0
 86 414 81 444 78 480 c 0
 75 516 75 559 75 616 c 2
 75 630 l 2
 75 640 79 650 85 658 c 0
 91 666 101 672 111 674 c 2
 287 712 l 1
 292 810 l 1
 382 810 l 1xf8c0
 377 710 l 1
 513 675 l 1
 555 675 l 1
 555 585 l 1
 507 585 l 2
 503 585 500 585 496 586 c 2
 372 618 l 1xf940
 363 420 l 1
 387 420 408 419 427 416 c 0
 459 412 491 401 513 377 c 0
 544 344 550 301 553 243 c 0
 555 205 555 158 555 99 c 2
 555 90 l 2
 555 80 551 70 545 62 c 0
 539 54 529 48 519 46 c 2
 343 8 l 1
 338 -90 l 1
 248 -90 l 1
 253 10 l 1
 114 45 l 1
 75 45 l 1xfc40
165 594 m 1
 165 550 166 512 168 487 c 0
 172 453 169 429 206 424 c 0
 221 422 243 420 273 420 c 1
 282 619 l 1xf940
 165 594 l 1
348 101 m 1xfa40
 465 126 l 1
 465 171 465 210 463 238 c 0
 459 283 467 321 416 327 c 0
 402 329 382 330 359 330 c 1
 348 101 l 1xfa40
EndSplineSet
EndChar

StartChar: percent
Encoding: 37 37 131
Width: 930
VWidth: 955
Flags: W
HStem: 0 90<225 257> 720 90<673 705>
VStem: 75 90<547 652> 315 90<547 652> 525 90<157 262> 765 90<157 262>
LayerCount: 2
Fore
SplineSet
75 525 m 2
 75 675 l 2
 75 689 82 703 93 711 c 2
 213 801 l 2
 221 807 230 810 240 810 c 2
 242 810 l 2
 251 810 260 806 267 801 c 2
 387 711 l 2
 398 703 405 689 405 675 c 2
 405 525 l 2
 405 511 398 497 387 489 c 2
 267 399 l 2
 259 393 250 390 240 390 c 0
 230 390 221 393 213 399 c 2
 93 489 l 2
 82 497 75 511 75 525 c 2
165 547 m 1
 240 491 l 1
 315 547 l 1
 315 652 l 1
 240 709 l 1
 165 652 l 1
 165 547 l 1
225 0 m 1
 225 90 l 1
 257 90 l 1
 605 785 l 2
 609 792 614 799 621 803 c 0
 628 807 637 810 645 810 c 2
 705 810 l 1
 705 720 l 1
 673 720 l 1
 325 25 l 2
 321 18 316 11 309 7 c 0
 302 3 293 0 285 0 c 2
 225 0 l 1
525 135 m 2
 525 285 l 2
 525 299 532 313 543 321 c 2
 663 411 l 2
 671 417 680 420 690 420 c 2
 692 420 l 2
 701 420 710 416 717 411 c 2
 837 321 l 2
 848 313 855 299 855 285 c 2
 855 135 l 2
 855 121 848 107 837 99 c 2
 717 9 l 2
 709 3 700 0 690 0 c 0
 680 0 671 3 663 9 c 2
 543 99 l 2
 532 107 525 121 525 135 c 2
615 157 m 1
 690 101 l 1
 765 157 l 1
 765 262 l 1
 690 319 l 1
 615 262 l 1
 615 157 l 1
EndSplineSet
EndChar

StartChar: ampersand
Encoding: 38 38 130
Width: 615
VWidth: 955
Flags: W
HStem: 0 21G<247.5 262.5 517.5 570> 475 20G<517.5 570> 790 20G<277 288.5>
LayerCount: 2
Fore
SplineSet
75 248 m 0
 75 257 78 265 83 272 c 2
 201 450 l 1
 128 560 l 2
 123 567 120 576 120 585 c 0
 120 594 123 603 128 610 c 2
 248 790 l 2
 256 802 270 810 284 810 c 2
 285 810 l 2
 292 810 300 808 306 805 c 0
 313 802 318 796 322 790 c 2
 412 655 l 2
 417 648 420 639 420 630 c 0
 420 621 417 612 412 605 c 2
 309 450 l 1
 390 329 l 1
 488 475 l 2
 496 487 510 495 525 495 c 2
 570 495 l 1
 570 405 l 1
 549 405 l 1
 444 248 l 1
 549 90 l 1
 570 90 l 1
 570 0 l 5
 525 0 l 2
 510 0 496 8 488 20 c 2
 390 166 l 1
 292 20 l 2
 284 8 270 0 255 0 c 0
 240 0 226 8 218 20 c 2
 83 223 l 2
 78 230 75 239 75 248 c 0
174 248 m 1
 255 126 l 1
 336 248 l 1
 255 369 l 1
 174 248 l 1
219 585 m 1
 255 531 l 1
 321 630 l 1
 285 684 l 1
 219 585 l 1
EndSplineSet
EndChar

StartChar: parenleft
Encoding: 40 40 154
Width: 360
VWidth: 530
Flags: W
HStem: -180 90<264 315> 720 90<264 315>
VStem: 75 90<59 571>
DStem2: 83 610 165 571 0.5547 0.83205<13.0355 191.926> 165 59 83 20 0.5547 -0.83205<0 178.891>
LayerCount: 2
Fore
SplineSet
75 45 m 2
 75 585 l 2
 75 594 78 603 83 610 c 2
 203 790 l 2
 211 802 225 810 240 810 c 2
 315 810 l 1
 315 720 l 1
 264 720 l 1
 165 571 l 1
 165 59 l 1
 264 -90 l 1
 315 -90 l 1
 315 -180 l 5
 240 -180 l 2
 225 -180 211 -172 203 -160 c 2
 83 20 l 2
 78 27 75 36 75 45 c 2
EndSplineSet
EndChar

StartChar: parenright
Encoding: 41 41 170
Width: 360
VWidth: 530
Flags: W
HStem: -180 90<45 96> 720 90<45 96>
VStem: 195 90<59 571>
LayerCount: 2
Fore
SplineSet
45 -90 m 1
 96 -90 l 1
 195 59 l 1
 195 571 l 1
 96 720 l 1
 45 720 l 1
 45 810 l 1
 120 810 l 2
 135 810 149 802 157 790 c 2
 277 610 l 2
 282 603 285 594 285 585 c 2
 285 45 l 2
 285 36 282 27 277 20 c 2
 157 -160 l 2
 149 -172 135 -180 120 -180 c 2
 45 -180 l 5
 45 -90 l 1
EndSplineSet
EndChar

StartChar: asterisk
Encoding: 42 42 157
Width: 420
VWidth: 530
Flags: W
HStem: 450 90<75 96 324 345> 585 90<45 126 294 375> 720 90<75 96 324 345>
CounterMasks: 1 e0
LayerCount: 2
Fore
SplineSet
45 585 m 1
 45 675 l 1
 126 675 l 1
 96 720 l 1
 75 720 l 1
 75 810 l 1
 120 810 l 2
 135 810 149 802 157 790 c 2
 210 711 l 1
 263 790 l 2
 271 802 285 810 300 810 c 2
 345 810 l 1
 345 720 l 1
 324 720 l 1
 294 675 l 1
 375 675 l 1
 375 585 l 1
 294 585 l 1
 324 540 l 1
 345 540 l 1
 345 450 l 1
 300 450 l 2
 285 450 271 458 263 470 c 2
 210 549 l 1
 157 470 l 2
 149 458 135 450 120 450 c 2
 75 450 l 1
 75 540 l 1
 96 540 l 1
 126 585 l 1
 45 585 l 1
EndSplineSet
EndChar

StartChar: plus
Encoding: 43 43 149
Width: 450
VWidth: 1076
Flags: MW
HStem: 315 90<45 180 270 405>
VStem: 180 90<180 315 405 540>
LayerCount: 2
Fore
SplineSet
45 315 m 1
 45 405 l 1
 180 405 l 1
 180 540 l 1
 270 540 l 1
 270 405 l 1
 405 405 l 1
 405 315 l 5
 270 315 l 1
 270 180 l 1
 180 180 l 1
 180 315 l 1
 45 315 l 1
EndSplineSet
EndChar

StartChar: comma
Encoding: 44 44 124
Width: 240
VWidth: 1076
Flags: W
HStem: -90 270<81.4806 158.519>
VStem: 75 120<90 173.519>
LayerCount: 2
Fore
SplineSet
45 0 m 1
 75 0 l 1
 75 135 l 2
 75 160 95 180 120 180 c 2
 195 180 l 1
 195 90 l 1
 165 90 l 1
 165 -45 l 2
 165 -70 145 -90 120 -90 c 2
 45 -90 l 1
 45 0 l 1
EndSplineSet
EndChar

StartChar: hyphen
Encoding: 45 45 144
Width: 300
VWidth: 1076
Flags: W
HStem: 520 20G<205 255>
VStem: 45 210
LayerCount: 2
Fore
SplineSet
45 180 m 1
 45 270 l 1
 75 270 l 1
 183 351 l 2
 191 357 200 360 210 360 c 2
 255 360 l 1
 255 270 l 1
 225 270 l 1
 117 189 l 2
 109 183 100 180 90 180 c 2
 45 180 l 1
45 360 m 1
 45 450 l 1
 75 450 l 1
 183 531 l 2
 191 537 200 540 210 540 c 2
 255 540 l 5
 255 450 l 1
 225 450 l 1
 117 369 l 2
 109 363 100 360 90 360 c 2
 45 360 l 1
EndSplineSet
EndChar

StartChar: period
Encoding: 46 46 123
Width: 240
VWidth: 1076
Flags: MW
DStem2: 45 45 120 -30 0.716471 0.697617<1.41409 106.075>
LayerCount: 2
Fore
SplineSet
45 45 m 5
 121 119 l 5
 195 45 l 5
 120 -30 l 5
 45 45 l 5
EndSplineSet
EndChar

StartChar: slash
Encoding: 47 47 153
Width: 570
VWidth: 1076
Flags: W
HStem: 0 90<45 77> 720 90<493 525>
DStem2: 77 90 145 25 0.447728 0.89417<0 749.582>
LayerCount: 2
Fore
SplineSet
45 0 m 5
 45 90 l 1
 77 90 l 1
 425 785 l 2
 429 792 434 799 441 803 c 0
 448 807 457 810 465 810 c 2
 525 810 l 1
 525 720 l 1
 493 720 l 1
 145 25 l 2
 141 18 136 11 129 7 c 0
 122 3 113 0 105 0 c 2
 45 0 l 5
EndSplineSet
EndChar

StartChar: zero
Encoding: 48 48 140
Width: 480
VWidth: 1076
Flags: W
HStem: 0 21G<235 245> 700 20G<235 246.5>
VStem: 75 90<158 562> 315 90<158 562>
LayerCount: 2
Fore
SplineSet
75 135 m 2
 75 585 l 2
 75 599 82 613 93 621 c 2
 213 711 l 2
 221 717 230 720 240 720 c 2
 242 720 l 2
 251 720 260 716 267 711 c 2
 387 621 l 2
 398 613 405 599 405 585 c 2
 405 135 l 2
 405 121 398 107 387 99 c 2
 267 9 l 2
 259 3 250 0 240 0 c 0
 230 0 221 3 213 9 c 2
 93 99 l 2
 82 107 75 121 75 135 c 2
165 158 m 1
 240 101 l 1
 315 158 l 1
 315 562 l 1
 240 619 l 1
 165 562 l 1
 165 158 l 1
EndSplineSet
Substitution2: "'onum' Minuskelziffern-1" zero.oldstyle
EndChar

StartChar: one
Encoding: 49 49 132
Width: 240
VWidth: 1024
Flags: MW
HStem: 0 90<165 195> 630 90<45 75>
VStem: 75 90<90 630>
LayerCount: 2
Fore
SplineSet
45 630 m 1
 45 720 l 1
 120 720 l 2
 132 720 144 715 152 707 c 0
 160 699 165 687 165 675 c 2
 165 90 l 1
 195 90 l 1
 195 0 l 5
 120 0 l 2
 108 0 96 5 88 13 c 0
 80 21 75 33 75 45 c 2
 75 630 l 1
 45 630 l 1
EndSplineSet
Substitution2: "'tnum' Tabellenziffern-1" one.fitted
Substitution2: "'onum' Minuskelziffern-1" one.oldstyle
EndChar

StartChar: two
Encoding: 50 50 133
Width: 480
VWidth: 1076
Flags: MW
HStem: 0 90<375 405> 540 90<75 105>
VStem: 75 90<135 248> 315 90<472 562>
DStem2: 93 306 165 248 0.800865 0.598845<22.9293 277.2> 105 630 147 549 0.8 0.6<0 101.4> 267 711 240 619 0.8 -0.6<33.6 127.8> 267 171 240 79 0.8 -0.6<33.6 135>
LayerCount: 2
Fore
SplineSet
75 45 m 2
 75 270 l 2
 75 284 82 298 93 306 c 2
 315 472 l 1
 315 562 l 1
 240 619 l 1
 147 549 l 2
 139 543 130 540 120 540 c 2
 75 540 l 1
 75 630 l 1
 105 630 l 1
 213 711 l 2
 221 717 230 720 240 720 c 2
 242 720 l 2
 251 720 260 716 267 711 c 2
 387 621 l 2
 398 613 405 599 405 585 c 2
 405 450 l 2
 405 436 398 422 387 414 c 2
 165 248 l 1
 165 135 l 1
 213 171 l 2
 221 177 230 180 240 180 c 0
 250 180 259 177 267 171 c 2
 375 90 l 1
 405 90 l 1
 405 0 l 1
 360 0 l 2
 350 0 341 3 333 9 c 2
 240 79 l 1
 147 9 l 2
 140 4 132 1 124 0 c 0
 123 0 121 0 120 0 c 0
 113 0 106 2 100 5 c 0
 93 9 86 14 82 21 c 0
 78 28 75 37 75 45 c 2
EndSplineSet
Substitution2: "'onum' Minuskelziffern-1" two.oldstyle
EndChar

StartChar: three
Encoding: 51 51 134
Width: 480
VWidth: 1076
Flags: MW
HStem: 90 90<75 105> 540 90<75 105>
VStem: 315 90<157 262 487 562>
DStem2: 105 630 147 549 0.8 0.6<0 101.4> 147 171 105 90 0.8 -0.6<15 116.4> 211 410 314 374 0.803694 0.595043<61.3589 129.402> 314 374 212 337 0.808397 -0.588638<0 66.7359> 267 711 240 619 0.8 -0.6<33.6 127.8> 240 101 267 9 0.8 0.6<0 93.6>
LayerCount: 2
Fore
SplineSet
75 90 m 1
 75 180 l 1
 120 180 l 2
 130 180 139 177 147 171 c 2
 240 101 l 1
 315 157 l 1
 315 262 l 1
 212 337 l 2
 201 345 193 360 193 374 c 0
 193 388 200 402 211 410 c 6
 315 487 l 5
 315 562 l 1
 240 619 l 1
 147 549 l 2
 139 543 130 540 120 540 c 2
 75 540 l 1
 75 630 l 1
 105 630 l 1
 213 711 l 2
 221 717 230 720 240 720 c 2
 242 720 l 2
 251 720 260 716 267 711 c 2
 387 621 l 2
 398 613 405 599 405 585 c 2
 405 465 l 2
 405 451 398 437 387 429 c 6
 314 374 l 5
 387 321 l 2
 398 313 405 299 405 285 c 2
 405 135 l 2
 405 121 398 107 387 99 c 2
 267 9 l 2
 259 3 250 0 240 0 c 0
 230 0 221 3 213 9 c 2
 105 90 l 1
 75 90 l 1
EndSplineSet
Substitution2: "'onum' Minuskelziffern-1" three.oldstyle
EndChar

StartChar: four
Encoding: 52 52 135
Width: 480
VWidth: 1076
Flags: W
HStem: 0 21G<354 435> 180 90<150 315 405 435> 700 20G<285 366>
VStem: 60 90<270 361> 285 120<630 706.622> 315 90<90 180 270 630>
LayerCount: 2
Fore
SplineSet
60 225 m 2xf4
 60 375 l 2
 60 384 63 393 68 400 c 2
 158 535 l 2
 166 547 180 555 195 555 c 2
 240 555 l 1
 240 465 l 1
 219 465 l 1
 150 361 l 1
 150 270 l 1
 315 270 l 1
 315 630 l 1xf4
 285 630 l 1
 285 720 l 1
 360 720 l 2
 372 720 384 715 392 707 c 0
 400 699 405 687 405 675 c 2xf8
 405 270 l 1
 435 270 l 1
 435 180 l 1
 405 180 l 1
 405 90 l 1
 435 90 l 1
 435 0 l 1
 360 0 l 2
 348 0 336 5 328 13 c 0
 320 21 315 33 315 45 c 2
 315 180 l 1
 105 180 l 2
 93 180 81 185 73 193 c 0
 65 201 60 213 60 225 c 2xf4
EndSplineSet
Substitution2: "'onum' Minuskelziffern-1" four.oldstyle
EndChar

StartChar: five
Encoding: 53 53 136
Width: 480
VWidth: 1076
Flags: MW
HStem: 90 90<75 105> 630 90<375 405>
VStem: 75 90<472 585> 315 90<157 247>
DStem2: 165 472 93 414 0.799135 -0.601151<0 255.129> 147 171 105 90 0.8 -0.6<15 116.4> 240 641 165 585 0.773957 -0.633238<-22.5855 0> 240 641 267 549 0.8 0.6<0 101.4> 240 101 267 9 0.8 0.6<0 93.6>
LayerCount: 2
Fore
SplineSet
75 90 m 1
 75 180 l 1
 120 180 l 2
 130 180 139 177 147 171 c 2
 240 101 l 1
 315 157 l 1
 315 247 l 1
 93 414 l 2
 82 422 75 436 75 450 c 2
 75 675 l 2
 75 683 78 692 82 699 c 0
 86 706 93 711 100 715 c 0
 106 718 113 720 120 720 c 0
 121 720 123 720 124 720 c 0
 132 719 140 716 147 711 c 2
 240 641 l 1
 333 711 l 2
 341 717 350 720 360 720 c 2
 405 720 l 1
 405 630 l 1
 375 630 l 1
 267 549 l 2
 259 543 250 540 240 540 c 0
 230 540 221 543 213 549 c 2
 165 585 l 1
 165 472 l 1
 387 306 l 2
 398 298 405 284 405 270 c 2
 405 135 l 2
 405 121 398 107 387 99 c 2
 267 9 l 2
 259 3 250 0 240 0 c 0
 230 0 221 3 213 9 c 2
 105 90 l 1
 75 90 l 1
EndSplineSet
Substitution2: "'onum' Minuskelziffern-1" five.oldstyle
EndChar

StartChar: seven
Encoding: 55 55 138
Width: 480
VWidth: 1076
Flags: MW
HStem: 0 90<267 285> 630 90<75 306>
DStem2: 166 56 267 90 0.236956 0.97152<56.9643 590.827>
LayerCount: 2
Fore
SplineSet
75 630 m 1
 75 720 l 1
 363 720 l 2
 377 720 390 714 398 703 c 0
 404 695 408 685 408 675 c 0
 408 672 408 667 407 664 c 2
 267 90 l 1
 285 90 l 1
 285 0 l 1
 210 0 l 2
 196 0 183 6 175 17 c 0
 169 25 165 35 165 45 c 0
 165 48 165 53 166 56 c 2
 306 630 l 1
 75 630 l 1
EndSplineSet
Substitution2: "'onum' Minuskelziffern-1" seven.oldstyle
EndChar

StartChar: eight
Encoding: 56 56 139
Width: 480
VWidth: 1076
Flags: MW
VStem: 75 90<158 256 472 562> 315 90<158 248 464 562>
DStem2: 93 621 165 562 0.8 0.6<22.2 116.4> 165 472 93 414 0.800865 -0.598845<0 34.2713 124.87 129.401 220 254.271> 165 158 93 99 0.8 -0.6<0 94.2> 267 711 240 619 0.8 -0.6<33.6 127.8> 240 101 267 9 0.8 0.6<0 94.2>
LayerCount: 2
Fore
SplineSet
75 135 m 2
 75 270 l 2
 75 279 78 288 83 295 c 2
 139 380 l 1
 93 414 l 2
 82 422 75 436 75 450 c 2
 75 585 l 2
 75 599 82 613 93 621 c 2
 213 711 l 2
 221 717 230 720 240 720 c 2
 242 720 l 2
 251 720 260 716 267 711 c 2
 387 621 l 2
 398 613 405 599 405 585 c 2
 405 450 l 2
 405 441 402 432 397 425 c 2
 341 340 l 1
 387 306 l 2
 398 298 405 284 405 270 c 2
 405 135 l 2
 405 121 398 107 387 99 c 2
 267 9 l 2
 259 3 250 0 240 0 c 0
 230 0 221 3 213 9 c 2
 93 99 l 2
 82 107 75 121 75 135 c 2
165 158 m 1
 240 101 l 1
 315 158 l 1
 315 248 l 1
 211 325 l 1
 165 256 l 1
 165 158 l 1
165 472 m 1
 269 395 l 1
 315 464 l 1
 315 562 l 1
 240 619 l 1
 165 562 l 1
 165 472 l 1
EndSplineSet
Substitution2: "'onum' Minuskelziffern-1" eight.oldstyle
EndChar

StartChar: colon
Encoding: 58 58 125
Width: 240
VWidth: 1076
Flags: W
HStem: 504 20G<100.459 141>
VStem: 45 150
LayerCount: 2
Fore
SplineSet
45 45 m 1
 121 119 l 1
 195 45 l 1
 120 -30 l 1
 45 45 l 1
45 450 m 1
 121 524 l 1
 195 450 l 1
 120 375 l 1
 45 450 l 1
EndSplineSet
EndChar

StartChar: less
Encoding: 60 60 152
Width: 450
VWidth: 1076
Flags: MW
DStem2: 65 397 171 360 0.831633 0.555325<67.6061 369.153> 171 360 65 323 0.831633 -0.555325<0 301.547>
LayerCount: 2
Fore
SplineSet
45 360 m 0
 45 375 53 389 65 397 c 2
 372 602 l 1
 422 528 l 1
 171 360 l 1
 422 192 l 1
 372 118 l 1
 65 323 l 2
 53 331 45 345 45 360 c 0
EndSplineSet
EndChar

StartChar: equal
Encoding: 61 61 150
Width: 450
VWidth: 1076
Flags: W
HStem: 225 90<45 405> 405 90<45 405>
LayerCount: 2
Fore
SplineSet
45 225 m 1
 45 315 l 1
 405 315 l 1
 405 225 l 1
 45 225 l 1
45 405 m 1
 45 495 l 1
 405 495 l 1
 405 405 l 5
 45 405 l 1
EndSplineSet
EndChar

StartChar: greater
Encoding: 62 62 174
Width: 450
VWidth: 1076
Flags: MW
DStem2: 95 602 45 528 0.831633 -0.555325<0 301.547> 45 192 95 118 0.831633 0.555325<0.487602 302.035>
LayerCount: 2
Fore
SplineSet
45 192 m 1
 296 360 l 1
 45 528 l 1
 95 602 l 1
 402 397 l 2
 414 389 422 375 422 360 c 0
 422 345 414 331 402 323 c 2
 95 118 l 1
 45 192 l 1
EndSplineSet
EndChar

StartChar: question
Encoding: 63 63 127
Width: 525
VWidth: 1076
Flags: MW
HStem: 180 90<285 315> 675 90<45 109.625>
VStem: 195 90<270 422> 375 90<568 648>
DStem2: 84 765 102 677 0.965322 0.261062<-37.6476 146.747> 180 45 255 -30 0.707107 0.707107<0 106.066> 220 490 285 422 0.893272 0.449517<27.4955 173.519> 277 805 249 717 0.877896 -0.478852<17.5579 161.214>
LayerCount: 2
Fore
SplineSet
45 675 m 1
 45 765 l 1
 84 765 l 1
 243 808 l 2
 247 809 251 810 255 810 c 0
 263 810 270 809 277 805 c 2
 442 715 l 2
 449 711 455 705 459 698 c 0
 463 691 465 683 465 675 c 2
 465 540 l 2
 465 532 462 523 458 516 c 0
 454 509 447 504 440 500 c 2
 285 422 l 1
 285 270 l 1
 315 270 l 1
 315 180 l 1
 240 180 l 2
 228 180 216 185 208 193 c 0
 200 201 195 213 195 225 c 2
 195 450 l 2
 195 458 198 467 202 474 c 0
 206 481 213 486 220 490 c 2
 375 568 l 1
 375 648 l 1
 249 717 l 1
 102 677 l 2
 98 676 94 675 90 675 c 2
 45 675 l 1
180 45 m 1
 255 120 l 1
 330 45 l 1
 255 -30 l 1
 180 45 l 1
EndSplineSet
EndChar

StartChar: at
Encoding: 64 64 78
Width: 900
VWidth: 531
Flags: W
HStem: -180 90<339.912 601.397> -135 90<633.887 825> 0 90<615 698.45> 495 25G<445 455 564.5 645> 630 90<349.467 582.477>
VStem: 75 90<120.554 410.994> 285 90<158 382> 525 90<158 382> 735 90<132.913 447.515>
LayerCount: 2
Fore
SplineSet
75 270 m 0xbf80
 75 391 111 503 176 585 c 0
 241 667 338 720 450 720 c 0
 546 720 643 699 714 628 c 0
 785 557 825 442 825 270 c 0
 825 152 802 80 753 39 c 0
 709 2 656 0 613 0 c 2
 600 0 l 1
 570 0 l 2
 558 0 546 5 538 13 c 0
 530 21 525 33 525 45 c 1
 477 9 l 2
 469 3 460 0 450 0 c 0
 440 0 431 3 423 9 c 2
 303 99 l 2
 292 107 285 121 285 135 c 2
 285 405 l 2
 285 419 292 433 303 441 c 2
 423 531 l 2
 431 537 440 540 450 540 c 0
 460 540 469 537 477 531 c 2
 540 484 l 1
 548 491 559 495 570 495 c 2
 645 495 l 1
 645 405 l 1
 615 405 l 1
 615 90 l 1
 652 91 679 94 695 108 c 0
 714 124 735 164 735 270 c 0
 735 428 700 515 651 564 c 0
 602 613 534 630 450 630 c 0
 366 630 298 593 247 529 c 0
 196 465 165 374 165 270 c 0
 165 166 192 74 240 11 c 0
 288 -52 355 -90 450 -90 c 0xbf80
 550 -90 661 -45 780 -45 c 2
 825 -45 l 1
 825 -135 l 1
 780 -135 l 2x7f80
 686 -135 574 -180 450 -180 c 0
 330 -180 231 -126 168 -43 c 0
 105 40 75 151 75 270 c 0xbf80
375 158 m 1
 450 101 l 1
 525 158 l 1
 525 382 l 1
 450 439 l 1
 375 382 l 1
 375 158 l 1
EndSplineSet
EndChar

StartChar: A
Encoding: 65 65 79
Width: 600
VWidth: 531
Flags: W
HStem: 0 21G<296.5 303.5 474 555> 720 90<75 247.375 525 555>
VStem: 296 89<523.391 681.461> 435 120<13.3779 62 720 796.622> 435 90<163 720>
LayerCount: 2
Fore
SplineSet
75 135 m 0xf0
 75 143 78 152 82 159 c 0
 191 335 278 493 293 590 c 0
 295 603 296 614 296 624 c 0
 296 652 288 669 273 683 c 0
 252 702 207 720 123 720 c 2
 75 720 l 1
 75 810 l 1
 123 810 l 2
 218 810 289 793 335 749 c 0
 371 715 385 668 385 619 c 0
 385 605 384 590 382 575 c 0
 363 455 282 313 184 153 c 1
 300 95 l 1
 435 163 l 1xe8
 435 765 l 2
 435 777 440 789 448 797 c 0
 456 805 468 810 480 810 c 2
 555 810 l 1
 555 720 l 1xf0
 525 720 l 1
 525 90 l 1xe8
 555 90 l 1
 555 0 l 1
 480 0 l 2
 468 0 456 5 448 13 c 0
 440 21 435 33 435 45 c 2
 435 62 l 1
 320 5 l 2
 314 2 307 0 300 0 c 0
 293 0 286 2 280 5 c 2
 100 95 l 2
 89 101 80 111 77 123 c 0
 76 127 75 131 75 135 c 0xf0
EndSplineSet
Substitution2: "'ss01' Antiqua-Versalien-1" A.antiqua
EndChar

StartChar: B
Encoding: 66 66 80
Width: 585
VWidth: 531
Flags: MW
HStem: 0 90<45 75 287.184 312.816> 720 90<45 75>
VStem: 75 90<163 377 478 647> 435 90<163 377>
DStem2: 165 748 165 647 0.894427 0.447214<0 95.7037> 165 478 165 377 0.893893 0.448281<0 105.882 218.579 266.986> 165 163 165 62 0.8931 -0.449858<45.4356 151.159> 332 797 291 710 0.707107 -0.707107<32.5269 192.333> 401 495 300 445 0.8931 -0.449858<0 83.4486> 300 95 320 5 0.894427 0.447214<0 151.158>
LayerCount: 2
Fore
SplineSet
45 0 m 1
 45 90 l 1
 75 90 l 1
 75 720 l 1
 45 720 l 1
 45 810 l 1
 120 810 l 2
 132 810 144 805 152 797 c 0
 160 789 165 777 165 765 c 2
 165 748 l 1
 280 805 l 2
 288 809 298 811 307 809 c 0
 316 807 325 804 332 797 c 2
 512 617 l 2
 520 609 525 597 525 585 c 0
 525 583 524 580 524 578 c 0
 522 564 513 551 500 545 c 2
 401 495 l 1
 500 445 l 2
 507 441 514 436 518 429 c 0
 522 422 525 413 525 405 c 2
 525 135 l 2
 525 127 522 118 518 111 c 0
 514 104 507 99 500 95 c 2
 320 5 l 2
 314 2 307 0 300 0 c 0
 293 0 286 2 280 5 c 6
 165 62 l 5
 165 45 l 2
 165 33 160 21 152 13 c 0
 144 5 132 0 120 0 c 2
 45 0 l 1
165 163 m 5
 300 95 l 5
 435 163 l 1
 435 377 l 1
 300 445 l 1
 165 377 l 1
 165 163 l 5
165 478 m 1
 404 597 l 1
 291 710 l 1
 165 647 l 1
 165 478 l 1
EndSplineSet
Substitution2: "'ss01' Antiqua-Versalien-1" B.antiqua
EndChar

StartChar: C
Encoding: 67 67 81
Width: 600
VWidth: 909
Flags: MW
HStem: 0 90<224.241 352.405> 45 90<488.438 555> 675 90<518 555> 717 93<187.33 225 388.258 414.236>
VStem: 75 90<216.094 657.455> 225 90<248 652>
DStem2: 325 90 341 1 0.969816 0.243839<-16.9153 212.085> 406 807 397 714 0.936329 -0.351123<24.2275 119.616>
LayerCount: 2
Fore
SplineSet
75 405 m 0xac
 75 558 77 659 98 715 c 0
 110 749 134 777 165 792 c 0
 196 807 230 810 270 810 c 0
 282 810 294 805 302 797 c 0
 310 789 315 777 315 765 c 5
 363 801 l 6
 369 806 377 809 384 810 c 0
 386 810 388 810 390 810 c 0
 395 810 401 809 406 807 c 2
 518 765 l 1
 555 765 l 1
 555 675 l 1
 510 675 l 2
 505 675 499 676 494 678 c 2
 397 714 l 5
 315 652 l 5
 315 225 l 2
 315 211 308 197 297 189 c 2
 211 124 l 1
 220 112 231 106 246 100 c 0
 264 93 291 90 325 90 c 1xac
 499 134 l 2
 503 135 506 135 510 135 c 2
 555 135 l 1
 555 45 l 1
 516 45 l 1x6c
 341 1 l 2
 337 0 334 0 330 0 c 0
 288 0 251 3 216 16 c 0
 181 29 149 52 128 86 c 0
 85 153 75 249 75 405 c 0xac
165 405 m 0
 165 321 170 259 178 213 c 1
 225 248 l 1
 225 717 l 1
 204 713 188 706 182 684 c 1
 169 648 165 558 165 405 c 0
EndSplineSet
Substitution2: "'ss01' Antiqua-Versalien-1" C.antiqua
EndChar

StartChar: D
Encoding: 68 68 82
Width: 600
VWidth: 909
Flags: HMW
HStem: 0 90<45 75 255 345> 720 90<45 189.955>
VStem: 75 90<163 566> 435 90<163 413.5>
DStem2: 88 617 165 566 0.707107 0.707107<18.3848 144.25> 165 163 165 62 0.8931 -0.449858<45.4356 151.159> 300 95 320 5 0.894427 0.447214<0 159.37>
LayerCount: 2
Fore
SplineSet
144.993 810 m 1
 245 810 318 808 379 784 c 0
 415 770 447 746 468 713 c 0
 489 680 501 640 509 591 c 0
 524 498 525 369 525 179 c 2
 525 135 l 2
 525 127 522 118 518 111 c 0
 514 104 507 99 500 95 c 2
 320 5 l 2
 314 2 307 0 300 0 c 0
 293 0 286 2 280 5 c 2
 165 62 l 1
 165 45 l 2
 165 33 160 21 152 13 c 0
 144 5 132 0 120 0 c 2
 45 0 l 1
 45 90 l 1
 75 90 l 1
 75 585 l 2
 75 597 80 609 88 617 c 2
 190 719 l 1
 160 720 127 720 90 720 c 2
 45 720 l 1
 45 810 l 1
 144.993 810 l 1
165 163 m 1
 300 95 l 1
 435 163 l 1
 435 361 433 495 420 577 c 0
 413 619 404 646 392 664 c 0
 380 682 368 691 346 700 c 0
 336 704 324 707 309 710 c 1
 165 566 l 1
 165 163 l 1
EndSplineSet
Substitution2: "'ss01' Antiqua-Versalien-1" D.antiqua
EndChar

StartChar: E
Encoding: 69 69 83
Width: 600
VWidth: 909
Flags: W
HStem: 0 90<224.241 352.405> 45 90<488.438 555> 405 90<315 555> 675 90<518 555> 790 20G<250 276 380.5 392.5>
VStem: 75 90<216.094 657.455> 225 90<248 405 495 652>
LayerCount: 2
Fore
SplineSet
75 405 m 0xbe
 75 558 77 659 98 715 c 0
 110 749 134 777 165 792 c 0
 196 807 230 810 270 810 c 0
 282 810 294 805 302 797 c 0
 310 789 315 777 315 765 c 1
 363 801 l 2
 369 806 377 809 384 810 c 0
 386 810 388 810 390 810 c 0
 395 810 401 809 406 807 c 2
 518 765 l 1
 555 765 l 1
 555 675 l 1
 510 675 l 2
 505 675 499 676 494 678 c 2
 397 714 l 1
 315 652 l 1
 315 495 l 1
 555 495 l 1
 555 405 l 1
 315 405 l 1
 315 225 l 2
 315 211 308 197 297 189 c 2
 211 124 l 1
 220 112 231 106 246 100 c 0
 264 93 291 90 325 90 c 1xbe
 499 134 l 2
 503 135 506 135 510 135 c 2
 555 135 l 1
 555 45 l 1
 516 45 l 1x7e
 341 1 l 2
 337 0 334 0 330 0 c 0
 288 0 251 3 216 16 c 0
 181 29 149 52 128 86 c 0
 85 153 75 249 75 405 c 0xbe
165 405 m 0
 165 321 170 259 178 213 c 1
 225 248 l 1
 225 717 l 1
 204 713 188 706 182 684 c 1
 169 648 165 558 165 405 c 0
EndSplineSet
Substitution2: "'ss01' Antiqua-Versalien-1" E.antiqua
EndChar

StartChar: F
Encoding: 70 70 84
Width: 570
VWidth: 909
Flags: W
HStem: -180 21G<296.5 303.5> -90 90<75 109> 405 90<75 160 305 525> 675 90<458.438 525> 790 20G<296.5 303.5>
LayerCount: 2
Fore
SplineSet
75 0 m 1
 120 0 l 2
 127 0 134 -2 140 -5 c 2
 300 -85 l 1
 420 -25 l 1
 205 405 l 1
 75 405 l 1
 75 495 l 1
 160 495 l 1
 80 655 l 2
 77 661 75 668 75 675 c 0
 75 680 75 684 77 689 c 0
 81 700 89 710 100 715 c 2
 280 805 l 2
 286 808 293 810 300 810 c 2
 302 810 l 2
 305 810 308 810 311 809 c 2
 486 765 l 1
 525 765 l 1
 525 675 l 1
 480 675 l 2
 476 675 473 675 469 676 c 2
 305 717 l 1
 180 655 l 1
 260 495 l 1
 525 495 l 1
 525 405 l 1
 305 405 l 1
 520 -25 l 2
 523 -31 525 -38 525 -45 c 0
 525 -50 525 -54 523 -59 c 0
 519 -70 511 -80 500 -85 c 2
 320 -175 l 2
 314 -178 307 -180 300 -180 c 0
 293 -180 286 -178 280 -175 c 2
 109 -90 l 1
 75 -90 l 1
 75 0 l 1
EndSplineSet
Substitution2: "'ss01' Antiqua-Versalien-1" F.antiqua
EndChar

StartChar: G
Encoding: 71 71 85
Width: 615
VWidth: 909
Flags: MW
HStem: 0 90<224.241 352.72> 405 91<315 438.891> 675 90<518 555> 717 93<187.33 225 388.258 414.236>
VStem: 75 90<216.094 657.455> 225 90<248 405 496 652> 465 90<125 375.81>
DStem2: 406 807 397 714 0.936329 -0.351123<24.2275 119.616> 465 125 341 1 0.970142 0.242536<-161.105 5.09905>
LayerCount: 2
Fore
SplineSet
75 405 m 0
 75 558 77 659 98 715 c 0
 110 749 134 777 165 792 c 0
 196 807 230 810 270 810 c 0
 282 810 294 805 302 797 c 0
 310 789 315 777 315 765 c 1
 363 801 l 2
 369 806 377 809 384 810 c 0
 386 810 388 810 390 810 c 0
 395 810 401 809 406 807 c 2
 518 765 l 1
 555 765 l 1
 555 675 l 1
 510 675 l 2
 505 675 499 676 494 678 c 2
 397 714 l 1
 315 652 l 1
 315 496 l 1
 317 496 l 2
 375 496 420 494 460 477 c 0
 485 467 508 447 522 423 c 0
 536 399 543 371 547 338 c 0
 554 285 555 217 555 121 c 2
 555 90 l 2
 555 80 551 70 545 62 c 0
 539 54 531 48 521 46 c 2
 341 1 l 2
 337 0 334 0 330 0 c 0
 288 0 251 3 216 16 c 0
 181 29 149 52 128 86 c 0
 85 153 75 249 75 405 c 0
165 405 m 0
 165 321 170 259 178 213 c 1
 225 248 l 1
 225 717 l 1
 204 713 188 706 182 684 c 1
 169 648 165 558 165 405 c 0
211 124 m 1
 220 112 231 106 246 100 c 0
 264 93 291 90 325 90 c 1
 465 125 l 1
 465 217 464 284 458 326 c 0
 454 352 449 369 444 378 c 0
 439 387 435 390 425 394 c 0
 409 401 371 404 315 405 c 1
 315 225 l 2
 315 211 308 197 297 189 c 2
 211 124 l 1
EndSplineSet
Substitution2: "'ss01' Antiqua-Versalien-1" G.antiqua
EndChar

StartChar: H
Encoding: 72 72 86
Width: 600
VWidth: 909
Flags: MW
HStem: -180 90<405 435> 0 90<45 75> 405 90<165 410.013> 675 90<458.438 525>
VStem: 75 90<90 405 495 647> 435 90<-90 378>
DStem2: 100 715 165 647 0.894427 0.447214<27.7272 184.252> 311 809 305 717 0.969816 -0.243839<16.6143 218.269>
LayerCount: 2
Fore
SplineSet
45 0 m 1
 45 90 l 1
 75 90 l 1
 75 675 l 2
 75 683 78 692 82 699 c 0
 86 706 93 711 100 715 c 2
 280 805 l 2
 286 808 293 810 300 810 c 2
 302 810 l 2
 305 810 308 810 311 809 c 2
 486 765 l 1
 525 765 l 1
 525 675 l 1
 480 675 l 2
 476 675 473 675 469 676 c 2
 305 717 l 1
 165 647 l 1
 165 495 l 1
 240 495 l 1
 259 495 l 2
 309 495 348 494 383 489 c 0
 422 483 460 467 484 435 c 0
 509 401 517 360 521 306 c 0
 525 255 525 190 525 106 c 2
 525 90 l 1
 525 -135 l 2
 525 -147 520 -159 512 -167 c 0
 504 -175 492 -180 480 -180 c 2
 405 -180 l 1
 405 -90 l 1
 435 -90 l 1
 435 90 l 2
 435 182 435 251 431 299 c 0
 427 347 418 372 411 382 c 0
 404 392 397 396 369 400 c 0
 341 404 298 405 240 405 c 2
 165 405 l 1
 165 45 l 2
 165 33 160 21 152 13 c 0
 144 5 132 0 120 0 c 6
 45 0 l 1
EndSplineSet
Substitution2: "'ss01' Antiqua-Versalien-1" H.antiqua
EndChar

StartChar: I
Encoding: 73 73 87
Width: 570
VWidth: 909
Flags: MW
HStem: 90 90<45 79> 405 90<375 405 495 525> 720 90<45 298.441 495 525>
VStem: 405 90<125 405 495 647>
DStem2: 110 175 79 90 0.895472 -0.445118<10.0754 184.253> 275 93 281 1 0.970142 0.242536<0 133.88>
CounterMasks: 1 e0
LayerCount: 2
Fore
SplineSet
45 90 m 1
 45 180 l 1
 90 180 l 2
 97 180 104 178 110 175 c 2
 275 93 l 1
 405 125 l 1
 405 405 l 1
 375 405 l 1
 375 495 l 1
 405 495 l 1
 405 647 l 1
 385 657 l 2
 315 692 286 707 252 713 c 1
 220 720 177 720 90 720 c 2
 45 720 l 1
 45 810 l 1
 90 810 l 2
 177 810 224 810 269 802 c 1
 312 793 348 776 405 748 c 1
 405 765 l 2
 405 777 410 788 418 797 c 1
 427 805 438 810 450 810 c 2
 525 810 l 1
 525 720 l 1
 495 720 l 1
 495 495 l 1
 525 495 l 1
 525 405 l 1
 495 405 l 1
 495 90 l 2
 495 80 492 70 485 62 c 0
 479 54 471 49 461 46 c 2
 281 1 l 2
 278 0 274 0 271 0 c 0
 264 0 256 2 250 5 c 2
 79 90 l 1
 45 90 l 1
EndSplineSet
Substitution2: "'ss01' Antiqua-Versalien-1" I.antiqua
EndChar

StartChar: J
Encoding: 74 74 88
Width: 570
VWidth: 909
Flags: MW
HStem: -180 90<175.386 260> 90 90<176.311 315> 405 90<375 405 495 525> 720 90<45 297.328 495 525>
VStem: 45 90<-55.0541 54.0516> 405 90<-17 405 495 647>
DStem2: 260 -90 290 -175 0.894427 0.447214<-31.0108 162.339>
LayerCount: 2
Fore
SplineSet
45 0 m 0
 45 58 74 108 117 138 c 0
 160 168 213 180 270 180 c 2
 315 180 l 1
 315 90 l 1
 270 90 l 2
 227 90 190 80 168 64 c 0
 146 48 135 31 135 0 c 0
 135 -32 145 -49 167 -64 c 0
 187 -78 220 -89 260 -90 c 1
 405 -17 l 1
 405 405 l 1
 375 405 l 1
 375 495 l 1
 405 495 l 1
 405 647 l 1
 385 657 l 2
 339 680 309 694 286 703 c 0
 242 719 211 720 99 720 c 2
 90 720 l 1
 45 720 l 1
 45 810 l 1
 90 810 l 2
 209 810 257 810 317 788 c 0
 343 779 371 765 405 748 c 1
 405 765 l 2
 405 777 410 789 418 797 c 0
 426 805 438 810 450 810 c 2
 525 810 l 1
 525 720 l 1
 495 720 l 1
 495 495 l 1
 525 495 l 1
 525 405 l 1
 495 405 l 1
 495 -45 l 2
 495 -53 492 -62 488 -69 c 0
 484 -76 477 -81 470 -85 c 2
 290 -175 l 2
 284 -178 277 -180 270 -180 c 0
 212 -180 159 -168 116 -138 c 0
 73 -108 45 -58 45 0 c 0
EndSplineSet
Substitution2: "'ss01' Antiqua-Versalien-1" J.antiqua
EndChar

StartChar: K
Encoding: 75 75 90
Width: 570
VWidth: 909
Flags: W
HStem: 0 90<45 75 502 525> 520 20G<296.5 302> 675 90<458.438 525> 790 20G<296.5 303.5>
VStem: 75 90<90 377 478 647>
LayerCount: 2
Fore
SplineSet
45 0 m 1
 45 90 l 1
 75 90 l 5
 75 675 l 2
 75 683 78 692 82 699 c 0
 86 706 93 711 100 715 c 2
 280 805 l 2
 286 808 293 810 300 810 c 2
 302 810 l 2
 305 810 308 810 311 809 c 2
 486 765 l 1
 525 765 l 1
 525 675 l 1
 480 675 l 2
 476 675 473 675 469 676 c 2
 305 717 l 1
 165 647 l 1
 165 478 l 1
 280 535 l 2
 286 538 293 540 300 540 c 0
 304 540 307 540 311 539 c 2
 491 494 l 2
 499 492 505 488 511 482 c 0
 517 476 521 470 523 462 c 0
 525 454 525 447 523 439 c 0
 521 431 518 424 512 418 c 2
 360 267 l 1
 502 90 l 1
 525 90 l 1
 525 0 l 1
 480 0 l 2
 467 0 453 7 445 17 c 2
 265 242 l 2
 259 250 255 260 255 270 c 0
 255 283 260 294 268 302 c 2
 392 426 l 1
 305 447 l 1
 165 377 l 1
 165 45 l 2
 165 33 160 21 152 13 c 0
 144 5 132 0 120 0 c 2
 45 0 l 1
EndSplineSet
Substitution2: "'ss01' Antiqua-Versalien-1" K.antiqua
EndChar

StartChar: L
Encoding: 76 76 91
Width: 570
VWidth: 909
Flags: W
HStem: 0 90<45 75 271.415 525> 450 90<255 393.689> 720 90<277.28 394.614>
VStem: 75 90<163 685> 435 90<575.948 685.054>
LayerCount: 2
Fore
SplineSet
45 0 m 1
 45 90 l 1
 75 90 l 1
 75 720 l 2
 75 730 79 740 85 748 c 0
 91 756 99 762 109 764 c 2
 289 809 l 2
 293 810 296 810 300 810 c 0
 358 810 411 798 454 768 c 0
 497 738 525 688 525 630 c 0
 525 572 496 522 453 492 c 0
 410 462 357 450 300 450 c 2
 255 450 l 1
 255 540 l 1
 300 540 l 2
 343 540 380 550 402 566 c 0
 424 582 435 599 435 630 c 0
 435 662 425 679 403 694 c 0
 382 709 347 719 305 720 c 1
 165 685 l 1
 165 163 l 1
 185 153 l 2
 303 94 303 90 422 90 c 2
 480 90 l 1
 525 90 l 1
 525 0 l 1
 480 0 l 2
 310 0 281 5 165 62 c 1
 165 45 l 2
 165 33 160 21 152 13 c 0
 144 5 132 0 120 0 c 2
 45 0 l 1
EndSplineSet
Substitution2: "'ss01' Antiqua-Versalien-1" L.antiqua
EndChar

StartChar: M
Encoding: 77 77 92
Width: 900
VWidth: 909
Flags: MW
HStem: 0 90<45 75 495 525 825 855> 720 90<45 75>
VStem: 75 90<90 647> 405 90<90 647> 735 90<90 650>
DStem2: 165 748 165 647 0.89308 0.449898<0 103.483> 323 804 298 714 0.855732 -0.517419<25.1744 149.853> 452 726 495 647 0.894427 0.447214<3.1305 152.053> 653 804 628 714 0.857493 -0.514496<24.8673 149.547>
CounterMasks: 1 38
LayerCount: 2
Fore
SplineSet
45 0 m 1
 45 90 l 1
 75 90 l 1
 75 720 l 1
 45 720 l 1
 45 810 l 1
 120 810 l 2
 132 810 144 805 152 797 c 0
 160 789 165 777 165 765 c 2
 165 748 l 1
 280 805 l 2
 286 808 293 810 300 810 c 2
 302 810 l 2
 310 810 317 808 323 804 c 2
 452 726 l 1
 610 805 l 2
 616 808 623 810 630 810 c 2
 632 810 l 2
 640 810 647 808 653 804 c 2
 803 714 l 2
 810 710 815 704 819 697 c 0
 823 690 825 683 825 675 c 2
 825 90 l 1
 855 90 l 1
 855 0 l 1
 780 0 l 2
 768 0 756 5 748 13 c 0
 740 21 735 33 735 45 c 2
 735 650 l 1
 628 714 l 1
 495 647 l 1
 495 90 l 1
 525 90 l 1
 525 0 l 1
 450 0 l 2
 438 0 426 5 418 13 c 0
 410 21 405 33 405 45 c 2
 405 650 l 1
 298 714 l 1
 165 647 l 1
 165 45 l 2
 165 33 160 21 152 13 c 0
 144 5 132 0 120 0 c 2
 45 0 l 1
EndSplineSet
Substitution2: "'ss01' Antiqua-Versalien-1" M.antiqua
EndChar

StartChar: N
Encoding: 78 78 93
Width: 600
VWidth: 909
Flags: MW
HStem: 0 90<45 75 525 555> 720 90<45 75 255 345>
VStem: 75 90<90 647> 435 90<90 647>
DStem2: 165 748 165 647 0.8931 0.449858<0 105.723> 320 805 300 715 0.894427 -0.447214<22.3607 173.519>
LayerCount: 2
Fore
SplineSet
45 0 m 1
 45 90 l 1
 75 90 l 1
 75 720 l 1
 45 720 l 1
 45 810 l 1
 120 810 l 2
 132 810 144 805 152 797 c 0
 160 789 165 777 165 765 c 2
 165 748 l 5
 280 805 l 6
 286 808 293 810 300 810 c 0
 307 810 314 808 320 805 c 2
 500 715 l 2
 507 711 514 706 518 699 c 0
 522 692 525 683 525 675 c 2
 525 90 l 1
 555 90 l 1
 555 0 l 1
 480 0 l 2
 468 0 456 5 448 13 c 0
 440 21 435 33 435 45 c 2
 435 647 l 1
 300 715 l 5
 165 647 l 5
 165 45 l 2
 165 33 160 21 152 13 c 0
 144 5 132 0 120 0 c 2
 45 0 l 1
EndSplineSet
Substitution2: "'ss01' Antiqua-Versalien-1" N.antiqua
EndChar

StartChar: O
Encoding: 79 79 94
Width: 630
VWidth: 909
Flags: W
HStem: 0 90<224.241 352.72> 720 90<405 444.447>
VStem: 75 90<216.094 657.455> 225 90<248 652> 465 90<125 376.051>
LayerCount: 2
Fore
SplineSet
75 405 m 0
 75 558 77 659 98 715 c 0
 110 749 134 777 165 792 c 0
 196 807 230 810 270 810 c 0
 282 810 294 805 302 797 c 0
 310 789 315 777 315 765 c 1
 363 801 l 2
 371 807 380 810 390 810 c 0
 396 810 402 810 408 810 c 2
 412 810 l 2
 435 810 458 808 482 793 c 0
 514 773 529 736 538 689 c 0
 554 599 555 442 555 134 c 2
 555 90 l 2
 555 80 551 70 545 62 c 0
 539 54 531 48 521 46 c 2
 341 1 l 2
 337 0 334 0 330 0 c 0
 288 0 251 3 216 16 c 0
 181 29 149 52 128 86 c 0
 85 153 75 249 75 405 c 0
165 405 m 0
 165 321 170 259 178 213 c 1
 225 248 l 1
 225 717 l 1
 204 713 188 706 182 684 c 1
 169 648 165 558 165 405 c 0
211 124 m 1
 220 112 231 106 246 100 c 0
 264 93 291 90 325 90 c 1
 465 125 l 1
 465 437 463 602 450 673 c 1
 441 715 445 719 405 720 c 1
 315 652 l 1
 315 360 l 1
 315 225 l 2
 315 211 308 197 297 189 c 2
 211 124 l 1
EndSplineSet
Substitution2: "'ss01' Antiqua-Versalien-1" O.antiqua
EndChar

StartChar: P
Encoding: 80 80 95
Width: 600
VWidth: 909
Flags: MW
HStem: -180 90<45 75> 720 90<45 75 291.71 330.74>
VStem: 75 90<-90 62 163 647> 435 90<163 685>
DStem2: 165 748 165 647 0.894427 0.447214<0 111.356> 165 163 165 62 0.8931 -0.449858<45.4356 151.159> 300 95 320 5 0.894427 0.447214<0 151.158> 311 809 305 717 0.970142 -0.242536<16.4924 150.372>
LayerCount: 2
Fore
SplineSet
45 -90 m 1
 75 -90 l 1
 75 720 l 1
 45 720 l 1
 45 810 l 1
 120 810 l 2
 132 810 144 805 152 797 c 0
 160 789 165 777 165 765 c 2
 165 748 l 1
 280 805 l 2
 286 808 293 810 300 810 c 0
 304 810 307 810 311 809 c 2
 491 764 l 2
 501 762 509 756 515 748 c 0
 521 740 525 730 525 720 c 2
 525 135 l 2
 525 127 522 118 518 111 c 0
 514 104 507 99 500 95 c 2
 320 5 l 2
 314 2 307 0 300 0 c 0
 293 0 286 2 280 5 c 2
 165 62 l 1
 165 -135 l 2
 165 -147 160 -159 152 -167 c 0
 144 -175 132 -180 120 -180 c 2
 45 -180 l 1
 45 -90 l 1
165 163 m 1
 300 95 l 1
 435 163 l 1
 435 685 l 1
 305 717 l 1
 165 647 l 1
 165 163 l 1
EndSplineSet
Substitution2: "'ss01' Antiqua-Versalien-1" P.antiqua
EndChar

StartChar: Q
Encoding: 81 81 96
Width: 630
VWidth: 909
Flags: HMW
HStem: 0 90<224.241 352.72 555 600> 720 90<405 444.447>
VStem: 75 90<216.094 657.455> 225 90<248 652> 465 90<125 376.051>
DStem2: 325 90 341 1 0.970142 0.242536<-16.7963 130.231>
LayerCount: 2
Fore
SplineSet
75 405 m 0
 75 558 77 659 98 715 c 0
 110 749 134 777 165 792 c 0
 196 807 230 810 270 810 c 0
 282 810 294 805 302 797 c 0
 310 789 315 777 315 765 c 1
 363 801 l 2
 371 807 380 810 390 810 c 0
 396 810 402 810 408 810 c 2
 412 810 l 2
 435 810 458 808 482 793 c 0
 514 773 529 736 538 689 c 0
 551 618 554 507 555 315 c 1
 555 90 l 1
 600 90 l 1
 600 0 l 1
 510 0 l 2
 500 0 491 3 483 9 c 0
 475 15 470 24 467 33 c 1
 341 1 l 2
 337 0 334 0 330 0 c 0
 288 0 251 3 216 16 c 0
 181 29 149 52 128 86 c 0
 85 153 75 249 75 405 c 0
165 405 m 0
 165 321 170 259 178 213 c 1
 225 248 l 1
 225 717 l 1
 204 713 188 706 182 684 c 1
 169 648 165 558 165 405 c 0
297 189 m 1
 211 124 l 1
 220 112 231 106 246 100 c 0
 264 93 291 90 325 90 c 1
 465 125 l 1
 465 437 463 602 450 673 c 1
 441 715 445 719 405 720 c 1
 315 652 l 1
 315 225 l 2
 315 211 308 197 297 189 c 1
EndSplineSet
Substitution2: "'ss01' Antiqua-Versalien-1" Q.antiqua
EndChar

StartChar: R
Encoding: 82 82 97
Width: 570
VWidth: 909
Flags: W
HStem: 0 90<45 75 507 525> 790 20G<45 126>
VStem: 45 120<13.3779 90 748 796.622> 75 90<90 647>
LayerCount: 2
Fore
SplineSet
45 0 m 1xe0
 45 90 l 1xe0
 75 90 l 1
 75 720 l 1xd0
 45 720 l 1
 45 810 l 1
 120 810 l 2
 132 810 144 805 152 797 c 0
 160 789 165 777 165 765 c 2
 165 748 l 1xe0
 280 805 l 2
 288 809 298 811 307 809 c 0
 316 807 325 804 332 797 c 2
 512 617 l 2
 520 609 525 597 525 585 c 0
 525 574 521 562 513 554 c 2
 355 383 l 1
 507 90 l 1
 525 90 l 1
 525 0 l 1
 480 0 l 2
 472 0 464 3 457 7 c 0
 450 11 444 17 440 24 c 2
 260 369 l 2
 256 377 254 387 255 396 c 0
 256 405 261 414 267 421 c 2
 418 584 l 1
 291 710 l 1
 165 647 l 1xd0
 165 45 l 2
 165 33 160 21 152 13 c 0
 144 5 132 0 120 0 c 2
 45 0 l 1xe0
EndSplineSet
Substitution2: "'ss01' Antiqua-Versalien-1" R.antiqua
EndChar

StartChar: S
Encoding: 83 83 98
Width: 615
VWidth: 909
Flags: W
HStem: 0 21G<298 301.5> 45 90<75 141.562> 405 90<173.107 438.669> 675 90<487.965 555> 790 20G<325.5 330.5>
VStem: 75 90<500.61 684> 465 90<126 377.948>
LayerCount: 2
Fore
SplineSet
75 45 m 1
 75 135 l 1
 120 135 l 2
 124 135 127 135 131 134 c 2
 301 91 l 1
 465 126 l 1
 465 205 464 265 460 307 c 0
 455 355 447 377 439 385 c 0
 432 392 421 397 393 401 c 0
 365 405 325 405 270 405 c 2
 256 405 l 2
 229 405 207 405 185 408 c 0
 160 412 132 422 113 443 c 0
 89 470 82 504 78 547 c 0
 75 587 75 636 75 704 c 2
 75 720 l 2
 75 730 79 740 85 748 c 0
 91 756 100 762 110 764 c 2
 317 809 l 2
 320 810 324 810 327 810 c 2
 329 810 l 2
 332 810 335 810 338 809 c 2
 516 765 l 1
 555 765 l 1
 555 675 l 1
 510 675 l 2
 506 675 503 675 499 676 c 2
 326 719 l 1
 165 684 l 1
 165 629 166 584 168 555 c 1
 171 527 166 500 197 497 c 0
 212 495 237 495 270 495 c 2
 286 495 l 2
 333 495 371 494 405 490 c 0
 442 485 478 474 504 447 c 0
 535 415 545 372 550 316 c 0
 555 264 555 197 555 107 c 2
 555 90 l 2
 555 80 551 70 545 62 c 0
 539 54 529 48 519 46 c 2
 309 1 l 2
 306 0 303 0 300 0 c 0
 296 0 293 0 289 1 c 2
 114 45 l 1
 75 45 l 1
EndSplineSet
Substitution2: "'cv01' Alternatives S-1" S.alt
Substitution2: "'ss01' Antiqua-Versalien-1" S.antiqua
EndChar

StartChar: T
Encoding: 84 84 99
Width: 600
VWidth: 909
Flags: W
HStem: 0 90<224.241 352.405> 45 90<488.438 555> 720 90<45 139 315 555>
VStem: 75 90<216.094 608.67> 225 90<248 683>
LayerCount: 2
Fore
SplineSet
45 720 m 1xb8
 45 810 l 1
 555 810 l 1
 555 720 l 1
 315 720 l 1
 315 225 l 2
 315 211 308 197 297 189 c 2
 211 124 l 1
 220 112 231 106 246 100 c 0
 264 93 291 90 325 90 c 1xb8
 499 134 l 2
 503 135 506 135 510 135 c 2
 555 135 l 1
 555 45 l 1
 516 45 l 1x78
 341 1 l 2
 337 0 334 0 330 0 c 0
 288 0 251 3 216 16 c 0
 181 29 149 52 128 86 c 0
 85 153 75 249 75 405 c 0
 75 562 96 651 132 709 c 0
 134 713 136 716 139 720 c 1
 45 720 l 1xb8
165 405 m 0
 165 321 170 259 178 213 c 1
 225 248 l 1
 225 683 l 1
 219 677 213 670 208 661 c 0
 186 625 165 554 165 405 c 0
EndSplineSet
Substitution2: "'ss01' Antiqua-Versalien-1" T.antiqua
EndChar

StartChar: U
Encoding: 85 85 100
Width: 600
VWidth: 909
Flags: W
HStem: 0 21G<296.5 303.5 474 555> 720 90<45 75 405 435>
VStem: 45 120<720 796.622> 75 90<163 720> 405 120<720 796.622> 435 120<13.3779 62> 435 90<163 720>
LayerCount: 2
Fore
SplineSet
45 720 m 1xe0
 45 810 l 1
 120 810 l 2
 132 810 144 805 152 797 c 0
 160 789 165 777 165 765 c 2xe0
 165 163 l 1
 300 95 l 1
 435 163 l 1
 435 720 l 1xd2
 405 720 l 1
 405 810 l 1
 480 810 l 2
 492 810 504 805 512 797 c 0
 520 789 525 777 525 765 c 2xc8
 525 90 l 1xc2
 555 90 l 1
 555 0 l 1
 480 0 l 2
 468 0 456 5 448 13 c 0
 440 21 435 33 435 45 c 2
 435 62 l 1
 320 5 l 2
 314 2 307 0 300 0 c 0
 293 0 286 2 280 5 c 2
 100 95 l 2
 93 99 86 104 82 111 c 0
 78 118 75 127 75 135 c 2
 75 720 l 1xd4
 45 720 l 1xe0
EndSplineSet
Substitution2: "'ss01' Antiqua-Versalien-1" U.antiqua
EndChar

StartChar: V
Encoding: 86 86 101
Width: 600
VWidth: 909
Flags: MW
HStem: 720 90<45 75 255 404.23>
VStem: 75 90<163 720> 435 90<163 410.092>
DStem2: 165 163 100 95 0.894427 -0.447214<0 151.158> 300 95 320 5 0.894427 0.447214<0 156.779>
LayerCount: 2
Fore
SplineSet
45 720 m 1
 45 810 l 1
 120 810 l 2
 132 810 144 805 152 797 c 0
 160 789 165 777 165 765 c 2
 165 163 l 1
 300 95 l 1
 435 163 l 1
 435 433 434 585 419 656 c 0
 413 683 407 713 375 717 c 0
 359 720 333 720 300 720 c 2
 255 720 l 1
 255 810 l 1
 300 810 l 1
 315 810 l 2
 342 810 367 809 391 805 c 0
 419 800 449 787 470 762 c 0
 489 739 500 709 507 674 c 0
 524 590 525 459 525 230 c 2
 525 135 l 2
 525 127 522 118 518 111 c 0
 514 104 507 99 500 95 c 2
 320 5 l 2
 314 2 307 0 300 0 c 0
 293 0 286 2 280 5 c 2
 100 95 l 2
 93 99 86 104 82 111 c 0
 78 118 75 127 75 135 c 2
 75 720 l 1
 45 720 l 1
EndSplineSet
Substitution2: "'ss01' Antiqua-Versalien-1" V.antiqua
EndChar

StartChar: W
Encoding: 87 87 102
Width: 960
VWidth: 909
Flags: MW
HStem: 0 90<311 345 615 705> 720 90<45 75 615 763.601>
VStem: 75 90<163 647> 435 90<163 647> 795 90<163 409.112>
DStem2: 165 163 100 95 0.894427 -0.447214<0 163.233> 165 748 165 647 0.8931 0.449858<0 105.723> 320 805 300 715 0.894427 -0.447214<22.3607 173.519> 525 163 460 95 0.894427 -0.447214<0 151.158> 660 95 680 5 0.894427 0.447214<0 157.006>
CounterMasks: 1 38
LayerCount: 2
Fore
SplineSet
45 720 m 1
 45 810 l 1
 120 810 l 2
 132 810 144 805 152 797 c 0
 160 789 165 777 165 765 c 2
 165 748 l 1
 280 805 l 2
 286 808 293 810 300 810 c 0
 307 810 314 808 320 805 c 2
 500 715 l 2
 507 711 514 706 518 699 c 0
 522 692 525 683 525 675 c 2
 525 163 l 1
 660 95 l 1
 795 163 l 1
 795 444 793 597 777 664 c 1
 769 693 763 713 731 717 c 0
 715 719 691 720 660 720 c 2
 615 720 l 1
 615 810 l 1
 660 810 l 1
 672 810 l 2
 698 810 722 809 745 806 c 0
 772 802 799 793 821 772 c 0
 843 750 856 720 864 685 c 0
 883 603 885 477 885 250 c 2
 885 135 l 2
 885 127 882 118 878 111 c 0
 874 104 867 99 860 95 c 2
 680 5 l 2
 674 2 667 0 660 0 c 0
 653 0 646 2 640 5 c 2
 460 95 l 2
 453 99 446 104 442 111 c 0
 438 118 435 127 435 135 c 2
 435 647 l 1
 300 715 l 1
 165 647 l 1
 165 163 l 1
 311 90 l 1
 345 90 l 1
 345 0 l 1
 300 0 l 2
 293 0 286 2 280 5 c 2
 100 95 l 2
 93 99 86 104 82 111 c 0
 78 118 75 127 75 135 c 2
 75 720 l 1
 45 720 l 1
EndSplineSet
Substitution2: "'ss01' Antiqua-Versalien-1" W.antiqua
EndChar

StartChar: X
Encoding: 88 88 103
Width: 570
VWidth: 909
Flags: W
HStem: 0 90<365.628 525> 45 90<45 82> 405 90<105 240 330 465> 675 90<488 525> 720 90<45 223.362>
VStem: 240 90<151.259 405 495 662.976>
LayerCount: 2
Fore
SplineSet
45 45 m 1x64
 45 135 l 1
 90 135 l 2
 95 135 101 134 106 132 c 2
 199 97 l 1
 249 148 l 1
 241 203 240 279 240 385 c 2
 240 405 l 1
 105 405 l 1
 105 495 l 1
 240 495 l 1
 239 584 238 645 231 677 c 0
 228 693 223 701 220 705 c 0
 217 709 215 711 204 714 c 0
 187 719 148 720 90 720 c 2
 45 720 l 1
 45 810 l 1
 90 810 l 1
 124 810 l 2
 126 810 128 810 130 810 c 0
 168 810 199 809 229 800 c 0
 251 794 274 782 289 763 c 0
 290 762 291 761 291 760 c 2
 328 797 l 2
 334 803 342 807 350 809 c 0
 353 810 357 810 360 810 c 0x6c
 366 810 371 809 376 807 c 2
 488 765 l 1
 525 765 l 1
 525 675 l 1
 480 675 l 2
 475 675 469 676 464 678 c 2
 371 713 l 1
 324 665 l 1
 329 622 330 567 330 495 c 1
 465 495 l 1
 465 405 l 1
 330 405 l 1
 330 268 332 181 342 138 c 0
 349 108 354 105 365 99 c 0
 378 93 417 90 480 90 c 2
 525 90 l 1
 525 0 l 1
 480 0 l 1
 440 0 l 2
 396 0 360 2 326 18 c 0
 309 26 295 39 283 54 c 1
 242 13 l 2
 236 7 228 3 220 1 c 0
 217 0 213 0 210 0 c 0xb4
 204 0 199 1 194 3 c 2
 82 45 l 1
 45 45 l 1x64
EndSplineSet
Substitution2: "'ss01' Antiqua-Versalien-1" X.antiqua
EndChar

StartChar: Y
Encoding: 89 89 104
Width: 600
VWidth: 909
Flags: W
HStem: -180 21G<296.5 303.5> -90 90<75 109> 0 21G<296.5 303.5> 720 90<45 75 405 435>
VStem: 45 120<720 796.622> 75 90<163 720> 405 120<720 796.622> 435 90<-17 62 163 720>
LayerCount: 2
Fore
SplineSet
45 720 m 1xb8
 45 810 l 1
 120 810 l 2
 132 810 144 805 152 797 c 0
 160 789 165 777 165 765 c 2xb8
 165 163 l 1
 300 95 l 1
 435 163 l 1
 435 720 l 1xb5
 405 720 l 1
 405 810 l 1
 480 810 l 2
 492 810 504 805 512 797 c 0
 520 789 525 777 525 765 c 2xb2
 525 -45 l 2
 525 -53 522 -62 518 -69 c 0
 514 -76 507 -81 500 -85 c 2
 320 -175 l 2
 314 -178 307 -180 300 -180 c 0
 293 -180 286 -178 280 -175 c 2
 109 -90 l 1
 75 -90 l 1
 75 0 l 1xd5
 120 0 l 2
 127 0 134 -2 140 -5 c 2
 300 -85 l 1
 435 -17 l 1
 435 62 l 1
 320 5 l 2
 314 2 307 0 300 0 c 0
 293 0 286 2 280 5 c 2
 100 95 l 2
 93 99 86 104 82 111 c 0
 78 118 75 127 75 135 c 2
 75 720 l 1xb5
 45 720 l 1xb8
EndSplineSet
Substitution2: "'ss01' Antiqua-Versalien-1" Y.antiqua
EndChar

StartChar: Z
Encoding: 90 90 105
Width: 615
VWidth: 909
Flags: W
HStem: -180 90<209.652 359.947> 90 90<206.137 345> 405 90<225 329> 720 90<75 328.933 511 555>
VStem: 75 90<-47.5631 54.4481> 465 90<70.3145 334.867>
LayerCount: 2
Fore
SplineSet
75 -2 m 1
 75 5 l 2
 75 50 95 95 132 127 c 0
 171 161 228 180 299 180 c 2
 345 180 l 1
 345 90 l 1
 299 90 l 2
 244 90 211 76 191 59 c 0
 173 43 165 25 165 6 c 0
 165 -38 203 -90 300 -90 c 0
 335 -90 363 -73 391 -38 c 0
 419 -3 441 50 453 107 c 0
 460 142 465 177 465 212 c 0
 465 234 463 255 460 275 c 0
 452 326 433 366 411 386 c 0
 397 399 382 405 360 405 c 2
 225 405 l 1
 225 495 l 1
 329 495 l 1
 395 667 l 1
 296 717 290 720 170 720 c 2
 75 720 l 1
 75 810 l 1
 120 810 l 2
 286 810 317 806 427 752 c 1
 438 781 l 2
 441 789 447 797 454 802 c 0
 461 807 471 810 480 810 c 2
 555 810 l 1
 555 720 l 1
 511 720 l 1
 421 484 l 1
 440 477 457 466 471 453 c 0
 516 413 539 353 549 289 c 0
 553 264 555 238 555 212 c 0
 555 171 550 129 541 88 c 0
 527 21 501 -43 462 -93 c 0
 423 -143 367 -180 300 -180 c 0
 168 -180 79 -96 75 -2 c 1
EndSplineSet
Substitution2: "'ss01' Antiqua-Versalien-1" Z.antiqua
EndChar

StartChar: bracketleft
Encoding: 91 91 155
Width: 360
VWidth: 530
Flags: MW
HStem: -180 90<165 315> 720 90<165 315>
VStem: 75 90<-90 720>
LayerCount: 2
Fore
SplineSet
75 -135 m 2
 75 765 l 2
 75 777 80 789 88 797 c 0
 96 805 108 810 120 810 c 2
 315 810 l 1
 315 720 l 1
 165 720 l 1
 165 -90 l 1
 315 -90 l 1
 315 -180 l 1
 120 -180 l 2
 108 -180 96 -175 88 -167 c 0
 80 -159 75 -147 75 -135 c 2
EndSplineSet
EndChar

StartChar: backslash
Encoding: 92 92 173
Width: 570
VWidth: 1076
Flags: W
HStem: 0 90<493 525> 720 90<45 77>
DStem2: 145 785 77 720 0.447728 -0.89417<27.6755 777.257>
LayerCount: 2
Fore
SplineSet
45 720 m 1
 45 810 l 5
 105 810 l 2
 113 810 122 807 129 803 c 0
 136 799 141 792 145 785 c 2
 493 90 l 1
 525 90 l 1
 525 0 l 1
 465 0 l 2
 457 0 448 3 441 7 c 0
 434 11 429 18 425 25 c 2
 77 720 l 1
 45 720 l 1
EndSplineSet
EndChar

StartChar: asciicircum
Encoding: 94 94 167
Width: 390
VWidth: 545
Flags: MW
HStem: 585 90<30 60 330 360>
DStem2: 60 675 102 594 0.8 0.6<0 101.4> 222 756 195 664 0.8 -0.6<33.6 135>
LayerCount: 2
Fore
SplineSet
30 585 m 1
 30 675 l 1
 60 675 l 1
 168 756 l 2
 176 762 185 765 195 765 c 2
 197 765 l 2
 206 765 215 761 222 756 c 6
 330 675 l 5
 360 675 l 1
 360 585 l 1
 315 585 l 2
 305 585 296 588 288 594 c 6
 195 664 l 5
 102 594 l 2
 94 588 85 585 75 585 c 2
 30 585 l 1
EndSplineSet
EndChar

StartChar: underscore
Encoding: 95 95 175
Width: 510
VWidth: 941
Flags: W
HStem: 0 90<45 465>
LayerCount: 2
Fore
SplineSet
45 0 m 5
 45 90 l 1
 465 90 l 1
 465 0 l 1
 45 0 l 5
EndSplineSet
EndChar

StartChar: grave
Encoding: 96 96 164
Width: 270
VWidth: 530
Flags: MW
HStem: 585 90<210 240> 585 180 675 90<30 60>
VStem: 30 210
DStem2: 102 756 60 675 0.8 -0.6<15 135>
LayerCount: 2
Fore
SplineSet
30 675 m 1
 30 765 l 1
 75 765 l 2
 85 765 94 762 102 756 c 2
 210 675 l 1
 240 675 l 1
 240 585 l 1
 195 585 l 2
 185 585 176 588 168 594 c 2
 60 675 l 1
 30 675 l 1
EndSplineSet
EndChar

StartChar: b
Encoding: 98 98 2
Width: 465
VWidth: 1076
Flags: W
HStem: 0 21G<45 126 235 245> 520 20G<235 245> 790 20G<114 195>
VStem: 75 120<720 796.622> 75 90<158 382 495 720> 315 90<158 382>
LayerCount: 2
Fore
SplineSet
45 0 m 1xec
 45 90 l 1
 75 90 l 1xec
 75 765 l 2
 75 777 80 789 88 797 c 0
 96 805 108 810 120 810 c 2
 195 810 l 1
 195 720 l 1xf4
 165 720 l 1
 165 495 l 1
 213 531 l 2
 221 537 230 540 240 540 c 0
 250 540 259 537 267 531 c 2
 387 441 l 2
 398 433 405 419 405 405 c 2
 405 135 l 2
 405 121 398 107 387 99 c 2
 267 9 l 2
 259 3 250 0 240 0 c 0
 230 0 221 3 213 9 c 2
 165 45 l 1
 165 33 160 21 152 13 c 0
 144 5 132 0 120 0 c 2
 45 0 l 1xec
165 158 m 1
 240 101 l 1
 315 158 l 1
 315 382 l 1
 240 439 l 1
 165 382 l 1
 165 158 l 1
EndSplineSet
EndChar

StartChar: c
Encoding: 99 99 3
Width: 450
VWidth: 1076
Flags: W
HStem: 0 21G<220 230> 405 90<353 390> 520 20G<218.5 227.5>
VStem: 60 90<158 382>
LayerCount: 2
Fore
SplineSet
60 135 m 2
 60 405 l 2
 60 419 67 433 78 441 c 2
 198 531 l 2
 205 536 214 540 223 540 c 2
 225 540 l 2
 230 540 236 539 241 537 c 2
 353 495 l 1
 390 495 l 1
 390 405 l 1
 345 405 l 2
 340 405 334 406 329 408 c 2
 232 444 l 1
 150 382 l 1
 150 158 l 1
 225 101 l 1
 300 158 l 1
 300 180 l 1
 390 180 l 1
 390 135 l 2
 390 121 383 107 372 99 c 2
 252 9 l 2
 244 3 235 0 225 0 c 0
 215 0 206 3 198 9 c 2
 78 99 l 2
 67 107 60 121 60 135 c 2
EndSplineSet
EndChar

StartChar: d
Encoding: 100 100 4
Width: 465
VWidth: 1076
Flags: W
HStem: 0 21G<235 245> 720 90<264 315>
VStem: 75 90<158 382> 315 90<158 382>
LayerCount: 2
Fore
SplineSet
75 135 m 2
 75 405 l 2
 75 419 82 433 93 441 c 2
 165 495 l 1
 93 549 l 2
 84 556 78 566 76 577 c 0
 76 579 75 583 75 585 c 0
 75 594 78 603 83 610 c 2
 203 790 l 2
 211 802 225 810 240 810 c 2
 315 810 l 1
 315 720 l 1
 264 720 l 1
 181 595 l 1
 387 441 l 2
 398 433 405 419 405 405 c 2
 405 135 l 2
 405 121 398 107 387 99 c 2
 267 9 l 2
 259 3 250 0 240 0 c 0
 230 0 221 3 213 9 c 2
 93 99 l 2
 82 107 75 121 75 135 c 2
165 158 m 1
 240 101 l 1
 315 158 l 1
 315 382 l 1
 240 439 l 1
 165 382 l 1
 165 158 l 1
EndSplineSet
EndChar

StartChar: e
Encoding: 101 101 5
Width: 450
VWidth: 1076
Flags: MW
VStem: 60 90<158 202 315 382> 300 90<158 180>
DStem2: 78 441 150 382 0.8 0.6<22.2 116.4> 150 158 78 99 0.8 -0.6<0 94.2> 150 315 150 202 0.799135 0.601151<0 150> 225 101 252 9 0.8 0.6<0 94.2>
LayerCount: 2
Fore
SplineSet
60 135 m 2
 60 405 l 2
 60 419 67 433 78 441 c 2
 198 531 l 2
 206 537 215 540 225 540 c 2
 227 540 l 2
 236 540 245 536 252 531 c 2
 372 441 l 2
 383 433 390 419 390 405 c 0
 390 391 383 377 372 369 c 2
 150 202 l 1
 150 158 l 1
 225 101 l 1
 300 158 l 1
 300 180 l 1
 390 180 l 1
 390 135 l 2
 390 121 383 107 372 99 c 2
 252 9 l 2
 244 3 235 0 225 0 c 0
 215 0 206 3 198 9 c 2
 78 99 l 2
 67 107 60 121 60 135 c 2
150 315 m 1
 270 405 l 1
 225 439 l 1
 150 382 l 1
 150 315 l 1
EndSplineSet
EndChar

StartChar: f
Encoding: 102 102 6
Width: 300
VWidth: 1076
Flags: MW
HStem: -180 90<45 75> 405 90<45 75 165 285> 720 90<255 315>
VStem: 75 90<-90 405 495 652>
DStem2: 93 711 165 652 0.8 0.6<22.2 135>
LayerCount: 2
Fore
SplineSet
45 -90 m 1
 75 -90 l 1
 75 405 l 1
 45 405 l 1
 45 495 l 1
 75 495 l 1
 75 675 l 2
 75 689 82 703 93 711 c 2
 213 801 l 2
 221 807 230 810 240 810 c 2
 315 810 l 1
 315 720 l 1
 255 720 l 1
 165 652 l 1
 165 495 l 1
 285 495 l 1
 285 405 l 1
 165 405 l 1
 165 -135 l 2
 165 -147 160 -159 152 -167 c 0
 144 -175 132 -180 120 -180 c 2
 45 -180 l 1
 45 -90 l 1
EndSplineSet
EndChar

StartChar: g
Encoding: 103 103 7
Width: 480
VWidth: 1076
Flags: W
HStem: -180 21G<235 245> -20 20G<75 125> 0 21G<235 245> 495 25G<235 246.5 354.5 435>
VStem: 75 90<158 382> 315 90<-22 45 158 382>
LayerCount: 2
Fore
SplineSet
75 0 m 1xdc
 120 0 l 2xdc
 130 0 139 -3 147 -9 c 2
 240 -79 l 1
 315 -22 l 1
 315 45 l 1
 267 9 l 2
 259 3 250 0 240 0 c 0xbc
 230 0 221 3 213 9 c 2
 93 99 l 2
 82 107 75 121 75 135 c 2
 75 405 l 2
 75 419 82 433 93 441 c 2
 213 531 l 2
 221 537 230 540 240 540 c 6
 242 540 l 6
 251 540 260 536 267 531 c 2
 330 484 l 1
 338 491 349 495 360 495 c 2
 435 495 l 1
 435 405 l 1
 405 405 l 1
 405 255 405 105 405 -45 c 0
 405 -59 398 -73 387 -81 c 2
 267 -171 l 2
 259 -177 250 -180 240 -180 c 0
 230 -180 221 -177 213 -171 c 2
 105 -90 l 1
 75 -90 l 1
 75 0 l 1xdc
165 158 m 1
 240 101 l 1
 315 158 l 1
 315 382 l 1
 240 439 l 1
 165 382 l 1
 165 158 l 1
EndSplineSet
EndChar

StartChar: h
Encoding: 104 104 8
Width: 465
VWidth: 1076
Flags: W
HStem: -180 21G<192 246.5> 0 21G<45 126> 520 20G<235 245> 790 20G<114 195>
VStem: 75 120<720 796.622> 75 90<90 382 495 720> 315 90<31 382>
LayerCount: 2
Fore
SplineSet
45 0 m 1xf6
 45 90 l 1
 75 90 l 1xf6
 75 765 l 2
 75 777 80 789 88 797 c 0
 96 805 108 810 120 810 c 2
 195 810 l 1
 195 720 l 1xfa
 165 720 l 1
 165 495 l 1
 213 531 l 2
 221 537 230 540 240 540 c 0
 250 540 259 537 267 531 c 2
 387 441 l 2
 398 433 405 419 405 405 c 2
 405 15 l 2
 405 5 401 -5 395 -13 c 2
 275 -163 l 2
 267 -173 253 -180 240 -180 c 2
 192 -180 l 1
 192 -90 l 1
 218 -90 l 1
 315 31 l 1
 315 382 l 1
 240 439 l 1
 165 382 l 1
 165 45 l 2
 165 33 160 21 152 13 c 0
 144 5 132 0 120 0 c 2
 45 0 l 1xf6
EndSplineSet
EndChar

StartChar: i
Encoding: 105 105 9
Width: 240
VWidth: 1076
Flags: MW
HStem: 0 90<165 195> 405 90<45 75>
VStem: 75 90<90 405 570 690>
LayerCount: 2
Fore
SplineSet
45 405 m 1
 45 495 l 1
 120 495 l 2
 132 495 144 490 152 482 c 0
 160 474 165 462 165 450 c 2
 165 90 l 1
 195 90 l 1
 195 0 l 1
 120 0 l 2
 108 0 96 5 88 13 c 0
 80 21 75 33 75 45 c 2
 75 405 l 1
 45 405 l 1
75 570 m 1
 75 690 l 1
 165 690 l 1
 165 570 l 1
 75 570 l 1
EndSplineSet
EndChar

StartChar: j
Encoding: 106 106 10
Width: 240
VWidth: 1076
Flags: MW
HStem: -180 90<-15 75> 405 90<45 75>
VStem: 75 90<-90 405 570 690>
LayerCount: 2
Fore
SplineSet
-15 -90 m 1
 75 -90 l 1
 75 405 l 1
 45 405 l 1
 45 495 l 1
 120 495 l 2
 132 495 144 490 152 482 c 0
 160 474 165 462 165 450 c 2
 165 -135 l 2
 165 -147 160 -159 152 -167 c 0
 144 -175 132 -180 120 -180 c 2
 -15 -180 l 1
 -15 -90 l 1
75 570 m 1
 75 690 l 1
 165 690 l 1
 165 570 l 1
 75 570 l 1
EndSplineSet
EndChar

StartChar: k
Encoding: 107 107 11
Width: 450
VWidth: 1076
Flags: MW
HStem: 0 90<255 285> 405 90<45 75 255 405> 720 90<45 75>
VStem: 75 90<158 405 540 608>
DStem2: 165 158 93 99 0.8 -0.6<0 112.8> 165 540 255 495 0.8 0.6<45 150>
LayerCount: 2
Fore
SplineSet
45 405 m 1
 45 495 l 1
 75 495 l 1
 75 720 l 1
 45 720 l 1
 45 810 l 1
 120 810 l 2
 132 810 144 805 152 797 c 0
 160 789 165 777 165 765 c 2
 165 720 l 1
 213 756 l 2
 221 762 230 765 240 765 c 0
 250 765 259 762 267 756 c 2
 387 666 l 2
 398 658 405 644 405 630 c 0
 405 616 398 602 387 594 c 2
 255 495 l 1
 405 495 l 1
 405 405 l 1
 165 405 l 1
 165 158 l 5
 255 90 l 5
 285 90 l 1
 285 0 l 1
 240 0 l 2
 230 0 221 3 213 9 c 6
 93 99 l 6
 82 107 75 121 75 135 c 2
 75 405 l 1
 45 405 l 1
165 540 m 1
 285 630 l 1
 240 664 l 1
 165 608 l 1
 165 540 l 1
EndSplineSet
EndChar

StartChar: l
Encoding: 108 108 12
Width: 240
VWidth: 1076
Flags: MW
HStem: 0 90<45 75> 720 90<165 195>
VStem: 75 90<90 720>
LayerCount: 2
Fore
SplineSet
45 0 m 1
 45 90 l 1
 75 90 l 1
 75 765 l 2
 75 777 80 789 88 797 c 0
 96 805 108 810 120 810 c 2
 195 810 l 1
 195 720 l 1
 165 720 l 1
 165 45 l 2
 165 33 160 21 152 13 c 0
 144 5 132 0 120 0 c 2
 45 0 l 1
EndSplineSet
EndChar

StartChar: m
Encoding: 109 109 13
Width: 720
VWidth: 1076
Flags: MW
HStem: 0 90<165 195 405 435 645 675> 405 90<45 75>
VStem: 75 90<90 382> 315 90<90 382> 555 90<90 382>
DStem2: 267 531 240 439 0.798968 -0.601374<33.7542 116.4> 360 461 405 382 0.798968 0.601374<0 82.6459> 507 531 480 439 0.8 -0.6<33.6 127.8>
CounterMasks: 1 38
LayerCount: 2
Fore
SplineSet
45 405 m 1
 45 495 l 1
 120 495 l 2
 131 495 142 491 150 484 c 5
 213 531 l 6
 221 537 230 540 240 540 c 2
 242 540 l 2
 251 540 260 536 267 531 c 2
 360 461 l 1
 453 531 l 2
 461 537 470 540 480 540 c 0
 490 540 499 537 507 531 c 2
 627 441 l 2
 638 433 645 419 645 405 c 2
 645 90 l 1
 675 90 l 1
 675 0 l 1
 600 0 l 2
 588 0 576 5 568 13 c 0
 560 21 555 33 555 45 c 2
 555 382 l 1
 480 439 l 1
 405 382 l 1
 405 90 l 1
 435 90 l 1
 435 0 l 1
 360 0 l 2
 348 0 336 5 328 13 c 0
 320 21 315 33 315 45 c 2
 315 382 l 1
 240 439 l 5
 165 382 l 5
 165 90 l 1
 195 90 l 1
 195 0 l 1
 120 0 l 2
 108 0 96 5 88 13 c 0
 80 21 75 33 75 45 c 2
 75 405 l 1
 45 405 l 1
EndSplineSet
EndChar

StartChar: n
Encoding: 110 110 14
Width: 480
VWidth: 1076
Flags: W
HStem: 0 90<165 195 405 435> 475 20G<45 125.5 235 246.5>
VStem: 75 90<90 382> 315 90<90 382>
LayerCount: 2
Fore
SplineSet
45 405 m 1
 45 495 l 1
 120 495 l 2
 131 495 142 491 150 484 c 1
 213 531 l 2
 221 537 230 540 240 540 c 2
 242 540 l 2
 251 540 260 536 267 531 c 2
 387 441 l 2
 398 433 405 419 405 405 c 2
 405 90 l 1
 435 90 l 1
 435 0 l 1
 360 0 l 2
 348 0 336 5 328 13 c 0
 320 21 315 33 315 45 c 2
 315 382 l 1
 240 439 l 1
 165 382 l 1
 165 90 l 1
 195 90 l 1
 195 0 l 1
 120 0 l 2
 108 0 96 5 88 13 c 0
 80 21 75 33 75 45 c 2
 75 405 l 1
 45 405 l 1
EndSplineSet
EndChar

StartChar: o
Encoding: 111 111 15
Width: 450
VWidth: 1076
Flags: MW
VStem: 60 90<158 382> 300 90<158 382>
DStem2: 78 441 150 382 0.8 0.6<22.2 116.4> 150 158 78 99 0.8 -0.6<0 94.2> 252 531 225 439 0.8 -0.6<33.6 127.8> 225 101 252 9 0.8 0.6<0 94.2>
LayerCount: 2
Fore
SplineSet
60 135 m 2
 60 405 l 2
 60 419 67 433 78 441 c 2
 198 531 l 2
 206 537 215 540 225 540 c 2
 227 540 l 2
 236 540 245 536 252 531 c 2
 372 441 l 2
 383 433 390 419 390 405 c 2
 390 135 l 2
 390 121 383 107 372 99 c 6
 252 9 l 6
 244 3 235 0 225 0 c 0
 215 0 206 3 198 9 c 2
 78 99 l 2
 67 107 60 121 60 135 c 2
150 158 m 1
 225 101 l 5
 300 158 l 5
 300 382 l 1
 225 439 l 1
 150 382 l 1
 150 158 l 1
EndSplineSet
EndChar

StartChar: p
Encoding: 112 112 16
Width: 465
VWidth: 1076
Flags: W
HStem: -180 21G<45 126> 0 21G<235 245> 475 20G<45 125.5 235 246.5>
VStem: 75 90<-90 45 158 382> 315 90<158 382>
LayerCount: 2
Fore
SplineSet
45 -90 m 1
 75 -90 l 1
 75 405 l 1
 45 405 l 1
 45 495 l 1
 120 495 l 2
 131 495 142 491 150 484 c 1
 213 531 l 2
 221 537 230 540 240 540 c 2
 242 540 l 2
 251 540 260 536 267 531 c 2
 387 441 l 2
 398 433 405 419 405 405 c 2
 405 135 l 2
 405 121 398 107 387 99 c 2
 267 9 l 2
 259 3 250 0 240 0 c 0
 230 0 221 3 213 9 c 2
 165 45 l 1
 165 -135 l 2
 165 -147 160 -159 152 -167 c 0
 144 -175 132 -180 120 -180 c 2
 45 -180 l 1
 45 -90 l 1
165 158 m 1
 240 101 l 1
 315 158 l 1
 315 382 l 1
 240 439 l 1
 165 382 l 1
 165 158 l 1
EndSplineSet
EndChar

StartChar: q
Encoding: 113 113 17
Width: 465
VWidth: 1076
Flags: W
HStem: -180 21G<339 420> 0 21G<220 230> 495 25G<220 231.5 339.5 420>
VStem: 60 90<158 382> 300 90<-90 45 158 382>
LayerCount: 2
Fore
SplineSet
60 135 m 2
 60 405 l 2
 60 419 67 433 78 441 c 2
 198 531 l 2
 206 537 215 540 225 540 c 2
 227 540 l 2
 236 540 245 536 252 531 c 2
 315 484 l 1
 323 491 334 495 345 495 c 2
 420 495 l 1
 420 405 l 1
 390 405 l 1
 390 404 l 1
 390 -90 l 1
 420 -90 l 1
 420 -180 l 1
 345 -180 l 2
 333 -180 321 -175 313 -167 c 0
 305 -159 300 -147 300 -135 c 2
 300 45 l 1
 252 9 l 2
 244 3 235 0 225 0 c 0
 215 0 206 3 198 9 c 2
 78 99 l 2
 67 107 60 121 60 135 c 2
150 158 m 1
 225 101 l 1
 300 158 l 1
 300 382 l 1
 225 439 l 1
 150 382 l 1
 150 158 l 1
EndSplineSet
EndChar

StartChar: r
Encoding: 114 114 18
Width: 420
VWidth: 1076
Flags: MW
HStem: 0 90<45 75 242 270> 405 90<45 75 339 375>
VStem: 75 90<156 384>
LayerCount: 2
Fore
SplineSet
45 0 m 1
 45 90 l 1
 75 90 l 1
 75 405 l 1
 45 405 l 1
 45 495 l 1
 120 495 l 2
 129 495 138 492 146 487 c 1
 196 529 l 2
 204 536 214 540 225 540 c 0
 231 540 237 538 243 536 c 2
 339 495 l 1
 375 495 l 1
 375 405 l 1
 330 405 l 2
 324 405 318 407 312 409 c 2
 233 443 l 1
 165 384 l 1
 165 156 l 1
 242 90 l 1
 270 90 l 1
 270 0 l 1
 225 0 l 2
 214 0 204 4 196 11 c 2
 164 38 l 1
 162 28 157 18 149 11 c 0
 141 4 131 0 120 0 c 2
 45 0 l 1
EndSplineSet
EndChar

StartChar: s
Encoding: 115 115 21
Width: 450
VWidth: 1076
Flags: MW
HStem: 45 90<60 97> 405 90<353 390>
VStem: 60 90<306 382> 300 90<158 234>
DStem2: 78 441 150 382 0.8 0.6<22.2 125> 121 132 97 45 0.936329 -0.351123<8.07584 103.464> 150 306 111 210 0.992034 0.125973<0 139.735> 218 96 252 9 0.8 0.6<0 102.8> 241 537 232 444 0.936329 -0.351123<24.2275 119.616>
LayerCount: 2
Fore
SplineSet
60 45 m 1
 60 135 l 1
 105 135 l 2
 110 135 116 134 121 132 c 2
 218 96 l 1
 300 158 l 1
 300 234 l 1
 111 210 l 2
 109 210 107 210 105 210 c 0
 94 210 83 214 75 221 c 0
 65 229 60 242 60 255 c 2
 60 405 l 2
 60 419 67 433 78 441 c 2
 198 531 l 2
 205 536 214 540 223 540 c 2
 225 540 l 2
 230 540 236 539 241 537 c 2
 353 495 l 1
 390 495 l 1
 390 405 l 1
 345 405 l 2
 340 405 334 406 329 408 c 2
 232 444 l 1
 150 382 l 1
 150 306 l 1
 339 330 l 2
 341 330 343 330 345 330 c 0
 356 330 367 326 375 319 c 0
 385 311 390 298 390 285 c 2
 390 135 l 2
 390 121 383 107 372 99 c 2
 252 9 l 2
 246 4 238 1 231 0 c 0
 229 0 227 0 225 0 c 0
 220 0 214 1 209 3 c 2
 97 45 l 1
 60 45 l 1
EndSplineSet
EndChar

StartChar: t
Encoding: 116 116 22
Width: 330
VWidth: 1076
Flags: W
HStem: 0 21G<235 285> 405 90<45 75 165 285> 700 20G<114 195>
VStem: 75 120<630 706.622> 75 90<158 405 495 630>
LayerCount: 2
Fore
SplineSet
45 405 m 1xe8
 45 495 l 1
 75 495 l 1xe8
 75 675 l 2
 75 687 80 699 88 707 c 0
 96 715 108 720 120 720 c 2
 195 720 l 1
 195 630 l 1xf0
 165 630 l 1
 165 495 l 1
 285 495 l 1
 285 405 l 1
 165 405 l 1
 165 158 l 1
 255 90 l 1
 285 90 l 1
 285 0 l 1
 240 0 l 2
 230 0 221 3 213 9 c 2
 93 99 l 2
 82 107 75 121 75 135 c 2
 75 405 l 1
 45 405 l 1xe8
EndSplineSet
EndChar

StartChar: u
Encoding: 117 117 23
Width: 480
VWidth: 1076
Flags: MW
HStem: 0 90<405 435> 405 90<45 75 285 315>
VStem: 75 90<158 405> 315 90<158 405>
DStem2: 165 158 93 99 0.8 -0.6<0 94.2>
LayerCount: 2
Fore
SplineSet
45 405 m 1
 45 495 l 1
 120 495 l 2
 132 495 144 490 152 482 c 0
 160 474 165 462 165 450 c 2
 165 158 l 1
 240 101 l 5
 315 158 l 5
 315 405 l 1
 285 405 l 1
 285 495 l 1
 360 495 l 2
 372 495 384 490 392 482 c 0
 400 474 405 462 405 450 c 2
 405 90 l 1
 435 90 l 1
 435 0 l 1
 360 0 l 2
 348 0 336 5 328 13 c 0
 320 21 315 33 315 45 c 5
 267 9 l 6
 259 3 250 0 240 0 c 0
 230 0 221 3 213 9 c 2
 93 99 l 2
 82 107 75 121 75 135 c 2
 75 405 l 1
 45 405 l 1
EndSplineSet
EndChar

StartChar: v
Encoding: 118 118 24
Width: 465
VWidth: 1076
Flags: W
HStem: 0 21G<235 245> 405 90<45 75 285 315>
VStem: 45 120<405 481.622> 75 90<158 405> 285 120<405 481.622> 315 90<158 405>
LayerCount: 2
Fore
SplineSet
45 405 m 1xe0
 45 495 l 1
 120 495 l 2
 132 495 144 490 152 482 c 0
 160 474 165 462 165 450 c 2xe0
 165 158 l 1
 240 101 l 1
 315 158 l 1
 315 405 l 1xd4
 285 405 l 1
 285 495 l 1
 360 495 l 2
 372 495 384 490 392 482 c 0
 400 474 405 462 405 450 c 2xc8
 405 135 l 2
 405 121 398 107 387 99 c 2
 267 9 l 2
 259 3 250 0 240 0 c 0
 230 0 221 3 213 9 c 2
 93 99 l 2
 82 107 75 121 75 135 c 2
 75 405 l 1xd4
 45 405 l 1xe0
EndSplineSet
EndChar

StartChar: w
Encoding: 119 119 25
Width: 705
VWidth: 1076
Flags: W
HStem: 0 21G<235 245 475 485> 405 90<45 75 285 315 525 555>
VStem: 45 120<405 481.622> 75 90<158 405> 285 120<405 481.622> 315 90<158 405> 525 120<405 481.622> 555 90<158 405>
LayerCount: 2
Fore
SplineSet
45 405 m 1xe0
 45 495 l 1
 120 495 l 2
 132 495 144 490 152 482 c 0
 160 474 165 462 165 450 c 2xe0
 165 158 l 1
 240 101 l 1
 315 158 l 1
 315 405 l 1xd4
 285 405 l 1
 285 495 l 1
 360 495 l 2
 372 495 384 490 392 482 c 0
 400 474 405 462 405 450 c 2xc8
 405 158 l 1
 480 101 l 1
 555 158 l 1
 555 405 l 1xc5
 525 405 l 1
 525 495 l 1
 600 495 l 2
 612 495 624 490 632 482 c 0
 640 474 645 462 645 450 c 2xc2
 645 135 l 2
 645 121 638 107 627 99 c 2
 507 9 l 2
 499 3 490 0 480 0 c 0
 470 0 461 3 453 9 c 2
 360 79 l 1
 267 9 l 2
 259 3 250 0 240 0 c 0
 230 0 221 3 213 9 c 2
 93 99 l 2
 82 107 75 121 75 135 c 2
 75 405 l 1xd1
 45 405 l 1xe0
EndSplineSet
EndChar

StartChar: x
Encoding: 120 120 26
Width: 480
VWidth: 1076
Flags: W
HStem: 0 90<45 105 375 435> 202 90<75 195 285 405> 405 90<45 105 375 435>
VStem: 195 90<158 202 292 338>
LayerCount: 2
Fore
SplineSet
45 0 m 1
 45 90 l 1
 105 90 l 1
 195 158 l 1
 195 202 l 1
 75 202 l 1
 75 292 l 1
 195 292 l 1
 195 338 l 1
 105 405 l 1
 45 405 l 1
 45 495 l 1
 120 495 l 2
 130 495 139 492 147 486 c 2
 240 416 l 1
 333 486 l 2
 341 492 350 495 360 495 c 2
 435 495 l 1
 435 405 l 1
 375 405 l 1
 285 338 l 1
 285 292 l 1
 405 292 l 1
 405 202 l 1
 285 202 l 1
 285 158 l 1
 375 90 l 1
 435 90 l 1
 435 0 l 1
 360 0 l 2
 350 0 341 3 333 9 c 2
 240 79 l 1
 147 9 l 2
 139 3 130 0 120 0 c 2
 45 0 l 1
EndSplineSet
EndChar

StartChar: y
Encoding: 121 121 27
Width: 480
VWidth: 1076
Flags: HMW
HStem: -90 90<75 105> 405 90<45 75 285 315>
VStem: 75 90<158 405> 315 90<-22 45 158 405>
DStem2: 165 158 93 99 0.8 -0.6<0 94.2> 147 -9 105 -90 0.8 -0.6<15 116.4> 240 -79 267 -171 0.8 0.6<0 94.2>
LayerCount: 2
Fore
SplineSet
45 405 m 1
 45 495 l 1
 120 495 l 2
 132 495 144 490 152 482 c 0
 160 474 165 462 165 450 c 2
 165 158 l 1
 240 101 l 5
 315 158 l 5
 315 405 l 1
 285 405 l 1
 285 495 l 1
 360 495 l 2
 372 495 384 490 392 482 c 0
 400 474 405 462 405 450 c 2
 405 -45 l 2
 405 -59 398 -73 387 -81 c 2
 267 -171 l 2
 259 -177 250 -180 240 -180 c 0
 230 -180 221 -177 213 -171 c 2
 105 -90 l 1
 75 -90 l 1
 75 0 l 1
 120 0 l 2
 130 0 139 -3 147 -9 c 2
 240 -79 l 1
 315 -22 l 1
 315 45 l 5
 267 9 l 6
 259 3 250 0 240 0 c 0
 230 0 221 3 213 9 c 1
 93 99 l 1
 82 107 75 121 75 135 c 2
 75 405 l 1
 45 405 l 1
EndSplineSet
EndChar

StartChar: z
Encoding: 122 122 28
Width: 360
VWidth: 1076
Flags: W
HStem: -180 21G<141.5 155> 405 90<45 135>
VStem: 225 90<-22 112>
LayerCount: 2
Fore
SplineSet
45 -30 m 1
 90 -30 l 2
 102 -30 114 -35 122 -43 c 2
 154 -76 l 1
 225 -22 l 1
 225 112 l 1
 123 189 l 2
 112 197 105 210 105 225 c 0
 105 236 109 247 116 255 c 2
 204 353 l 1
 135 405 l 1
 45 405 l 1
 45 495 l 1
 150 495 l 2
 160 495 169 492 177 486 c 2
 297 396 l 2
 308 388 315 375 315 360 c 0
 315 349 311 338 304 330 c 2
 216 232 l 1
 297 171 l 2
 308 163 315 149 315 135 c 2
 315 -45 l 2
 315 -59 308 -73 297 -81 c 2
 177 -171 l 2
 169 -177 160 -180 150 -180 c 0
 149 -180 148 -180 147 -180 c 0
 136 -179 126 -175 118 -167 c 2
 71 -120 l 1
 45 -120 l 1
 45 -30 l 1
EndSplineSet
EndChar

StartChar: braceleft
Encoding: 123 123 156
Width: 420
VWidth: 530
Flags: W
HStem: -180 90<324 375> 270 90<45 96> 720 90<324 375>
VStem: 165 90<14 166 464 616>
CounterMasks: 1 e0
LayerCount: 2
Fore
SplineSet
45 270 m 1
 45 360 l 1
 96 360 l 1
 165 464 l 1
 165 630 l 2
 165 639 168 648 173 655 c 2
 263 790 l 2
 271 802 285 810 300 810 c 2
 375 810 l 5
 375 720 l 1
 324 720 l 1
 255 616 l 1
 255 450 l 2
 255 441 252 432 247 425 c 2
 174 315 l 1
 247 205 l 2
 252 198 255 189 255 180 c 2
 255 14 l 1
 324 -90 l 1
 375 -90 l 1
 375 -180 l 1
 300 -180 l 2
 285 -180 271 -172 263 -160 c 2
 173 -25 l 2
 168 -18 165 -9 165 0 c 2
 165 166 l 1
 96 270 l 1
 45 270 l 1
EndSplineSet
EndChar

StartChar: bar
Encoding: 124 124 158
Width: 240
VWidth: 530
Flags: W
HStem: -180 21G<45 126> 790 20G<114 195>
VStem: 75 120<720 796.622>
LayerCount: 2
Fore
SplineSet
45 -90 m 1
 75 -90 l 1
 75 765 l 2
 75 777 80 789 88 797 c 0
 96 805 108 810 120 810 c 2
 195 810 l 1
 195 720 l 1
 165 720 l 1
 165 -135 l 2
 165 -147 160 -159 152 -167 c 0
 144 -175 132 -180 120 -180 c 2
 45 -180 l 1
 45 -90 l 1
EndSplineSet
EndChar

StartChar: asciitilde
Encoding: 126 126 159
Width: 420
VWidth: 545
Flags: W
HStem: 630 90<30 75 345 390>
LayerCount: 2
Fore
SplineSet
30 630 m 1
 30 720 l 1
 75 720 l 1
 123 756 l 2
 131 762 140 765 150 765 c 2
 152 765 l 2
 161 765 170 761 177 756 c 2
 270 686 l 1
 303 711 l 2
 311 717 320 720 330 720 c 2
 390 720 l 1
 390 630 l 1
 345 630 l 1
 297 594 l 2
 289 588 280 585 270 585 c 0
 260 585 251 588 243 594 c 2
 150 664 l 1
 117 639 l 2
 109 633 100 630 90 630 c 2
 30 630 l 1
EndSplineSet
EndChar

StartChar: cent
Encoding: 162 162 77
Width: 465
VWidth: 531
Flags: W
HStem: 405 90<368 405>
VStem: 75 90<158 382> 195 90<-45 22 526 585>
LayerCount: 2
Fore
SplineSet
75 135 m 2
 75 405 l 2
 75 419 82 433 93 441 c 2
 195 518 l 1
 195 585 l 1
 285 585 l 1
 285 526 l 1
 368 495 l 1
 405 495 l 1
 405 405 l 1
 360 405 l 2
 355 405 349 406 344 408 c 2
 247 444 l 1
 165 382 l 1
 165 158 l 1
 240 101 l 1
 315 158 l 1
 315 180 l 1
 405 180 l 1
 405 135 l 2
 405 121 398 107 387 99 c 2
 285 22 l 1
 285 -45 l 1
 195 -45 l 1
 195 22 l 1
 93 99 l 2
 82 107 75 121 75 135 c 2
EndSplineSet
EndChar

StartChar: sterling
Encoding: 163 163 220
Width: 600
VWidth: 0
Flags: W
HStem: 0 90<45 96 271.205 525> 300 90<45 131 242 325> 450 90<255 393.689> 720 90<189.029 394.934>
VStem: 73 92<521.37 696.568> 156 90<148.548 300> 435 90<575.948 685.054>
DStem2: 182 538 95 514 0.276483 -0.961019<-103.422 128.13>
LayerCount: 2
Fore
SplineSet
45 0 m 1xf6
 45 90 l 1
 90 90 l 1
 96 90 l 1
 128 137 l 2
 148 167 156 202 156 242 c 0xf6
 156 260 154 280 151 300 c 1
 45 300 l 1
 45 390 l 1
 131 390 l 1
 120 431 106 473 95 514 c 0
 84 556 73 599 73 639 c 0
 73 665 78 689 89 714 c 0
 103 745 130 772 166 788 c 0
 202 804 245 810 300 810 c 0
 358 810 411 798 454 768 c 0
 497 738 525 688 525 630 c 0
 525 572 496 522 453 492 c 0
 410 462 357 450 300 450 c 2
 255 450 l 1
 255 540 l 1
 300 540 l 2
 343 540 380 550 402 566 c 0
 424 582 435 599 435 630 c 0
 435 662 425 679 403 694 c 0
 381 709 344 720 300 720 c 0
 253 720 221 713 202 705 c 0
 183 697 176 689 171 677 c 0
 167 669 165 657 165 642 c 0xfa
 165 615 171 579 182 538 c 0
 194 493 211 442 224 390 c 1
 325 390 l 1
 325 300 l 1
 242 300 l 1
 244 281 246 261 246 242 c 0
 246 205 240 167 226 132 c 1
 306 92 318 90 424 90 c 2
 480 90 l 1
 525 90 l 1
 525 0 l 1
 480 0 l 2
 318 0 285 5 181 55 c 1
 157 20 l 2
 156 19 156 18 155 17 c 0
 154 16 153 15 152 14 c 0
 150 12 147 10 145 8 c 0
 144 7 143 7 142 6 c 0
 135 2 128 0 120 0 c 2
 45 0 l 1xf6
EndSplineSet
EndChar

StartChar: yen
Encoding: 165 165 117
Width: 600
VWidth: 2167
Flags: MW
HStem: 0 90<225 255> 300 90<135 255 345 465> 455 90<134 194 406 464> 720 90<45 94 506 555>
VStem: 255 90<90 300 390 438>
DStem2: 159 787 94 720 0.495807 -0.868433<25.9575 227.514> 302 545 406 545 0.495807 0.868433<51.564 253.12>
LayerCount: 2
Fore
SplineSet
45 720 m 1
 45 810 l 1
 120 810 l 2
 128 810 136 808 143 804 c 0
 150 800 155 794 159 787 c 2
 298 545 l 1
 302 545 l 1
 441 787 l 2
 445 794 450 800 457 804 c 0
 464 808 472 810 480 810 c 2
 555 810 l 1
 555 720 l 1
 506 720 l 1
 406 545 l 1
 464 545 l 1
 464 455 l 1
 355 455 l 1
 345 438 l 1
 345 390 l 1
 465 390 l 1
 465 300 l 1
 345 300 l 1
 345 45 l 2
 345 33 340 21 332 13 c 0
 324 5 312 0 300 0 c 2
 225 0 l 1
 225 90 l 1
 255 90 l 1
 255 300 l 1
 135 300 l 1
 135 390 l 1
 255 390 l 1
 255 438 l 1
 245 455 l 1
 134 455 l 1
 134 545 l 1
 194 545 l 1
 94 720 l 1
 45 720 l 1
EndSplineSet
EndChar

StartChar: section
Encoding: 167 167 142
Width: 480
VWidth: 1076
Flags: MW
HStem: -90 90<75 105> 630 90<375 405>
VStem: 75 90<262 368 592 652> 315 90<-22 38 262 368>
DStem2: 93 711 165 652 0.8 0.6<22.2 116.4> 165 592 93 534 0.800865 -0.598845<0 67.0706 160.671 254.271> 93 426 165 368 0.80128 0.598289<22.9914 89.9998> 165 262 93 204 0.800865 -0.598845<0 93.6002 187.2 254.271> 147 -9 105 -90 0.8 -0.6<15 116.4> 267 801 240 709 0.8 -0.6<33.6 135> 240 206 315 150 0.80128 0.598289<26.5918 93.6002> 240 -79 267 -171 0.8 0.6<0 94.2>
LayerCount: 2
Fore
SplineSet
75 0 m 1
 120 0 l 2
 130 0 139 -3 147 -9 c 2
 240 -79 l 5
 315 -22 l 5
 315 38 l 1
 93 204 l 2
 82 212 75 226 75 240 c 2
 75 390 l 2
 75 404 82 418 93 426 c 2
 165 480 l 1
 93 534 l 2
 82 542 75 556 75 570 c 2
 75 675 l 2
 75 689 82 703 93 711 c 2
 213 801 l 2
 221 807 230 810 240 810 c 2
 242 810 l 2
 251 810 260 806 267 801 c 2
 375 720 l 1
 405 720 l 1
 405 630 l 1
 360 630 l 2
 350 630 341 633 333 639 c 2
 240 709 l 1
 165 652 l 1
 165 592 l 1
 387 426 l 2
 398 418 405 404 405 390 c 2
 405 240 l 2
 405 226 398 212 387 204 c 2
 315 150 l 1
 387 96 l 2
 398 88 405 74 405 60 c 2
 405 -45 l 2
 405 -59 398 -73 387 -81 c 6
 267 -171 l 6
 259 -177 250 -180 240 -180 c 0
 230 -180 221 -177 213 -171 c 2
 105 -90 l 1
 75 -90 l 1
 75 0 l 1
165 262 m 1
 240 206 l 1
 315 262 l 1
 315 368 l 1
 240 424 l 1
 165 368 l 1
 165 262 l 1
EndSplineSet
EndChar

StartChar: dieresis
Encoding: 168 168 187
Width: 390
VWidth: 530
Flags: W
HStem: 600 120<30 120 270 360>
VStem: 30 90<600 720> 270 90<600 720>
LayerCount: 2
Fore
SplineSet
30 600 m 5
 30 720 l 5
 120 720 l 5
 120 600 l 5
 30 600 l 5
270 600 m 5
 270 720 l 5
 360 720 l 5
 360 600 l 5
 270 600 l 5
EndSplineSet
EndChar

StartChar: copyright
Encoding: 169 169 120
Width: 889
VWidth: 568
Flags: MW
HStem: 40 86<340.858 549.024> 188 90<390.239 468.38> 210 90<513.62 582> 498 90<545 583> 532 90<394.33 437> 684 86<340.858 549.024>
VStem: 75 94<299.458 510.542> 285 90<289.344 518.513> 720 94<299.458 510.542>
LayerCount: 2
Fore
SplineSet
75 405 m 0x8780
 75 604 239 770 445 770 c 0
 651 770 814 604 814 405 c 0
 814 206 651 40 445 40 c 0
 239 40 75 206 75 405 c 0x8780
169 405 m 0
 169 248 295 126 445 126 c 0
 595 126 720 248 720 405 c 0
 720 562 595 684 445 684 c 0
 295 684 169 562 169 405 c 0
582.999 498 m 1
 583 588 l 1
 545 588 l 1
 460 620 l 2
 456 622 449 622 445 622 c 0xcf80
 401 622 352 613 322 574 c 0
 292 535 285 482 285 405 c 2
 285 388 l 2
 285 319 290 269 320 232 c 0
 350 195 398 188 445 188 c 0xc780
 448 188 453 188 456 189 c 2
 542 210 l 1xa780
 582 210 l 1
 582 300 l 1
 537 300 l 2
 534 300 529 300 526 299 c 2
 440 278 l 1xcf80
 406 278 395 282 390 289 c 0
 384 296 375 325 375 388 c 2
 375 405 l 2
 375 474 386 509 394 519 c 0
 401 529 410 531 437 532 c 1
 521 501 l 1
 525 499 532.005 498 537 498 c 2x9780
 582.999 498 l 1
EndSplineSet
EndChar

StartChar: ordfeminine
Encoding: 170 170 221
Width: 480
VWidth: 0
Flags: MW
HStem: 390 90<405 435> 690 90<405 435>
VStem: 75 90<547 653> 315 90<548 652>
DStem2: 93 711 165 653 0.797581 0.603212<22.4395 116.038> 165 547 93 489 0.797581 -0.603212<0 93.5984>
LayerCount: 2
Fore
SplineSet
75 525 m 2
 75 675 l 2
 75 689 82 703 93 711 c 2
 212 801 l 2
 220 807 230 810 240 810 c 2
 241 810 l 2
 250 810 259 806 266 801 c 2
 322 759 l 1
 326 765 331 771 338 775 c 0
 345 779 353 780 360 780 c 2
 435 780 l 1
 435 690 l 1
 405 690 l 1
 405 480 l 1
 435 480 l 1
 435 390 l 1
 360 390 l 2
 348 390 336 395 328 403 c 0
 320 411 315 423 315 435 c 1
 266 399 l 2
 258 393 249 390 239 390 c 0
 229 390 220 393 212 399 c 2
 93 489 l 2
 82 497 75 511 75 525 c 2
165 547 m 1
 240 491 l 1
 315 548 l 1
 315 652 l 1
 240 709 l 1
 165 653 l 1
 165 547 l 1
EndSplineSet
EndChar

StartChar: guillemotleft
Encoding: 171 171 222
Width: 460
VWidth: 0
Flags: W
HStem: 45 90<233 250 398 415> 405 90<233 250 398 415>
LayerCount: 2
Fore
SplineSet
70 270 m 0
 70 277 72 284 75 290 c 2
 165 470 l 2
 169 477 174 484 181 488 c 0
 188 492 197 495 205 495 c 2
 250 495 l 5
 250 405 l 1
 233 405 l 1
 165 270 l 1
 233 135 l 1
 250 135 l 1
 250 45 l 1
 205 45 l 2
 197 45 188 48 181 52 c 0
 174 56 169 63 165 70 c 2
 75 250 l 2
 72 256 70 263 70 270 c 0
235 270 m 0
 235 277 237 284 240 290 c 2
 330 470 l 2
 334 477 339 484 346 488 c 0
 353 492 362 495 370 495 c 2
 415 495 l 1
 415 405 l 1
 398 405 l 1
 330 270 l 1
 398 135 l 1
 415 135 l 1
 415 45 l 1
 370 45 l 2
 362 45 353 48 346 52 c 0
 339 56 334 63 330 70 c 2
 240 250 l 2
 237 256 235 263 235 270 c 0
EndSplineSet
EndChar

StartChar: registered
Encoding: 174 174 121
Width: 889
VWidth: 528
Flags: W
HStem: 40 86<340.858 549.024> 188 90<292 315 571 612> 684 86<340.858 549.024>
VStem: 75 94<299.458 510.542> 315 90<278 486> 720 94<299.458 510.542>
LayerCount: 2
Fore
SplineSet
75 405 m 0
 75 604 239 770 445 770 c 0
 651 770 814 604 814 405 c 0
 814 206 651 40 445 40 c 4
 239 40 75 206 75 405 c 0
169 405 m 0
 169 248 295 126 445 126 c 0
 595 126 720 248 720 405 c 0
 720 562 595 684 445 684 c 0
 295 684 169 562 169 405 c 0
292 188 m 1
 292 278 l 1
 315 278 l 1
 315 498 l 1
 292 498 l 1
 292 588 l 1
 360 588 l 2
 368 588 376 586 383 582 c 1
 425 614 l 2
 433 620 442 623 452 623 c 0
 453 623 453 622 454 622 c 0
 463 622 472 619 479 614 c 2
 571 544 l 2
 582 536 589 524 589 509 c 0
 589 498 585 487 578 479 c 2
 507 399 l 1
 571 278 l 1
 612 278 l 1
 612 188 l 1
 544 188 l 2
 536 188 528 190 521 194 c 0
 514 198 508 204 504 211 c 2
 412 384 l 2
 408 392 406 401 407 410 c 0
 408 419 412 428 418 435 c 2
 478 502 l 1
 452 521 l 1
 405 486 l 1
 405 232 l 2
 405 220 400 209 392 201 c 0
 384 193 372 188 360 188 c 2
 292 188 l 1
EndSplineSet
EndChar

StartChar: macron
Encoding: 175 175 223
Width: 390
VWidth: 545
Flags: W
HStem: 585 90<30 360>
LayerCount: 2
Fore
SplineSet
30 585 m 1
 30 675 l 1
 360 675 l 1
 360 585 l 1
 30 585 l 1
EndSplineSet
EndChar

StartChar: degree
Encoding: 176 176 166
Width: 300
VWidth: 545
Flags: W
HStem: 585 90<122.046 177.954> 735 90<122.046 177.954>
VStem: 30 90<677.046 732.954> 180 90<677.046 732.954>
LayerCount: 2
Fore
SplineSet
30 705 m 0
 30 771 84 825 150 825 c 0
 216 825 270 771 270 705 c 0
 270 639 216 585 150 585 c 0
 84 585 30 639 30 705 c 0
120 705 m 0
 120 688 133 675 150 675 c 0
 167 675 180 688 180 705 c 0
 180 722 167 735 150 735 c 0
 133 735 120 722 120 705 c 0
EndSplineSet
EndChar

StartChar: two.superior
Encoding: 178 178 224
Width: 480
VWidth: 0
Flags: W
HStem: 390 90<175 405> 790 20G<235 246.5>
LayerCount: 2
Fore
SplineSet
75 435 m 2
 75 495 l 2
 75 509 82 523 93 531 c 2
 285 675 l 1
 240 709 l 1
 147 639 l 2
 139 633 130 630 120 630 c 2
 75 630 l 1
 75 720 l 1
 105 720 l 1
 213 801 l 2
 221 807 230 810 240 810 c 2
 242 810 l 2
 251 810 260 806 267 801 c 2
 387 711 l 2
 398 703 405 689 405 675 c 0
 405 661 398 647 387 639 c 2
 175 480 l 1
 405 480 l 1
 405 390 l 1
 120 390 l 2
 108 390 96 395 88 403 c 0
 80 411 75 423 75 435 c 2
EndSplineSet
EndChar

StartChar: three.superior
Encoding: 179 179 225
Width: 479
VWidth: 0
Flags: MW
HStem: 480 90<75 105> 630 90<75 105>
DStem2: 105 720 147 639 0.8 0.6<0 101.4> 147 561 105 480 0.8 -0.6<15 116.4>
LayerCount: 2
Fore
SplineSet
75 480 m 1
 75 570 l 1
 120 570 l 2
 130 570 139 567 147 561 c 2
 240 491 l 1
 285 525 l 1
 233 564 l 2
 222 572 215 586 215 600 c 0
 215 614 222 628 233 636 c 2
 285 675 l 1
 240 709 l 1
 147 639 l 2
 139 633 130 630 120 630 c 2
 75 630 l 1
 75 720 l 1
 105 720 l 1
 213 801 l 2
 221 807 230 810 240 810 c 2
 242 810 l 2
 251 810 260 806 267 801 c 2
 387 711 l 2
 398 703 405 689 405 675 c 0
 405 661 398 647 387 639 c 2
 335 600 l 1
 387 561 l 2
 398 553 405 539 405 525 c 0
 405 511 398 497 387 489 c 2
 267 399 l 2
 259 393 250 390 240 390 c 0
 230 390 221 393 213 399 c 2
 105 480 l 1
 75 480 l 1
EndSplineSet
EndChar

StartChar: acute
Encoding: 180 180 189
Width: 270
VWidth: 545
Flags: MW
HStem: 600 90<75 105> 600 180 690 90<255 285>
VStem: 75 210
DStem2: 105 690 147 609 0.8 0.6<0 120>
LayerCount: 2
Fore
SplineSet
75 600 m 5x90
 75 690 l 5
 105 690 l 1x90
 213 771 l 2
 221 777 230 780 240 780 c 2
 285 780 l 1
 285 690 l 1
 255 690 l 1x30
 147 609 l 2
 139 603 130 600 120 600 c 2x50
 75 600 l 5x90
EndSplineSet
EndChar

StartChar: micro
Encoding: 181 181 178
Width: 480
VWidth: 530
Flags: MW
HStem: -180 90<45 75> 0 90<405 435> 405 90<45 75 285 315>
VStem: 75 90<-90 45 158 405> 315 90<158 405>
LayerCount: 2
Fore
SplineSet
45 -90 m 1
 75 -90 l 1
 75 405 l 1
 45 405 l 1
 45 495 l 1
 120 495 l 2
 132 495 144 490 152 482 c 0
 160 474 165 462 165 450 c 2
 165 158 l 1
 240 101 l 1
 315 158 l 1
 315 405 l 1
 285 405 l 1
 285 495 l 1
 360 495 l 2
 372 495 384 490 392 482 c 0
 400 474 405 462 405 450 c 2
 405 90 l 1
 435 90 l 1
 435 0 l 1
 360 0 l 2
 348 0 336 5 328 13 c 0
 320 21 315 33 315 45 c 1
 267 9 l 2
 259 3 250 0 240 0 c 0
 230 0 221 3 213 9 c 2
 165 45 l 1
 165 -135 l 2
 165 -147 160 -159 152 -167 c 0
 144 -175 132 -180 120 -180 c 2
 45 -180 l 1
 45 -90 l 1
EndSplineSet
EndChar

StartChar: cedilla
Encoding: 184 184 226
Width: 269
VWidth: 530
Flags: MW
HStem: -90 90<75 105>
LayerCount: 2
Fore
SplineSet
75 0 m 1
 120 0 l 2
 130 0 139 -3 147 -9 c 2
 169 -25 l 1
 179 -10 l 1
 117 36 l 1
 207 81 l 1
 267 36 l 2
 276 29 282 19 284 8 c 0
 285 5 285 3 285 0 c 0
 285 -9 282 -18 277 -25 c 2
 217 -115 l 2
 211 -125 200 -132 188 -134 c 0
 185 -135 183 -135 180 -135 c 0
 170 -135 161 -132 153 -126 c 2
 105 -90 l 1
 75 -90 l 1
 75 0 l 1
EndSplineSet
EndChar

StartChar: one.superior
Encoding: 185 185 227
Width: 240
VWidth: 0
Flags: W
HStem: 790 20G<45 126>
VStem: 45 120<720 796.622>
LayerCount: 2
Fore
SplineSet
45 720 m 1
 45 810 l 1
 120 810 l 2
 132 810 144 805 152 797 c 0
 160 789 165 777 165 765 c 2
 165 480 l 1
 195 480 l 1
 195 390 l 1
 120 390 l 2
 108 390 96 395 88 403 c 0
 80 411 75 423 75 435 c 2
 75 720 l 1
 45 720 l 1
EndSplineSet
EndChar

StartChar: ordmasculine
Encoding: 186 186 228
Width: 480
VWidth: 0
Flags: MW
VStem: 75 90<548 652> 315 90<548 652>
DStem2: 93 711 165 652 0.8 0.6<22.2 116.4> 165 548 93 489 0.8 -0.6<0 94.2> 267 801 240 709 0.8 -0.6<33.6 127.8> 240 491 267 399 0.8 0.6<0 94.2>
LayerCount: 2
Fore
SplineSet
75 525 m 2
 75 675 l 2
 75 689 82 703 93 711 c 2
 213 801 l 2
 221 807 230 810 240 810 c 2
 242 810 l 2
 251 810 260 806 267 801 c 2
 387 711 l 2
 398 703 405 689 405 675 c 2
 405 525 l 2
 405 511 398 497 387 489 c 2
 267 399 l 2
 259 393 250 390 240 390 c 0
 230 390 221 393 213 399 c 6
 93 489 l 6
 82 497 75 511 75 525 c 2
165 548 m 5
 240 491 l 5
 315 548 l 1
 315 652 l 1
 240 709 l 1
 165 652 l 1
 165 548 l 5
EndSplineSet
EndChar

StartChar: guillemotright
Encoding: 187 187 229
Width: 465
VWidth: 0
Flags: W
HStem: 45 90<45 62 210 227> 405 90<45 62 210 227>
LayerCount: 2
Fore
SplineSet
45 45 m 1
 45 135 l 1
 62 135 l 1
 130 270 l 1
 62 405 l 1
 45 405 l 1
 45 495 l 1
 90 495 l 2
 98 495 107 492 114 488 c 0
 121 484 126 477 130 470 c 2
 220 290 l 2
 223 284 225 277 225 270 c 0
 225 263 223 256 220 250 c 2
 130 70 l 2
 126 63 121 56 114 52 c 0
 107 48 98 45 90 45 c 2
 45 45 l 1
210 45 m 1
 210 135 l 1
 227 135 l 1
 295 270 l 1
 227 405 l 1
 210 405 l 1
 210 495 l 1
 255 495 l 2
 263 495 272 492 279 488 c 0
 286 484 291 477 295 470 c 2
 385 290 l 2
 388 284 390 277 390 270 c 0
 390 263 388 256 385 250 c 2
 295 70 l 2
 291 63 286 56 279 52 c 0
 272 48 263 45 255 45 c 2
 210 45 l 1
EndSplineSet
EndChar

StartChar: threequarters
Encoding: 190 190 232
Width: 930
VWidth: 955
Flags: W
HStem: 0 90<225 257 825 855> 90 90<615 735> 480 90<75 105> 630 90<75 105> 720 90<673 705>
VStem: 735 90<180 285>
DStem2: 105 720 147 639 0.8 0.6<0 101.4> 147 561 105 480 0.8 -0.6<15 116.4> 257 90 325 25 0.447728 0.89417<0 749.582> 543 254 615 195 0.800914 0.598779<22.3379 172.338>
LayerCount: 2
Fore
SplineSet
225 0 m 1xac
 225 90 l 1
 257 90 l 1
 605 785 l 2
 608 793 614 799 621 803 c 0
 628 808 637 810 645 810 c 2
 705 810 l 1
 705 720 l 1
 673 720 l 1
 325 25 l 2
 322 17 316 11 309 7 c 0
 302 2 293 0 285 0 c 2
 225 0 l 1xac
EndSplineSet
Refer: 225 179 N 1 0 0 1 0 0 2
Refer: 459 8308 N 1 0 0 1 450 -390 2
EndChar

StartChar: AE
Encoding: 198 198 109
Width: 960
VWidth: 909
Flags: W
HStem: 0 90<525 711.562> 45 90<848.438 915> 405 90<675 915> 675 90<878 915> 720 90<75 247.375 525 585>
VStem: 296 89<523.391 681.461> 435 90<219 720> 585 90<252 405 495 652>
LayerCount: 2
Fore
SplineSet
75 135 m 0x67
 75 143 78 152 82 159 c 0
 191 335 278 493 293 590 c 0
 295 603 296 614 296 624 c 0
 296 652 288 669 273 683 c 0
 252 702 207 720 123 720 c 2
 75 720 l 1
 75 810 l 1
 123 810 l 2x6f
 218 810 289 793 335 749 c 0
 371 715 385 668 385 619 c 0
 385 605 384 590 382 575 c 0
 363 455 282 313 184 153 c 1
 299 96 l 1
 435 170 l 1
 435 765 l 2x37
 435 777 440 789 448 797 c 0
 456 805 468 810 480 810 c 2
 630 810 l 2x2f
 642 810 654 805 662 797 c 0
 670 789 675 777 675 765 c 1x37
 723 801 l 2
 729 806 737 809 744 810 c 0
 746 810 748 810 750 810 c 0x2f
 755 810 761 809 766 807 c 2
 878 765 l 1
 915 765 l 1
 915 675 l 1
 870 675 l 2
 865 675 859 676 854 678 c 2
 757 714 l 1
 675 652 l 1
 675 495 l 1
 915 495 l 1
 915 405 l 1
 675 405 l 1
 675 225 l 2
 675 217 673 209 669 202 c 0
 665 195 659 190 652 186 c 2
 525 116 l 1
 525 90 l 1
 684 90 l 1xb7
 859 134 l 2
 863 135 866 135 870 135 c 2
 915 135 l 1
 915 45 l 1
 876 45 l 1x67
 701 1 l 2
 697 0 694 0 690 0 c 2
 480 0 l 2xa7
 468 0 456 5 448 13 c 0
 440 21 435 33 435 45 c 2x67
 435 67 l 1
 322 6 l 2
 315 2 308 0 300 0 c 0xa7
 293 0 286 2 280 5 c 2
 100 95 l 2
 89 101 80 111 77 123 c 0
 76 127 75 131 75 135 c 0x67
525 219 m 1
 585 252 l 1
 585 720 l 1
 525 720 l 1
 525 219 l 1
EndSplineSet
EndChar

StartChar: Ccedilla
Encoding: 199 199 233
Width: 600
VWidth: 0
Flags: MW
HStem: -135 90<225 255> 45 90<488.033 555> 675 90<518 555> 717 93<187.33 225 388.258 414.236>
VStem: 75 90<216.094 657.455> 225 90<248 652>
DStem2: 325 90 403 17 0.969483 0.245157<57.7233 211.949> 406 807 397 714 0.936329 -0.351123<24.2275 119.616>
LayerCount: 2
Fore
SplineSet
75 405 m 0
 75 558 77 659 98 715 c 0
 110 749 134 777 165 792 c 0
 196 807 230 810 270 810 c 0
 282 810 294 805 302 797 c 0
 310 789 315 777 315 765 c 1
 363 801 l 2
 369 806 377 809 384 810 c 1
 389 810 l 1
 390 810 l 2
 395 810 401 809 406 807 c 2
 518 765 l 1
 555 765 l 1
 555 675 l 1
 510 675 l 2
 505 675 499 676 494 678 c 2
 397 714 l 1
 315 652 l 1
 315 225 l 2
 315 211 308 197 297 189 c 2
 211 124 l 1
 220 112 231 106 246 100 c 0
 264 93 291 90 325 90 c 1
 499 134 l 2
 503 135 506 135 510 135 c 2
 555 135 l 1
 555 45 l 1
 516 45 l 1
 403 17 l 1
 427 -20 l 2
 432 -27 435 -36 435 -45 c 0
 435 -54 432 -63 427 -70 c 2
 367 -160 l 2
 360 -170 350 -177 338 -179 c 0
 336 -179 332 -180 330 -180 c 0
 320 -180 311 -177 303 -171 c 2
 255 -135 l 1
 225 -135 l 1
 225 -45 l 1
 270 -45 l 2
 280 -45 289 -48 297 -54 c 2
 319 -70 l 1
 336 -45 l 1
 306 0 l 1
 274 1 244 6 216 16 c 0
 181 29 149 52 128 86 c 0
 85 153 75 249 75 405 c 0
165 405 m 0
 165 321 170 259 178 213 c 1
 225 248 l 1
 225 717 l 1
 204 713 188 706 182 684 c 1
 169 648 165 558 165 405 c 0
EndSplineSet
EndChar

StartChar: multiply
Encoding: 215 215 151
Width: 450
VWidth: 1076
Flags: W
HStem: 201 318
VStem: 66 318
LayerCount: 2
Fore
SplineSet
66 265 m 1
 161 360 l 1
 66 455 l 1
 130 519 l 1
 225 424 l 1
 320 519 l 1
 384 455 l 1
 289 360 l 1
 384 265 l 1
 320 201 l 1
 225 296 l 1
 130 201 l 1
 66 265 l 1
EndSplineSet
EndChar

StartChar: Oslash
Encoding: 216 216 113
Width: 630
VWidth: 909
Flags: W
HStem: 0 90<45 64 224.262 352.72> 720 90<405 429.213 536 555>
VStem: 75 90<274.268 657.455> 225 90<520 652> 465 90<125 351.839>
LayerCount: 2
Fore
SplineSet
45 0 m 1
 45 90 l 1
 64 90 l 1
 99 150 l 1
 80 212 75 293 75 405 c 0
 75 558 77 659 98 715 c 0
 110 749 134 777 165 792 c 0
 196 807 230 810 270 810 c 0
 282 810 294 805 302 797 c 0
 310 789 315 777 315 765 c 1
 363 801 l 2
 371 807 380 810 390 810 c 2
 406 810 l 1
 408 810 l 2
 426 810 444 809 464 801 c 0
 468 799 473 797 477 795 c 1
 485 804 498 810 510 810 c 2
 555 810 l 1
 555 720 l 1
 536 720 l 1
 533 714 l 1
 536 702 539 689 541 674 c 0
 555 578 555 413 555 98 c 2
 555 90 l 2
 555 80 551 70 545 62 c 0
 539 54 531 48 521 46 c 2
 341 1 l 2
 337 0 334 0 330 0 c 0
 288 0 251 3 216 16 c 0
 192 25 169 39 150 58 c 1
 129 22 l 2
 125 15 119 10 112 6 c 0
 105 2 98 0 90 0 c 2
 45 0 l 1
165 405 m 0
 165 353 167 309 170 272 c 1
 225 366 l 1
 225 717 l 1
 204 713 188 706 182 684 c 1
 169 648 165 558 165 405 c 0
199 143 m 1
 201 140 202 137 204 134 c 0
 216 116 227 107 246 100 c 0
 264 93 291 90 325 90 c 1
 465 125 l 1
 465 348 463 496 458 587 c 1
 199 143 l 1
315 520 m 1
 430 718 l 1
 426 719 418 720 405 720 c 1
 315 652 l 1
 315 520 l 1
EndSplineSet
EndChar

StartChar: Thorn
Encoding: 222 222 111
Width: 600
VWidth: 909
Flags: W
HStem: -180 21G<45 126> 0 21G<296.5 303.5> 790 20G<45 126>
VStem: 45 120<-166.622 -90 720 796.622> 75 90<-90 62 163 507 608 720> 435 90<163 545>
LayerCount: 2
Fore
SplineSet
45 -90 m 1xf4
 75 -90 l 1
 75 720 l 1xec
 45 720 l 1
 45 810 l 1
 120 810 l 2
 132 810 144 805 152 797 c 0
 160 789 165 777 165 765 c 2xf4
 165 608 l 1
 280 665 l 2
 286 668 293 670 300 670 c 0
 304 670 307 670 311 669 c 2
 491 624 l 2
 501 622 509 616 515 608 c 0
 521 600 525 590 525 580 c 2
 525 135 l 2
 525 127 522 118 518 111 c 0
 514 104 507 99 500 95 c 2
 320 5 l 2
 314 2 307 0 300 0 c 0
 293 0 286 2 280 5 c 2
 165 62 l 1xec
 165 -135 l 2
 165 -147 160 -159 152 -167 c 0
 144 -175 132 -180 120 -180 c 2
 45 -180 l 1
 45 -90 l 1xf4
165 163 m 1
 300 95 l 1
 435 163 l 1
 435 545 l 1
 305 577 l 1
 165 507 l 1
 165 163 l 1
EndSplineSet
EndChar

StartChar: eszett
Encoding: 223 223 29
Width: 510
VWidth: 1076
Flags: MW
HStem: -180 90<45 75> 405 90<45 75> 720 90<255 315>
VStem: 75 90<22 382 495 652> 375 90<-22 112>
DStem2: 93 711 165 652 0.8 0.6<22.2 135> 165 22 165 -90 0.800711 -0.599051<67.0937 168.6> 267 531 240 439 0.8 -0.6<33.6 176.4> 266 255 366 232 0.668125 0.744049<49.6994 131.712> 366 232 273 189 0.798118 -0.602501<0 79.4832> 300 -79 327 -171 0.8 0.6<0 94.2>
LayerCount: 2
Fore
SplineSet
45 -90 m 1
 75 -90 l 1
 75 405 l 1
 45 405 l 1
 45 495 l 1
 75 495 l 1
 75 675 l 2
 75 689 82 703 93 711 c 6
 213 801 l 6
 221 807 230 810 240 810 c 2
 315 810 l 1
 315 720 l 1
 255 720 l 5
 165 652 l 5
 165 495 l 1
 213 531 l 2
 221 537 232 540 242 540 c 0
 251 540 260 536 267 531 c 2
 447 396 l 2
 458 388 465 375 465 360 c 0
 465 349 461 338 454 330 c 2
 366 232 l 1
 447 171 l 2
 458 163 465 149 465 135 c 2
 465 -45 l 2
 465 -59 458 -73 447 -81 c 2
 327 -171 l 2
 319 -177 310 -180 300 -180 c 0
 290 -180 281 -177 273 -171 c 2
 165 -90 l 1
 165 -135 l 2
 165 -147 160 -159 152 -167 c 0
 144 -175 132 -180 120 -180 c 2
 45 -180 l 1
 45 -90 l 1
165 22 m 1
 300 -79 l 1
 375 -22 l 1
 375 112 l 1
 273 189 l 2
 262 197 255 210 255 225 c 0
 255 236 259 247 266 255 c 2
 354 353 l 1
 240 439 l 1
 165 382 l 1
 165 22 l 1
EndSplineSet
EndChar

StartChar: ae
Encoding: 230 230 33
Width: 690
VWidth: 1076
Flags: MW
HStem: 0 90<390 450>
VStem: 60 90<158 382> 300 90<158 202 315 382> 540 90<158 180>
DStem2: 78 441 150 382 0.8 0.6<22.2 116.4> 150 158 78 99 0.8 -0.6<0 94.2> 390 315 390 202 0.799135 0.601151<0 150> 450 90 492 9 0.8 0.6<0 112.8>
LayerCount: 2
Fore
SplineSet
60 135 m 2
 60 405 l 2
 60 419 67 433 78 441 c 2
 198 531 l 2
 206 537 215 540 225 540 c 2
 227 540 l 2
 236 540 245 536 252 531 c 6
 315 484 l 5
 319 488 324 490 329 492 c 2
 449 537 l 2
 454 539 460 540 465 540 c 0
 467 540 469 540 471 540 c 0
 478 539 486 536 492 531 c 2
 612 441 l 2
 623 433 630 419 630 405 c 0
 630 391 623 377 612 369 c 2
 390 202 l 1
 390 90 l 1
 450 90 l 1
 540 158 l 1
 540 180 l 1
 630 180 l 1
 630 135 l 2
 630 121 623 107 612 99 c 2
 492 9 l 2
 484 3 475 0 465 0 c 2
 345 0 l 2
 333 0 321 5 313 13 c 0
 305 21 300 33 300 45 c 1
 252 9 l 2
 244 3 235 0 225 0 c 0
 215 0 206 3 198 9 c 2
 78 99 l 2
 67 107 60 121 60 135 c 2
150 158 m 1
 225 101 l 1
 300 158 l 1
 300 382 l 5
 225 439 l 5
 150 382 l 1
 150 158 l 1
390 315 m 1
 510 405 l 1
 458 444 l 1
 390 419 l 1
 390 315 l 1
EndSplineSet
EndChar

StartChar: ccedilla
Encoding: 231 231 234
Width: 450
VWidth: 0
Flags: MW
HStem: -90 90<120 150> 405 90<353 390>
VStem: 60 90<158 382> 300 90<158 180>
DStem2: 78 441 150 382 0.8 0.6<22.2 125> 150 158 78 99 0.79872 -0.601703<0 94.2011> 225 101 300 45 0.796162 0.605083<25.8275 94.2019> 241 537 232 444 0.936329 -0.351123<24.2275 119.616>
LayerCount: 2
Fore
SplineSet
60 135 m 2
 60 405 l 2
 60 419 67 433 78 441 c 2
 198 531 l 2
 205 536 214 540 223 540 c 2
 225 540 l 2
 230 540 236 539 241 537 c 2
 353 495 l 1
 390 495 l 1
 390 405 l 1
 345 405 l 2
 340 405 334 406 329 408 c 2
 232 444 l 1
 150 382 l 1
 150 158 l 1
 225 101 l 1
 300 158 l 1
 300 180 l 1
 390 180 l 1
 390 135 l 2
 390 121 383 107 372 99 c 2
 300 45 l 1
 312 36 l 2
 321 29 327 19 329 8 c 0
 329 6 330 2 330 0 c 0
 330 -9 327 -18 322 -25 c 2
 262 -115 l 2
 255 -125 245 -132 233 -134 c 0
 231 -134 227 -135 225 -135 c 0
 215 -135 206 -132 198 -126 c 2
 150 -90 l 1
 120 -90 l 1
 120 0 l 1
 165 0 l 2
 175 0 184 -3 192 -9 c 2
 214 -25 l 1
 224 -10 l 1
 78 99 l 2
 67 107 60 121 60 135 c 2
EndSplineSet
EndChar

StartChar: eth
Encoding: 240 240 35
Width: 465
VWidth: 1076
Flags: W
HStem: 0 21G<235 245> 790 20G<263.5 315>
VStem: 75 90<158 382> 315 90<158 382>
LayerCount: 2
Fore
SplineSet
75 135 m 2
 75 405 l 2
 75 419 82 433 93 441 c 2
 165 495 l 1
 93 549 l 2
 83 556 76 568 75 580 c 1
 75 585 l 2
 75 595 78 606 85 614 c 2
 140 679 l 1
 105 705 l 1
 75 705 l 1
 75 795 l 1
 120 795 l 2
 130 795 139 792 147 786 c 2
 197 748 l 1
 235 794 l 2
 243 804 257 810 270 810 c 2
 315 810 l 1
 315 720 l 1
 291 720 l 1
 269 694 l 1
 285 682 l 1
 315 682 l 1
 315 592 l 1
 270 592 l 2
 260 592 251 596 243 602 c 2
 212 625 l 1
 185 593 l 1
 387 441 l 2
 398 433 405 419 405 405 c 2
 405 135 l 2
 405 121 398 107 387 99 c 2
 267 9 l 2
 259 3 250 0 240 0 c 0
 230 0 221 3 213 9 c 2
 93 99 l 2
 82 107 75 121 75 135 c 2
165 158 m 1
 240 101 l 1
 315 158 l 1
 315 382 l 1
 240 439 l 1
 165 382 l 1
 165 158 l 1
EndSplineSet
EndChar

StartChar: divide
Encoding: 247 247 148
Width: 450
VWidth: 1076
Flags: W
HStem: 180 90<180 270> 315 90<45 405> 450 90<180 270>
VStem: 180 90<180 270 450 540>
CounterMasks: 1 e0
LayerCount: 2
Fore
SplineSet
45 315 m 1
 45 405 l 1
 405 405 l 1
 405 315 l 1
 45 315 l 1
180 180 m 1
 180 270 l 1
 270 270 l 1
 270 180 l 5
 180 180 l 1
180 450 m 1
 180 540 l 1
 270 540 l 1
 270 450 l 1
 180 450 l 1
EndSplineSet
EndChar

StartChar: oslash
Encoding: 248 248 76
Width: 450
VWidth: 531
Flags: W
HStem: 0 21G<220 230> 520 20G<220 231.5>
VStem: 60 90<253 382> 300 90<158 287>
LayerCount: 2
Fore
SplineSet
30 56 m 1
 30 146 l 1
 55 146 l 1
 60 152 l 1
 60 405 l 2
 60 419 67 433 78 441 c 2
 198 531 l 2
 206 537 215 540 225 540 c 2
 227 540 l 2
 236 540 245 536 252 531 c 2
 339 466 l 1
 341 469 l 1
 349 478 362 484 375 484 c 2
 420 484 l 1
 420 394 l 1
 395 394 l 1
 390 388 l 1
 390 135 l 2
 390 121 383 107 372 99 c 2
 252 9 l 2
 244 3 235 0 225 0 c 0
 215 0 206 3 198 9 c 2
 111 74 l 1
 109 71 l 1
 101 62 88 56 75 56 c 2
 30 56 l 1
150 253 m 1
 279 398 l 1
 225 439 l 1
 150 382 l 1
 150 253 l 1
171 142 m 1
 225 101 l 1
 300 158 l 1
 300 287 l 1
 171 142 l 1
EndSplineSet
EndChar

StartChar: thorn
Encoding: 254 254 32
Width: 465
VWidth: 1076
Flags: MW
HStem: -180 90<45 75> 720 90<165 195>
VStem: 75 90<-90 45 158 382 495 720> 315 90<158 382>
DStem2: 267 531 240 439 0.8 -0.6<33.6 127.8> 240 101 267 9 0.8 0.6<0 94.2>
LayerCount: 2
Fore
SplineSet
45 -90 m 1
 75 -90 l 1
 75 765 l 2
 75 777 80 789 88 797 c 0
 96 805 108 810 120 810 c 2
 195 810 l 1
 195 720 l 1
 165 720 l 1
 165 495 l 5
 213 531 l 6
 221 537 230 540 240 540 c 0
 250 540 259 537 267 531 c 2
 387 441 l 2
 398 433 405 419 405 405 c 2
 405 135 l 2
 405 121 398 107 387 99 c 2
 267 9 l 2
 259 3 250 0 240 0 c 0
 230 0 221 3 213 9 c 2
 165 45 l 1
 165 -135 l 2
 165 -147 160 -159 152 -167 c 0
 144 -175 132 -180 120 -180 c 2
 45 -180 l 1
 45 -90 l 1
165 158 m 1
 240 101 l 1
 315 158 l 1
 315 382 l 1
 240 439 l 5
 165 382 l 5
 165 158 l 1
EndSplineSet
EndChar

StartChar: Aogonek
Encoding: 260 260 239
Width: 570
VWidth: -277
Flags: W
HStem: -180 90<461 525> 0 21G<266.5 273.5> 720 90<45 219.688 495 525>
VStem: 266 89<523.497 681.37> 405 120<0 62 720 796.577> 405 90<-17 0 163 720>
LayerCount: 2
Fore
SplineSet
45 136 m 0xf8
 45 144 47 152 52 159 c 0
 160 334 247 493 263 590 c 0
 265 603 266 614 266 624 c 0
 266 651 258 669 243 683 c 1
 223 703 177 720 93 720 c 2
 45 720 l 1
 45 810 l 1
 93 810 l 2
 188 810 258 793 305 749 c 0
 341 715 355 668 355 618 c 0
 355 604 354 589 352 575 c 0
 333 456 252 313 154 153 c 1
 270 95 l 1
 405 163 l 1xf4
 405 765 l 2
 405 777 410 788 418 797 c 1
 427 805 438 810 450 810 c 2
 525 810 l 1
 525 720 l 1xf8
 495 720 l 1
 495 90 l 1xf4
 525 90 l 1
 525 0 l 1xf8
 495 0 l 1
 495 -45 l 2xf4
 495 -53 493 -62 488 -69 c 0
 484 -76 478 -82 470 -85 c 1
 461 -90 l 1
 525 -90 l 1
 525 -180 l 1xf8
 450 -180 l 2
 443 -180 436 -178 430 -175 c 2
 340 -130 l 2
 332 -127 326 -121 322 -114 c 0
 317 -107 315 -98 315 -90 c 0
 315 -82 317 -73 322 -66 c 0
 326 -59 332 -53 340 -50 c 2
 405 -17 l 1xf4
 405 62 l 1
 290 5 l 2
 284 2 277 0 270 0 c 0
 263 0 256 2 250 5 c 2
 70 95 l 2
 59 100 50 111 47 123 c 0
 46 127 45 131 45 136 c 0xf8
EndSplineSet
EndChar

StartChar: aogonek
Encoding: 261 261 240
Width: 465
VWidth: -277
Flags: MW
HStem: -180 90<360 420> 0 90<390 420> 405 90<390 420>
VStem: 60 90<158 382> 300 90<-22 0 158 382>
DStem2: 78 441 150 382 0.8 0.6<22.2 116.4> 150 158 78 99 0.8 -0.6<0 94.2>
LayerCount: 2
Fore
SplineSet
60 135 m 2
 60 405 l 2
 60 419 67 433 78 441 c 2
 198 531 l 2
 206 537 215 540 225 540 c 0
 226 540 226 540 227 540 c 0
 236 540 245 536 252 531 c 2
 315 484 l 1
 323 491 334 495 345 495 c 2
 420 495 l 5
 420 405 l 5
 390 405 l 1
 390 90 l 1
 420 90 l 1
 420 0 l 1
 390 0 l 1
 390 -45 l 2
 390 -59 383 -73 372 -81 c 2
 360 -90 l 1
 420 -90 l 1
 420 -180 l 1
 345 -180 l 2
 335 -180 326 -177 318 -171 c 2
 258 -126 l 2
 247 -118 240 -104 240 -90 c 0
 240 -76 247 -62 258 -54 c 2
 300 -22 l 1
 300 45 l 1
 252 9 l 2
 244 3 235 0 225 0 c 0
 215 0 206 3 198 9 c 2
 78 99 l 2
 67 107 60 121 60 135 c 2
150 158 m 1
 225 101 l 1
 300 158 l 1
 300 382 l 1
 225 439 l 1
 150 382 l 1
 150 158 l 1
EndSplineSet
EndChar

StartChar: emacron
Encoding: 275 275 254
Width: 450
VWidth: 0
Flags: W
HStem: 0 21<220 230> 520 20<220 231.5> 599 90<60 390>
VStem: 60 90<158 202 315 382>
LayerCount: 2
Fore
SplineSet
60 599 m 5
 60 689 l 5
 390 689 l 5
 390 599 l 5
 60 599 l 5
EndSplineSet
Refer: 5 101 N 1 0 0 1 0 0 3
EndChar

StartChar: Eogonek
Encoding: 280 280 259
Width: 600
VWidth: -277
Flags: MW
HStem: -180 90<345 405> 2 88<277 325> 45 90<488.082 555> 405 90<315 555> 675 90<518 555> 717 93<185.489 225 388.258 414.236>
VStem: 75 90<214.169 658.532> 225 90<248 405 495 652>
DStem2: 325 90 375 10 0.969483 0.245157<28.8616 211.949> 406 807 397 714 0.936329 -0.351123<24.2275 119.616>
LayerCount: 2
Fore
SplineSet
75 488 m 0xd3
 75 592 77 661 96 715 c 0
 108 748 132 778 163 792 c 0
 194 807 228 810 267 810 c 2
 270 810 l 2xd7
 282 810 294 805 302 797 c 0
 310 788 315 777 315 765 c 1x9b
 363 801 l 2
 369 806 376 808 384 810 c 0
 386 810 388 810 390 810 c 0x97
 395 810 401 809 406 807 c 2
 518 765 l 1
 555 765 l 1
 555 675 l 1
 510 675 l 2
 505 675 499 676 494 678 c 2
 397 714 l 1
 315 652 l 1
 315 495 l 1
 555 495 l 1
 555 405 l 1
 315 405 l 1
 315 225 l 2
 315 211 308 197 297 189 c 2
 210 124 l 1
 219 112 229 106 244 100 c 0
 262 94 289 90 325 90 c 1xdb
 499 134 l 2
 503 135 506 135 510 135 c 2
 555 135 l 1
 555 45 l 1
 516 45 l 1xb3
 375 10 l 1
 375 0 l 2
 375 -9 372 -18 368 -25 c 2
 331 -80 l 1
 345 -90 l 1
 405 -90 l 1
 405 -180 l 1
 330 -180 l 2
 320 -180 311 -177 303 -171 c 2
 243 -126 l 2
 234 -119 228 -109 226 -98 c 0
 225 -95 225 -93 225 -90 c 0
 225 -81 228 -72 233 -65 c 2
 277 2 l 1
 255 4 233 8 213 16 c 0
 178 29 147 53 126 86 c 0
 85 153 75 249 75 405 c 0
 75 435 75 462 75 488 c 0xd3
165 405 m 0
 165 321 170 258 178 212 c 1
 225 248 l 1
 225 717 l 1
 204 714 187 707 181 685 c 1
 168 648 165 558 165 405 c 0
EndSplineSet
EndChar

StartChar: eogonek
Encoding: 281 281 260
Width: 450
VWidth: -277
Flags: MW
HStem: -180 90<240 300>
VStem: 60 90<158 202 315 382> 300 90<158 180>
DStem2: 78 441 150 382 0.8 0.6<22.2 116.4> 150 158 78 99 0.798118 -0.602501<0 94.2014> 150 315 150 202 0.799135 0.601151<0 150> 225 101 270 22 0.798118 0.602501<0 94.2014>
LayerCount: 2
Fore
SplineSet
60 135 m 2
 60 405 l 2
 60 419 67 433 78 441 c 2
 198 531 l 2
 206 537 215 540 225 540 c 0
 226 540 226 540 227 540 c 0
 236 540 245 536 252 531 c 2
 372 441 l 2
 383 433 390 419 390 405 c 0
 390 391 383 377 372 369 c 2
 150 202 l 1
 150 158 l 1
 225 101 l 1
 300 158 l 1
 300 180 l 1
 390 180 l 1
 390 135 l 2
 390 121 383 107 372 99 c 2
 270 22 l 1
 270 0 l 2
 270 -9 267 -18 262 -25 c 2
 226 -80 l 1
 240 -90 l 1
 300 -90 l 1
 300 -180 l 1
 225 -180 l 2
 215 -180 206 -177 198 -171 c 2
 138 -126 l 2
 129 -119 123 -109 121 -98 c 0
 120 -95 120 -93 120 -90 c 0
 120 -81 123 -72 128 -65 c 2
 180 14 l 1
 180 22 l 1
 78 99 l 2
 67 107 60 121 60 135 c 2
150 315 m 1
 270 405 l 1
 225 439 l 5
 150 382 l 1
 150 315 l 1
EndSplineSet
EndChar

StartChar: Hbar
Encoding: 294 294 273
Width: 600
VWidth: 909
Flags: MW
HStem: -180 90<405 435> 0 90<45 75> 210 90<45 75 165 255> 405 90<165 410.013> 675 90<458.438 525> 790 20G<296.5 303.5>
VStem: 75 90<90 210 300 405 495 647> 435 90<-90 378>
DStem2: 100 715 165 647 0.894427 0.447214<27.7272 184.252> 311 809 305 717 0.969816 -0.243839<16.6143 218.269>
LayerCount: 2
Fore
SplineSet
45 0 m 5
 45 90 l 5
 75 90 l 1
 75 210 l 1
 45 210 l 1
 45 300 l 1
 75 300 l 1
 75 675 l 2
 75 683 78 692 82 699 c 0
 86 706 93 711 100 715 c 2
 280 805 l 2
 286 808 293 810 300 810 c 2
 302 810 l 2
 305 810 308 810 311 809 c 2
 486 765 l 1
 525 765 l 1
 525 675 l 1
 480 675 l 2
 476 675 473 675 469 676 c 2
 305 717 l 1
 165 647 l 1
 165 495 l 1
 240 495 l 1
 259 495 l 2
 309 495 348 494 383 489 c 0
 422 483 460 467 484 435 c 0
 509 401 517 360 521 306 c 0
 525 255 525 190 525 106 c 2
 525 90 l 1
 525 -135 l 2
 525 -147 520 -159 512 -167 c 0
 504 -175 492 -180 480 -180 c 2
 405 -180 l 1
 405 -90 l 1
 435 -90 l 1
 435 90 l 2
 435 182 435 251 431 299 c 0
 427 347 418 372 411 382 c 0
 404 392 397 396 369 400 c 0
 341 404 298 405 240 405 c 2
 165 405 l 1
 165 300 l 1
 255 300 l 1
 255 210 l 1
 165 210 l 1
 165 45 l 2
 165 33 160 21 152 13 c 0
 144 5 132 0 120 0 c 2
 45 0 l 5
EndSplineSet
EndChar

StartChar: hbar
Encoding: 295 295 274
Width: 480
VWidth: 1076
Flags: MW
HStem: -180 90<192 218> 0 90<45 75> 585 90<45 75 165 240> 720 90<165 195>
VStem: 75 90<90 382 495 585 675 720> 315 90<31 382>
DStem2: 218 -90 275 -163 0.624695 0.780869<0 155.081> 267 531 240 439 0.8 -0.6<33.6 127.8>
LayerCount: 2
Fore
SplineSet
45 0 m 1
 45 90 l 1
 75 90 l 1
 75 585 l 1
 45 585 l 1
 45 675 l 1
 75 675 l 1
 75 765 l 2
 75 777 80 789 88 797 c 0
 96 805 108 810 120 810 c 2
 195 810 l 1
 195 720 l 1
 165 720 l 1
 165 675 l 1
 240 675 l 1
 240 585 l 1
 165 585 l 1
 165 495 l 1
 213 531 l 2
 221 537 230 540 240 540 c 0
 250 540 259 537 267 531 c 6
 387 441 l 6
 398 433 405 419 405 405 c 2
 405 15 l 2
 405 5 401 -5 395 -13 c 2
 275 -163 l 2
 267 -173 253 -180 240 -180 c 2
 192 -180 l 1
 192 -90 l 1
 218 -90 l 1
 315 31 l 1
 315 382 l 5
 240 439 l 5
 165 382 l 1
 165 45 l 2
 165 33 160 21 152 13 c 0
 144 5 132 0 120 0 c 2
 45 0 l 1
EndSplineSet
EndChar

StartChar: Iogonek
Encoding: 302 302 281
Width: 570
VWidth: -277
Flags: MW
HStem: -180 90<285 345> 90 90<45 79> 405 90<375 405 495 525> 720 90<45 298.585 495 525>
VStem: 405 90<125 405 495 647>
DStem2: 110 175 79 90 0.89551 -0.445041<10.0677 173.3> 275 93 315 10 0.97092 0.239405<18.9662 133.881>
LayerCount: 2
Fore
SplineSet
45 90 m 1
 45 180 l 1
 90 180 l 2
 97 180 104 178 110 175 c 2
 275 93 l 5
 405 125 l 5
 405 405 l 1
 375 405 l 1
 375 495 l 1
 405 495 l 1
 405 647 l 1
 385 657 l 2
 267 716 267 720 148 720 c 0
 131 720 112 720 90 720 c 2
 45 720 l 1
 45 810 l 1
 90 810 l 2
 260 810 289 805 405 748 c 1
 405 765 l 2
 405 777 410 788 418 797 c 0
 427 805 438 810 450 810 c 2
 525 810 l 1
 525 720 l 1
 495 720 l 1
 495 495 l 1
 525 495 l 1
 525 405 l 1
 495 405 l 1
 495 90 l 2
 495 80 492 70 485 62 c 0
 479 54 471 49 461 46 c 6
 315 10 l 5
 315 0 l 2
 315 -9 312 -18 307 -25 c 2
 271 -80 l 1
 285 -90 l 1
 345 -90 l 1
 345 -180 l 1
 270 -180 l 2
 260 -180 251 -177 243 -171 c 2
 183 -126 l 2
 174 -119 168 -109 166 -98 c 0
 165 -95 165 -93 165 -90 c 0
 165 -81 168 -72 173 -65 c 2
 225 14 l 1
 225 17 l 1
 79 90 l 1
 45 90 l 1
EndSplineSet
EndChar

StartChar: iogonek
Encoding: 303 303 282
Width: 269
VWidth: -277
Flags: W
HStem: -180 90<165 225> 475 20G<75 156> 570 120<105 195>
VStem: 75 120<405 481.577> 105 120<0 90> 105 90<-22 0 90 405 570 690>
LayerCount: 2
Fore
SplineSet
45 -90 m 0xe8
 45 -76 52 -62 63 -54 c 2
 105 -22 l 1
 105 405 l 1xe4
 75 405 l 1
 75 495 l 1
 150 495 l 2
 162 495 173 490 182 482 c 0
 190 473 195 462 195 450 c 2xf0
 195 120 l 1
 195 90 l 1xe4
 225 90 l 1
 225 0 l 1xe8
 195 0 l 1
 195 -45 l 2xe4
 195 -59 188 -73 177 -81 c 2
 165 -90 l 1
 225 -90 l 1
 225 -180 l 1
 150 -180 l 2
 140 -180 131 -177 123 -171 c 2
 63 -126 l 2
 52 -118 45 -104 45 -90 c 0xe8
105 570 m 1
 105 690 l 1
 195 690 l 1
 195 570 l 1
 105 570 l 1
EndSplineSet
EndChar

StartChar: dotlessi
Encoding: 305 305 31
Width: 240
VWidth: 1076
Flags: W
HStem: 0 21G<114 195> 475 20G<45 126>
VStem: 45 120<405 481.622>
LayerCount: 2
Fore
SplineSet
45 405 m 1
 45 495 l 1
 120 495 l 2
 132 495 144 490 152 482 c 0
 160 474 165 462 165 450 c 2
 165 90 l 1
 195 90 l 1
 195 0 l 1
 120 0 l 2
 108 0 96 5 88 13 c 0
 80 21 75 33 75 45 c 2
 75 405 l 1
 45 405 l 1
EndSplineSet
EndChar

StartChar: IJ
Encoding: 306 306 89
Width: 930
VWidth: 909
Flags: W
HStem: -180 90<535.386 623> 0 21G<266.5 272> 90 90<45 79> 405 90<375 405 495 525 735 765 855 885> 720 90<45 298.585 495 658.837 855 885>
VStem: 375 150<405 495> 405 90<-54.0858 32 125 405 495 647> 735 150<405 495> 765 90<-17 405 495 647>
LayerCount: 2
Fore
SplineSet
45 90 m 1xfa80
 45 180 l 1
 90 180 l 2
 97 180 104 178 110 175 c 2
 275 93 l 1
 405 125 l 1
 405 405 l 1xfa80
 375 405 l 1
 375 495 l 1xfc
 405 495 l 1
 405 647 l 1
 385 657 l 2
 267 716 267 720 148 720 c 2
 90 720 l 1
 45 720 l 1
 45 810 l 1
 90 810 l 2
 260 810 289 805 405 748 c 1
 405 765 l 2
 405 777 410 789 418 797 c 0
 426 805 438 810 450 810 c 0
 620 810 649 805 765 748 c 1
 765 765 l 2xfa80
 765 777 770 789 778 797 c 0
 786 805 801 810 810 810 c 2
 885 810 l 1
 885 720 l 1xf9
 855 720 l 1
 855 675 l 1
 855 495 l 1xf880
 885 495 l 1
 885 405 l 1xf9
 855 405 l 1
 855 -45 l 2
 855 -53 852 -62 848 -69 c 0
 844 -76 837 -81 830 -85 c 2
 653 -175 l 2
 647 -178 640 -180 633 -180 c 2
 630 -180 l 2
 572 -180 519 -168 476 -138 c 0
 433 -108 405 -58 405 0 c 2
 405 32 l 1
 281 1 l 2
 277 0 274 0 270 0 c 0
 263 0 256 2 250 5 c 2
 79 90 l 1
 45 90 l 1xfa80
495 0 m 2
 495 -32 505 -49 527 -64 c 0
 548 -78 582 -89 623 -90 c 1
 765 -17 l 1
 765 405 l 1xfa80
 735 405 l 1
 735 495 l 1xf9
 765 495 l 1
 765 647 l 1
 745 657 l 2
 627 716 628 720 509 720 c 2
 495 720 l 1
 495 675 l 1
 495 495 l 1xfa80
 525 495 l 1
 525 405 l 1xfc
 495 405 l 1
 495 0 l 2
EndSplineSet
EndChar

StartChar: ij
Encoding: 307 307 36
Width: 480
VWidth: 1076
Flags: MW
HStem: -180 90<225 315> 0 90<165 225> 405 90<45 75 285 315>
VStem: 75 90<90 405 570 690> 315 90<-90 45 158 405 570 690>
LayerCount: 2
Fore
SplineSet
45 405 m 1
 45 495 l 1
 120 495 l 2
 132 495 144 490 152 482 c 0
 160 474 165 462 165 450 c 2
 165 90 l 1
 225 90 l 5
 315 158 l 5
 315 405 l 1
 285 405 l 1
 285 495 l 1
 360 495 l 2
 372 495 384 490 392 482 c 0
 400 474 405 462 405 450 c 2
 405 -135 l 2
 405 -147 400 -159 392 -167 c 0
 384 -175 372 -180 360 -180 c 2
 225 -180 l 1
 225 -90 l 1
 315 -90 l 1
 315 45 l 5
 267 9 l 6
 259 3 250 0 240 0 c 2
 120 0 l 2
 108 0 96 5 88 13 c 0
 80 21 75 33 75 45 c 2
 75 405 l 1
 45 405 l 1
75 570 m 1
 75 690 l 1
 165 690 l 1
 165 570 l 1
 75 570 l 1
315 570 m 1
 315 690 l 1
 405 690 l 1
 405 570 l 1
 315 570 l 1
EndSplineSet
EndChar

StartChar: kcommaaccent
Encoding: 311 311 287
Width: 450
VWidth: 0
Flags: MW
HStem: -90 90<45 75> 0 90<264 285> 405 90<45 75 255 405> 720 90<45 75>
VStem: 75 90<158 405 540 608>
DStem2: 165 158 93 99 0.797867 -0.602833<0 85.9214> 165 540 255 495 0.8 0.6<45 150>
LayerCount: 2
Fore
SplineSet
45 0 m 1
 90 0 l 2
 100 0 109 -3 117 -9 c 2
 139 -26 l 5
 179 34 l 5
 93 99 l 2
 82 107 75 122 75 136 c 2
 75 405 l 1
 45 405 l 1
 45 495 l 1
 75 495 l 1
 75 720 l 1
 45 720 l 1
 45 810 l 1
 120 810 l 2
 132 810 144 805 152 797 c 0
 160 789 165 777 165 765 c 2
 165 720 l 1
 213 756 l 2
 221 762 230 765 240 765 c 0
 250 765 259 762 267 756 c 2
 387 666 l 2
 398 658 405 644 405 630 c 0
 405 616 398 602 387 594 c 2
 255 495 l 1
 405 495 l 1
 405 405 l 1
 165 405 l 1
 165 158 l 1
 255 90 l 1
 285 90 l 1
 285 0 l 1
 264 0 l 5
 187 -115 l 6
 180 -125 170 -132 158 -134 c 0
 156 -134 152 -135 150 -135 c 0
 140 -135 131 -132 123 -126 c 2
 75 -90 l 1
 45 -90 l 1
 45 0 l 1
165 540 m 1
 285 630 l 1
 240 664 l 1
 165 608 l 1
 165 540 l 1
EndSplineSet
EndChar

StartChar: lcommaaccent
Encoding: 316 316 291
Width: 240
VWidth: 0
Flags: W
HStem: -180 21G<45 132.5> 790 20G<114 195>
VStem: 75 120<720 796.622> 75 90<-90 0 90 720>
LayerCount: 2
Fore
SplineSet
45 0 m 1xd0
 45 90 l 1
 75 90 l 1xd0
 75 765 l 2
 75 777 80 789 88 797 c 0
 96 805 108 810 120 810 c 2
 195 810 l 1
 195 720 l 1xe0
 165 720 l 1
 165 -135 l 2
 165 -160 145 -180 120 -180 c 2
 45 -180 l 1
 45 -90 l 1
 75 -90 l 1
 75 0 l 1
 45 0 l 1xd0
EndSplineSet
EndChar

StartChar: lslash
Encoding: 322 322 297
Width: 240
VWidth: 1076
Flags: MW
HStem: 0 90<45 75> 309 90<15 45> 399 90<195 225> 720 90<165 195>
VStem: 75 90<90 312 486 720>
LayerCount: 2
Fore
SplineSet
15 309 m 1
 15 399 l 1
 45 399 l 5
 75 422 l 1
 75 765 l 2
 75 777 80 789 88 797 c 0
 96 805 108 810 120 810 c 2
 195 810 l 1
 195 720 l 1
 165 720 l 1
 165 486 l 5
 170 488 175 489 180 489 c 2
 225 489 l 1
 225 399 l 1
 195 399 l 5
 165 376 l 1
 165 45 l 2
 165 33 160 21 152 13 c 0
 144 5 132 0 120 0 c 2
 45 0 l 1
 45 90 l 1
 75 90 l 1
 75 312 l 5
 70 310 65 309 60 309 c 2
 15 309 l 1
EndSplineSet
EndChar

StartChar: napostrophe
Encoding: 329 329 304
Width: 480
VWidth: 1076
Flags: W
HStem: 0 90<165 195 405 435> 475 20<45 125.5 235 246.5> 790 20G<152.5 240>
VStem: 75 90<90 382> 120 120<720 803.519> 315 90<90 382>
LayerCount: 2
Fore
SplineSet
90 565 m 1xf4
 90 655 l 1
 120 655 l 1
 120 765 l 2xec
 120 790 140 810 165 810 c 2xf4
 240 810 l 1
 240 720 l 1xec
 210 720 l 1
 210 610 l 2
 210 585 190 565 165 565 c 2
 90 565 l 1xf4
EndSplineSet
Refer: 14 110 N 1 0 0 1 0 0 2
EndChar

StartChar: OE
Encoding: 338 338 110
Width: 990
VWidth: 909
Flags: HMW
HStem: 0 90<224.128 319> 45 90<878.438 945> 405 90<705 945> 675 90<908 945> 717 93<187.742 225 388.258 413.83 778.258 804.236>
VStem: 75 90<216.072 657.455> 225 90<248 652> 465 90<219 687> 615 90<252 405 495 652>
DStem2: 319 90 352 6 0.877896 0.478852<-33.1504 166.481 281.405 337.431> 609 146 511 92 0.907399 -0.420269<0 127.533> 725 93 731 1 0.969816 0.243839<0 201.655> 796 807 787 714 0.936329 -0.351123<24.2275 119.616>
LayerCount: 2
Fore
SplineSet
75 405 m 0xb780
 75 558 77 659 98 715 c 0
 110 749 134 778 165 792 c 0
 197 807 230 810 270 810 c 0
 282 810 293 805 302 797 c 1
 310 788 315 777 315 765 c 1
 363 801 l 2
 369 806 376 808 384 810 c 0
 386 810 388 810 390 810 c 0
 395 810 401 809 406 807 c 2
 512 768 l 1
 647 808 l 2
 651 809 655 810 660 810 c 0
 669 810 679 807 687 801 c 0
 698 793 705 779 705 765 c 1
 753 801 l 2
 759 806 766 808 774 810 c 0
 776 810 778 810 780 810 c 0
 785 810 791 809 796 807 c 6
 908 765 l 5
 945 765 l 1
 945 675 l 1
 900 675 l 2
 895 675 889 676 884 678 c 6
 787 714 l 5
 705 652 l 1
 705 495 l 1
 945 495 l 1
 945 405 l 1
 705 405 l 1
 705 225 l 2
 705 217 703 209 699 202 c 0
 695 195 689 189 682 186 c 2
 609 146 l 1
 725 93 l 1
 889 134 l 2
 893 135 896 135 900 135 c 2
 945 135 l 1
 945 45 l 1
 906 45 l 1x7780
 731 1 l 2
 727 0 724 0 720 0 c 0
 713 0 707 1 701 4 c 2
 511 92 l 1
 352 6 l 2
 345 2 337 0 330 0 c 0
 288 0 250 3 216 16 c 1
 181 28 149 52 128 86 c 0
 85 153 75 249 75 405 c 0xb780
165 405 m 0
 165 321 170 258 178 213 c 1
 225 248 l 1
 225 717 l 1
 204 713 188 706 182 684 c 1
 169 648 165 558 165 405 c 0
297 189 m 1
 211 124 l 1
 220 113 231 106 246 100 c 0
 263 94 288 91 319 90 c 1xb780
 465 170 l 1
 465 689 l 1
 397 714 l 1
 315 652 l 1
 315 225 l 2
 315 211 308 197 297 189 c 1
555 219 m 1
 615 252 l 1
 615 705 l 1
 555 687 l 1
 555 219 l 1
EndSplineSet
EndChar

StartChar: oe
Encoding: 339 339 34
Width: 690
VWidth: 1076
Flags: MW
VStem: 60 90<158 382> 300 90<158 202 315 382> 540 90<158 180>
DStem2: 78 441 150 382 0.8 0.6<22.2 116.4> 150 158 78 99 0.8 -0.6<0 94.2> 252 531 225 439 0.798968 -0.601374<33.7542 116.4> 225 101 252 9 0.798968 0.601374<0 82.6459> 345 461 390 382 0.798968 0.601374<0 82.6459> 390 158 345 79 0.798968 -0.601374<11.555 94.2009> 390 315 390 202 0.799135 0.601151<0 150> 465 101 492 9 0.8 0.6<0 94.2>
LayerCount: 2
Fore
SplineSet
60 135 m 2
 60 405 l 2
 60 419 67 433 78 441 c 2
 198 531 l 2
 206 537 215 540 225 540 c 2
 227 540 l 2
 236 540 245 536 252 531 c 2
 345 461 l 1
 438 531 l 2
 446 537 455 540 465 540 c 0
 475 540 484 537 492 531 c 2
 612 441 l 2
 623 433 630 419 630 405 c 0
 630 391 623 377 612 369 c 2
 390 202 l 1
 390 158 l 1
 465 101 l 1
 540 158 l 1
 540 180 l 1
 630 180 l 1
 630 135 l 2
 630 121 623 107 612 99 c 2
 492 9 l 2
 484 3 475 0 465 0 c 0
 455 0 446 3 438 9 c 2
 345 79 l 1
 252 9 l 2
 244 3 235 0 225 0 c 0
 215 0 206 3 198 9 c 2
 78 99 l 2
 67 107 60 121 60 135 c 2
150 158 m 1
 225 101 l 1
 300 158 l 1
 300 382 l 1
 225 439 l 1
 150 382 l 1
 150 158 l 1
390 315 m 1
 510 405 l 1
 465 439 l 1
 390 382 l 1
 390 315 l 1
EndSplineSet
EndChar

StartChar: rcommaaccent
Encoding: 343 343 314
Width: 420
VWidth: 0
Flags: W
HStem: -180 21G<145 151.5> 0 21G<45 126> 405 90<45 75 339 375> 520 20G<219.5 228>
VStem: 75 90<159 384>
LayerCount: 2
Fore
SplineSet
45 0 m 1
 45 90 l 1
 75 90 l 1
 75 405 l 1
 45 405 l 1
 45 495 l 1
 120 495 l 2
 129 495 139 492 146 487 c 1
 196 529 l 2
 204 536 214 540 225 540 c 0
 231 540 237 539 243 536 c 2
 339 495 l 1
 375 495 l 1
 375 405 l 1
 330 405 l 2
 324 405 318 406 312 409 c 2
 233 443 l 1
 165 384 l 1
 165 159 l 1
 280 82 l 2
 289 76 296 66 299 55 c 0
 300 52 300 49 300 45 c 0
 300 37 298 29 294 22 c 2
 189 -158 l 2
 183 -169 171 -177 159 -179 c 0
 156 -180 153 -180 150 -180 c 0
 140 -180 131 -177 123 -171 c 2
 75 -135 l 1
 45 -135 l 1
 45 -45 l 1
 90 -45 l 2
 100 -45 109 -48 117 -54 c 2
 137 -69 l 1
 195 31 l 1
 165 51 l 1
 165 45 l 2
 165 33 160 22 152 13 c 0
 143 5 132 0 120 0 c 2
 45 0 l 1
EndSplineSet
EndChar

StartChar: Scedilla
Encoding: 350 350 321
Width: 615
VWidth: 0
Flags: W
HStem: -180 21G<310 316> 45 90<75 141.562> 405 90<173.107 438.669> 675 90<487.965 555> 790 20G<324.5 330.5>
VStem: 75 90<500.61 684> 465 90<126 377.948>
LayerCount: 2
Fore
SplineSet
75 45 m 1
 75 135 l 1
 120 135 l 2
 124 135 127 135 131 134 c 2
 301 91 l 1
 465 126 l 1
 465 205 464 265 460 307 c 0
 455 355 447 377 439 385 c 0
 432 392 421 397 393 401 c 0
 365 405 325 405 270 405 c 2
 256 405 l 2
 229 405 207 405 185 408 c 0
 160 412 132 422 113 443 c 0
 89 470 82 504 78 547 c 0
 75 587 75 637 75 705 c 2
 75 720 l 2
 75 730 79 740 85 748 c 0
 91 756 100 762 110 764 c 2
 317 809 l 2
 320 810 323 810 326 810 c 2
 327 810 l 1
 329 810 l 2
 332 810 335 810 338 809 c 2
 516 765 l 1
 555 765 l 1
 555 675 l 1
 510 675 l 2
 506 675 503 675 499 676 c 2
 326 719 l 1
 165 684 l 1
 165 629 166 584 168 555 c 1
 171 527 166 500 197 497 c 0
 212 495 237 495 270 495 c 2
 287 495 l 2
 334 495 371 494 405 490 c 0
 442 485 478 474 504 447 c 0
 535 415 545 372 550 316 c 0
 555 264 555 197 555 108 c 2
 555 90 l 2
 555 80 551 70 545 62 c 0
 539 54 529 48 519 46 c 2
 387 18 l 1
 412 -20 l 2
 417 -27 420 -36 420 -45 c 0
 420 -54 417 -63 412 -70 c 2
 352 -160 l 2
 345 -170 335 -177 323 -179 c 0
 321 -179 317 -180 315 -180 c 0
 305 -180 296 -177 288 -171 c 2
 240 -135 l 1
 210 -135 l 1
 210 -45 l 1
 255 -45 l 2
 265 -45 274 -48 282 -54 c 2
 304 -70 l 1
 321 -45 l 1
 291 0 l 2
 291 1 290 1 289 1 c 2
 114 45 l 1
 75 45 l 1
EndSplineSet
Substitution2: "'cv01' Alternatives S-1" Scedilla.alt
EndChar

StartChar: scedilla
Encoding: 351 351 322
Width: 450
VWidth: 0
Flags: W
HStem: -112 90<120 157> 45 90<60 97> 405 90<353 390> 520 20G<218.5 227.5>
VStem: 60 90<306 382> 300 90<158 234>
LayerCount: 2
Fore
SplineSet
60 45 m 1
 60 135 l 1
 105 135 l 2
 110 135 116 134 121 132 c 2
 218 96 l 1
 300 158 l 1
 300 234 l 1
 111 210 l 2
 109 210 107 210 105 210 c 0
 94 210 83 214 75 221 c 0
 65 229 60 242 60 255 c 2
 60 405 l 2
 60 419 67 433 78 441 c 2
 198 531 l 2
 205 536 214 540 223 540 c 2
 225 540 l 2
 230 540 236 539 241 537 c 2
 353 495 l 1
 390 495 l 1
 390 405 l 1
 345 405 l 2
 340 405 334 406 329 408 c 2
 232 444 l 1
 150 382 l 1
 150 306 l 1
 339 330 l 2
 341 330 343 330 345 330 c 0
 356 330 367 326 375 319 c 0
 385 311 390 298 390 285 c 2
 390 135 l 2
 390 121 383 107 372 99 c 2
 315 56 l 1
 320 51 324 45 327 38 c 0
 329 33 330 28 330 23 c 0
 330 16 328 8 325 1 c 2
 265 -111 l 2
 260 -121 251 -128 241 -132 c 0
 236 -134 230 -135 225 -135 c 0
 220 -135 214 -134 209 -132 c 2
 157 -112 l 1
 120 -112 l 1
 120 -22 l 1
 165 -22 l 2
 170 -22 176 -23 181 -25 c 2
 204 -34 l 1
 221 -2 l 1
 97 45 l 1
 60 45 l 1
EndSplineSet
EndChar

StartChar: Tcommaaccent
Encoding: 354 354 325
Width: 600
VWidth: 0
Flags: MW
HStem: -135 90<225 255> 0 90<223.928 306> 45 90<488.033 555> 720 90<45 139 315 555>
VStem: 75 90<216.094 608.67> 225 90<248 683>
DStem2: 325 90 403 17 0.969483 0.245157<57.7233 211.949>
LayerCount: 2
Fore
SplineSet
45 720 m 1xdc
 45 810 l 1
 555 810 l 1
 555 720 l 1
 315 720 l 1
 315 225 l 2
 315 211 308 197 297 189 c 2
 211 124 l 1
 220 112 231 106 246 100 c 0
 264 93 291 90 325 90 c 1xdc
 499 134 l 2
 503 135 506 135 510 135 c 2
 555 135 l 1
 555 45 l 1
 516 45 l 1xbc
 403 17 l 1
 427 -20 l 2
 432 -27 435 -36 435 -45 c 0
 435 -54 432 -63 427 -70 c 2
 367 -160 l 2
 360 -170 350 -177 338 -179 c 0
 336 -179 332 -180 330 -180 c 0
 320 -180 311 -177 303 -171 c 2
 255 -135 l 1
 225 -135 l 1
 225 -45 l 1
 270 -45 l 2
 280 -45 289 -48 297 -54 c 2
 319 -70 l 1
 336 -45 l 1
 306 0 l 1
 274 1 244 6 216 16 c 0
 181 29 149 52 128 86 c 0
 85 153 75 249 75 405 c 0
 75 562 96 651 132 709 c 0
 134 713 136 716 139 720 c 1
 45 720 l 1xdc
165 405 m 0
 165 321 170 259 178 213 c 1
 225 248 l 1
 225 683 l 1
 219 677 213 670 208 661 c 0
 186 625 165 554 165 405 c 0
EndSplineSet
EndChar

StartChar: tcommaaccent
Encoding: 355 355 326
Width: 330
VWidth: 0
Flags: MW
HStem: -90 90<45 75> 0 90<264 285> 405 90<45 75 165 285> 630 90<165 195>
VStem: 75 90<158 405 495 630>
DStem2: 165 158 93 99 0.797867 -0.602833<0 85.9214>
LayerCount: 2
Fore
SplineSet
45 0 m 1
 90 0 l 2
 100 0 109 -3 117 -9 c 2
 139 -26 l 1
 179 34 l 1
 93 99 l 2
 82 107 75 121 75 135 c 2
 75 405 l 1
 45 405 l 1
 45 495 l 1
 75 495 l 1
 75 675 l 2
 75 687 80 699 88 707 c 0
 96 715 108 720 120 720 c 2
 195 720 l 1
 195 630 l 1
 165 630 l 1
 165 495 l 1
 285 495 l 1
 285 405 l 1
 165 405 l 1
 165 158 l 1
 255 90 l 1
 285 90 l 1
 285 0 l 1
 264 0 l 1
 187 -115 l 2
 180 -125 170 -132 158 -134 c 0
 156 -134 152 -135 150 -135 c 0
 140 -135 131 -132 123 -126 c 2
 75 -90 l 1
 45 -90 l 1
 45 0 l 1
EndSplineSet
EndChar

StartChar: Tbar
Encoding: 358 358 329
Width: 600
VWidth: 909
Flags: MW
HStem: 0 90<224.241 352.405> 45 90<488.438 555> 420 90<45 75 169 225 315 375> 720 90<45 139 315 555>
VStem: 75 90<217.021 420 510 609.296> 225 90<248 420 510 683>
DStem2: 325 90 341 1 0.969816 0.243839<-16.9153 212.085>
LayerCount: 2
Fore
SplineSet
45 420 m 1xbc
 45 510 l 1
 79 510 l 1
 86 604 105 665 132 709 c 0
 134 713 136 716 139 720 c 1
 45 720 l 1
 45 810 l 1
 555 810 l 1
 555 720 l 1
 315 720 l 1
 315 510 l 1
 375 510 l 1
 375 420 l 1
 315 420 l 1
 315 225 l 2
 315 211 308 197 297 189 c 2
 211 124 l 1
 220 112 231 106 246 100 c 0
 264 93 291 90 325 90 c 5xbc
 499 134 l 6
 503 135 506 135 510 135 c 2
 555 135 l 1
 555 45 l 1
 516 45 l 5x7c
 341 1 l 6
 337 0 334 0 330 0 c 0
 288 0 251 3 216 16 c 0
 181 29 149 52 128 86 c 0
 85 153 75 249 75 405 c 0
 75 410 75 415 75 420 c 1
 45 420 l 1xbc
165 405 m 0
 165 321 170 259 178 213 c 1
 225 248 l 1
 225 420 l 1
 165 420 l 1
 165 415 165 410 165 405 c 0
169 510 m 1
 225 510 l 1
 225 683 l 1
 219 677 213 670 208 661 c 0
 192 635 176 590 169 510 c 1
EndSplineSet
EndChar

StartChar: tbar
Encoding: 359 359 330
Width: 330
VWidth: 1076
Flags: MW
HStem: 0 90<255 285> 255 90<45 75 165 285> 405 90<45 75 165 285> 630 90<165 195>
VStem: 75 90<158 255 345 405 495 630>
DStem2: 165 158 93 99 0.8 -0.6<0 112.8>
LayerCount: 2
Fore
SplineSet
45 255 m 1
 45 345 l 1
 75 345 l 1
 75 405 l 1
 45 405 l 1
 45 495 l 1
 75 495 l 1
 75 675 l 2
 75 687 80 698 88 707 c 1
 97 715 108 720 120 720 c 2
 195 720 l 1
 195 630 l 1
 165 630 l 1
 165 495 l 1
 285 495 l 1
 285 405 l 1
 165 405 l 1
 165 345 l 1
 285 345 l 1
 285 255 l 1
 165 255 l 1
 165 158 l 5
 255 90 l 5
 285 90 l 1
 285 0 l 1
 240 0 l 2
 230 0 221 3 213 9 c 6
 93 99 l 6
 82 107 75 121 75 135 c 2
 75 255 l 1
 45 255 l 1
EndSplineSet
EndChar

StartChar: Uogonek
Encoding: 370 370 341
Width: 600
VWidth: -277
Flags: W
HStem: -180 90<491 555> 0 21G<296.5 303.5> 720 90<45 75 405 435>
VStem: 45 120<720 796.577> 75 90<163 720> 405 120<720 796.577> 435 120<0 62> 435 90<-17 0 163 720>
LayerCount: 2
Fore
SplineSet
45 720 m 1xf0
 45 810 l 1
 120 810 l 2
 132 810 143 805 152 797 c 0
 160 788 165 777 165 765 c 2xf0
 165 163 l 1
 300 95 l 1
 435 163 l 1
 435 720 l 1xe9
 405 720 l 1
 405 810 l 1
 480 810 l 2
 492 810 503 805 512 797 c 0
 520 788 525 777 525 765 c 2xe4
 525 90 l 1xe1
 555 90 l 1
 555 0 l 1xe2
 525 0 l 1
 525 -45 l 2xe1
 525 -53 523 -62 518 -69 c 0
 514 -76 508 -82 500 -85 c 2
 491 -90 l 1
 555 -90 l 1
 555 -180 l 1xe2
 480 -180 l 2
 473 -180 466 -178 460 -175 c 2
 370 -130 l 2
 362 -127 356 -121 352 -114 c 0
 347 -107 345 -98 345 -90 c 0
 345 -82 347 -73 352 -66 c 0
 356 -59 362 -53 370 -50 c 2
 435 -17 l 1xe1
 435 62 l 1
 320 5 l 2
 314 2 307 0 300 0 c 0
 293 0 286 2 280 5 c 2
 100 95 l 2
 92 98 86 104 82 111 c 0
 77 118 75 127 75 135 c 2
 75 720 l 1xea
 45 720 l 1xf0
EndSplineSet
EndChar

StartChar: uogonek
Encoding: 371 371 342
Width: 480
VWidth: -277
Flags: W
HStem: -180 90<375 435> 0 21G<235 245> 405 90<45 75 285 315>
VStem: 45 120<405 481.577> 75 90<158 405> 285 120<405 481.577> 315 90<-22 0 158 405>
LayerCount: 2
Fore
SplineSet
45 405 m 1xf0
 45 495 l 1
 120 495 l 2
 132 495 143 490 152 482 c 0
 160 473 165 462 165 450 c 2xf0
 165 158 l 1
 240 101 l 1
 315 158 l 1
 315 405 l 1xea
 285 405 l 1
 285 495 l 1
 360 495 l 2
 372 495 383 490 392 482 c 0
 400 473 405 462 405 450 c 2xe4
 405 90 l 1
 435 90 l 1
 435 0 l 1
 405 0 l 1
 405 -45 l 2
 405 -59 398 -73 387 -81 c 2
 375 -90 l 1
 435 -90 l 1
 435 -180 l 1
 360 -180 l 2
 350 -180 341 -177 333 -171 c 2
 273 -126 l 2
 262 -118 255 -104 255 -90 c 0
 255 -76 262 -62 273 -54 c 2
 315 -22 l 1
 315 45 l 1
 267 9 l 2
 259 3 250 0 240 0 c 0
 230 0 221 3 213 9 c 2
 93 99 l 2
 82 107 75 121 75 135 c 2
 75 405 l 1xea
 45 405 l 1xf0
EndSplineSet
EndChar

StartChar: longs
Encoding: 383 383 20
Width: 240
VWidth: 1076
Flags: W
HStem: -180 21G<45 126> 720 90<255 315>
VStem: 45 120<-166.622 -90 405 495> 75 90<-90 405 495 652>
LayerCount: 2
Fore
SplineSet
45 -90 m 1xe0
 75 -90 l 1
 75 405 l 1xd0
 45 405 l 1
 45 495 l 1xe0
 75 495 l 1
 75 675 l 2
 75 689 82 703 93 711 c 2
 213 801 l 2
 221 807 230 810 240 810 c 2
 315 810 l 1
 315 720 l 1
 255 720 l 1
 165 652 l 1xd0
 165 -135 l 2
 165 -147 160 -159 152 -167 c 0
 144 -175 132 -180 120 -180 c 2
 45 -180 l 1
 45 -90 l 1xe0
EndSplineSet
Substitution2: "longs zu longs.short-1" longs.short
EndChar

StartChar: dotlessj
Encoding: 567 567 532
Width: 240
VWidth: 0
Flags: M
HStem: -180 90<-15 75> 405 90<45 75>
VStem: 75 90<-90 405>
LayerCount: 2
Fore
SplineSet
-15 -90 m 1
 75 -90 l 1
 75 405 l 5
 45 405 l 1
 45 495 l 1
 120 495 l 2
 132 495 144 490 152 482 c 0
 160 474 165 462 165 450 c 2
 165 -135 l 6
 165 -147 160 -159 152 -167 c 0
 144 -175 132 -180 120 -180 c 2
 -15 -180 l 1
 -15 -90 l 1
EndSplineSet
EndChar

StartChar: gravecomb
Encoding: 768 768 196
Width: 270
VWidth: 530
Flags: MW
HStem: 585 90<210 240> 585 180 675 90<30 60>
VStem: 30 210
DStem2: 102 756 60 675 0.8 -0.6<15 135>
LayerCount: 2
Fore
SplineSet
30 675 m 1x30
 30 765 l 1
 75 765 l 2x30
 85 765 94 762 102 756 c 2
 210 675 l 1
 240 675 l 5
 240 585 l 5x90
 195 585 l 2x50
 185 585 176 588 168 594 c 2
 60 675 l 1
 30 675 l 1x30
EndSplineSet
EndChar

StartChar: macroncmb
Encoding: 772 772 197
Width: 420
VWidth: 1091
Flags: W
HStem: 645 90<30 390>
LayerCount: 2
Fore
SplineSet
30 645 m 5
 30 735 l 5
 390 735 l 5
 390 645 l 5
 30 645 l 5
EndSplineSet
EndChar

StartChar: hungarumlautcmb
Encoding: 779 779 188
Width: 405
VWidth: 1091
Flags: MW
HStem: 585 90<30 51 195 216> 720 90<189 210 354 375>
DStem2: 51 675 112 605 0.556367 0.830937<0 114.171> 216 675 277 605 0.556367 0.830937<0 114.171>
LayerCount: 2
Fore
SplineSet
30 585 m 1
 30 675 l 1
 51 675 l 1
 128 790 l 2
 136 802 150 810 165 810 c 2
 210 810 l 1
 210 720 l 1
 189 720 l 1
 112 605 l 2
 104 593 90 585 75 585 c 2
 30 585 l 1
195 585 m 1
 195 675 l 1
 216 675 l 5
 293 790 l 6
 301 802 315 810 330 810 c 2
 375 810 l 1
 375 720 l 1
 354 720 l 5
 277 605 l 6
 269 593 255 585 240 585 c 2
 195 585 l 1
EndSplineSet
EndChar

StartChar: dblgravecmb
Encoding: 783 783 357
Width: 405
VWidth: 1091
Flags: MW
HStem: 585 90<189 210 354 375> 720 90<30 51 195 216>
DStem2: 112 790 51 720 0.556367 -0.830937<24.2272 138.398> 277 790 216 720 0.556367 -0.830937<24.2272 138.398>
LayerCount: 2
Fore
SplineSet
30 720 m 1
 30 810 l 1
 75 810 l 2
 90 810 104 802 112 790 c 2
 189 675 l 1
 210 675 l 1
 210 585 l 1
 165 585 l 2
 150 585 136 593 128 605 c 2
 51 720 l 1
 30 720 l 1
195 720 m 1
 195 810 l 1
 240 810 l 2
 255 810 269 802 277 790 c 6
 354 675 l 5
 375 675 l 1
 375 585 l 1
 330 585 l 2
 315 585 301 593 293 605 c 6
 216 720 l 5
 195 720 l 1
EndSplineSet
EndChar

StartChar: commasubnosp
Encoding: 806 806 199
Width: 210
VWidth: 1076
Flags: W
HStem: -180 180<66.4806 143.519>
VStem: 30 120<-173.519 -90> 60 120<-90 -6.48056>
LayerCount: 2
Fore
SplineSet
30 -90 m 5xc0
 60 -90 l 5
 60 -45 l 6
 60 -20 80 0 105 0 c 6
 180 0 l 5
 180 -90 l 5xa0
 150 -90 l 5
 150 -135 l 6
 150 -160 130 -180 105 -180 c 6
 30 -180 l 5
 30 -90 l 5xc0
EndSplineSet
EndChar

StartChar: cedillacmb
Encoding: 807 807 168
Width: 269
VWidth: 530
Flags: HMW
HStem: -90 90<30 60>
LayerCount: 2
Fore
SplineSet
30 0 m 1
 75 0 l 2
 85 0 94 -3 102 -9 c 2
 124 -25 l 1
 134 -10 l 1
 72 36 l 1
 162 81 l 1
 222 36 l 2
 231 29 237 19 239 8 c 0
 240 5 240 3 240 0 c 0
 240 -9 237 -18 232 -25 c 2
 172 -115 l 2
 166 -125 155 -132 143 -134 c 4
 140 -135 138 -135 135 -135 c 0
 125 -135 116 -132 108 -126 c 2
 60 -90 l 1
 30 -90 l 1
 30 0 l 1
EndSplineSet
LCarets2: 2 -45 -45 
EndChar

StartChar: ogonekcmb
Encoding: 808 808 358
Width: 269
VWidth: 530
Flags: W
HStem: -135 216 -20 20G<190 240>
VStem: 30 210<-9 0>
LayerCount: 2
Fore
SplineSet
30 0 m 0x60
 30 3 30 5 31 8 c 0
 33 19 39 29 48 36 c 2
 108 81 l 1xa0
 198 36 l 1
 136 -10 l 1
 146 -25 l 1
 168 -9 l 2
 176 -3 185 0 195 0 c 2
 240 0 l 1x60
 240 -90 l 1
 210 -90 l 1
 162 -126 l 2
 154 -132 145 -135 135 -135 c 0xa0
 132 -135 130 -135 127 -134 c 0
 115 -132 104 -125 98 -115 c 2
 38 -25 l 2
 33 -18 30 -9 30 0 c 0x60
EndSplineSet
EndChar

StartChar: pi
Encoding: 960 960 584
Width: 480
VWidth: 0
Flags: MW
HStem: 0 90<45 75 405 435> 405 90<45 75 165 315 405 435>
VStem: 75 90<90 405> 315 90<90 405>
LayerCount: 2
Fore
SplineSet
45 0 m 1
 45 90 l 1
 75 90 l 1
 75 405 l 1
 45 405 l 1
 45 495 l 1
 435 495 l 1
 435 405 l 1
 405 405 l 1
 405 90 l 1
 435 90 l 1
 435 0 l 1
 360 0 l 2
 348 0 336 5 328 13 c 0
 320 21 315 33 315 45 c 2
 315 405 l 1
 165 405 l 1
 165 45 l 2
 165 33 160 21 152 13 c 0
 144 5 132 0 120 0 c 2
 45 0 l 1
EndSplineSet
EndChar

StartChar: Eszett
Encoding: 7838 7838 106
Width: 630
VWidth: 909
Flags: W
HStem: -180 90<255 358.766> 0 21G<45 126> 790 20G<295.5 306>
VStem: 75 90<90 647> 465 90<72.2552 335.283>
LayerCount: 2
Fore
SplineSet
45 0 m 1
 45 90 l 1
 75 90 l 1
 75 675 l 2
 75 683 78 692 82 699 c 0
 86 706 93 711 100 715 c 2
 280 805 l 2
 286 808 292 810 299 810 c 2
 300 810 l 2
 312 810 324 805 332 797 c 2
 512 617 l 2
 520 609 525 597 525 585 c 0
 525 574 521 563 514 555 c 2
 441 474 l 1
 467 459 490 437 506 412 c 0
 541 357 555 287 555 214 c 0
 555 205 554 195 554 186 c 0
 550 102 528 16 488 -54 c 0
 448 -124 383 -180 300 -180 c 2
 255 -180 l 1
 255 -90 l 1
 300 -90 l 2
 343 -90 379 -62 410 -9 c 0
 441 44 461 119 464 190 c 0
 464 197 465 203 465 210 c 0
 465 272 452 330 430 364 c 0
 412 393 393 405 360 405 c 0
 351 405 343 407 336 412 c 0
 329 417 323 424 319 432 c 0
 315 440 315 448 316 457 c 0
 317 466 320 474 326 480 c 2
 418 583 l 1
 291 710 l 1
 165 647 l 1
 165 45 l 2
 165 33 160 21 152 13 c 0
 144 5 132 0 120 0 c 2
 45 0 l 1
EndSplineSet
Substitution2: "'ss01' Antiqua-Versalien-1" Eszett.antiqua
EndChar

StartChar: endash
Encoding: 8211 8211 145
Width: 510
VWidth: 941
Flags: W
HStem: 315 90<45 465>
LayerCount: 2
Fore
SplineSet
45 315 m 1
 45 405 l 1
 465 405 l 1
 465 315 l 1
 45 315 l 1
EndSplineSet
EndChar

StartChar: emdash
Encoding: 8212 8212 146
Width: 930
VWidth: 941
Flags: W
HStem: 315 90<45 885>
LayerCount: 2
Fore
SplineSet
45 315 m 1
 45 405 l 1
 885 405 l 1
 885 315 l 5
 45 315 l 1
EndSplineSet
EndChar

StartChar: quoteleft
Encoding: 8216 8216 361
Width: 240
VWidth: 1076
Flags: W
HStem: 540 270<81.4806 158.519>
VStem: 45 120<720 803.519>
LayerCount: 2
Fore
SplineSet
45 720 m 1
 45 810 l 1
 120 810 l 2
 145 810 165 790 165 765 c 2
 165 630 l 1
 195 630 l 1
 195 540 l 1
 120 540 l 2
 95 540 75 560 75 585 c 2
 75 720 l 1
 45 720 l 1
EndSplineSet
EndChar

StartChar: quotedblleft
Encoding: 8220 8220 365
Width: 420
VWidth: 1076
Flags: MW
HStem: 540 90<165 195 345 375> 720 90<45 75 225 255>
VStem: 75 90<630 720> 255 90<630 720>
LayerCount: 2
Fore
SplineSet
45 720 m 1
 45 810 l 1
 120 810 l 2
 145 810 165 790 165 765 c 2
 165 630 l 1
 195 630 l 1
 195 540 l 1
 120 540 l 2
 95 540 75 560 75 585 c 2
 75 720 l 1
 45 720 l 1
225 720 m 1
 225 810 l 1
 300 810 l 2
 325 810 345 790 345 765 c 2
 345 630 l 1
 375 630 l 1
 375 540 l 1
 300 540 l 2
 275 540 255 560 255 585 c 2
 255 720 l 1
 225 720 l 1
EndSplineSet
EndChar

StartChar: quotedblbase
Encoding: 8222 8222 129
Width: 405
VWidth: 1076
Flags: W
HStem: -90 90<45 75 210 240> 90 90<165 195 330 360>
VStem: 75 120<90 173.519> 240 120<90 173.519>
LayerCount: 2
Fore
SplineSet
45 0 m 1
 75 0 l 1
 75 135 l 2
 75 160 95 180 120 180 c 2
 150 180 l 1
 195 180 l 1
 195 90 l 1
 165 90 l 1
 165 -45 l 2
 165 -70 145 -90 120 -90 c 2
 90 -90 l 1
 45 -90 l 1
 45 0 l 1
210 0 m 1
 240 0 l 1
 240 135 l 2
 240 160 260 180 285 180 c 2
 315 180 l 1
 360 180 l 1
 360 90 l 1
 330 90 l 1
 330 -45 l 2
 330 -70 310 -90 285 -90 c 2
 255 -90 l 1
 210 -90 l 1
 210 0 l 1
EndSplineSet
EndChar

StartChar: dagger
Encoding: 8224 8224 161
Width: 510
VWidth: 530
Flags: W
HStem: -180 21G<195 276> 450 90<75 225 315 465> 790 20G<264 345>
VStem: 225 120<720 796.622> 225 90<-90 450 540 720>
LayerCount: 2
Fore
SplineSet
75 450 m 1xe8
 75 540 l 1
 225 540 l 1xe8
 225 765 l 2
 225 777 230 789 238 797 c 0
 246 805 258 810 270 810 c 2
 345 810 l 1
 345 720 l 1xf0
 315 720 l 1
 315 540 l 1
 465 540 l 1
 465 450 l 1
 315 450 l 1
 315 -135 l 2
 315 -147 310 -159 302 -167 c 0
 294 -175 282 -180 270 -180 c 2
 195 -180 l 1
 195 -90 l 1
 225 -90 l 1
 225 450 l 1
 75 450 l 1xe8
EndSplineSet
EndChar

StartChar: daggerdbl
Encoding: 8225 8225 162
Width: 510
VWidth: 530
Flags: W
HStem: -180 21G<195 276> 120 90<75 225 315 465> 450 90<75 225 315 465> 790 20G<264 345>
VStem: 225 120<720 796.622> 225 90<-90 120 210 450 540 720>
LayerCount: 2
Fore
SplineSet
75 120 m 1xf4
 75 210 l 1
 225 210 l 1
 225 450 l 1
 75 450 l 1
 75 540 l 1
 225 540 l 1xf4
 225 765 l 2
 225 777 230 789 238 797 c 0
 246 805 258 810 270 810 c 2
 345 810 l 1
 345 720 l 1xf8
 315 720 l 1
 315 540 l 1
 465 540 l 1
 465 450 l 1
 315 450 l 1
 315 210 l 1
 465 210 l 1
 465 120 l 1
 315 120 l 1
 315 -135 l 2
 315 -147 310 -159 302 -167 c 0
 294 -175 282 -180 270 -180 c 2
 195 -180 l 1
 195 -90 l 1
 225 -90 l 1
 225 120 l 1
 75 120 l 1xf4
EndSplineSet
EndChar

StartChar: bullet
Encoding: 8226 8226 368
Width: 465
VWidth: 180
Flags: MW
DStem2: 74 392 169 360 0.707107 0.707107<44.5477 135.057> 169 360 74 328 0.707107 -0.707107<0 90.5097> 265 519 233 424 0.707107 -0.707107<44.5477 134.35> 233 296 265 201 0.707107 0.707107<0 89.8026>
LayerCount: 2
Fore
SplineSet
60 360 m 0
 60 370 67 385 74 392 c 2
 201 519 l 2
 208 526 222 532 232 532 c 2
 233 532 l 2
 243 532 258 526 265 519 c 2
 392 392 l 2
 399 385 405 370 405 360 c 0
 405 350 399 335 392 328 c 2
 265 201 l 2
 258 194 243 188 233 188 c 0
 223 188 208 194 201 201 c 6
 74 328 l 6
 67 335 60 350 60 360 c 0
169 360 m 5
 233 296 l 5
 296 360 l 1
 233 424 l 1
 169 360 l 5
EndSplineSet
EndChar

StartChar: trianglebullet
Encoding: 8227 8227 369
Width: 465
VWidth: 180
Flags: MW
VStem: 90 90<307 413>
DStem2: 159 533 180 413 0.841178 -0.540758<82.5557 180.192> 180 307 159 187 0.841178 0.540758<0 97.6368>
LayerCount: 2
Fore
SplineSet
90 225 m 2
 90 495 l 2
 90 519 110 539 134 540 c 1
 135 540 l 2
 142 540 153 537 159 533 c 6
 369 398 l 6
 380 391 390 374 390 360 c 0
 390 343 380 329 369 322 c 2
 159 187 l 2
 153 183 142 180 135 180 c 0
 110 180 90 200 90 225 c 2
180 307 m 1
 262 360 l 5
 180 413 l 5
 180 307 l 1
EndSplineSet
EndChar

StartChar: guilsinglleft
Encoding: 8249 8249 377
Width: 270
VWidth: 0
Flags: MW
HStem: 45 90<208 225> 405 90<208 225>
DStem2: 50 290 140 270 0.447214 0.894427<22.3607 173.519> 140 270 50 250 0.447214 -0.894427<0 151.158>
LayerCount: 2
Fore
SplineSet
45 270 m 0
 45 277 47 284 50 290 c 2
 140 470 l 2
 144 477 149 484 156 488 c 0
 163 492 172 495 180 495 c 2
 225 495 l 1
 225 405 l 1
 208 405 l 1
 140 270 l 1
 208 135 l 1
 225 135 l 5
 225 45 l 5
 180 45 l 2
 172 45 163 48 156 52 c 0
 149 56 144 63 140 70 c 2
 50 250 l 2
 47 256 45 263 45 270 c 0
EndSplineSet
EndChar

StartChar: guilsinglright
Encoding: 8250 8250 378
Width: 270
VWidth: 0
Flags: MW
HStem: 45 90<45 62> 405 90<45 62>
DStem2: 130 470 62 405 0.447214 -0.894427<27.7272 178.885> 62 135 130 70 0.447214 0.894427<0 151.158>
LayerCount: 2
Fore
SplineSet
45 45 m 5
 45 135 l 5
 62 135 l 1
 130 270 l 1
 62 405 l 1
 45 405 l 1
 45 495 l 1
 90 495 l 2
 98 495 107 492 114 488 c 0
 121 484 126 477 130 470 c 2
 220 290 l 2
 223 284 225 277 225 270 c 0
 225 263 223 256 220 250 c 2
 130 70 l 2
 126 63 121 56 114 52 c 0
 107 48 98 45 90 45 c 2
 45 45 l 5
EndSplineSet
EndChar

StartChar: interrobang
Encoding: 8253 8253 380
Width: 525
VWidth: 0
Flags: W
HStem: 675 90<45 109.625> 790 20G<253 259>
VStem: 195 90<270 422 523 697> 375 90<568 648>
LayerCount: 2
Fore
SplineSet
45 675 m 1
 45 765 l 1
 84 765 l 1
 243 808 l 2
 247 809 251 810 255 810 c 0
 263 810 270 809 277 805 c 2
 442 715 l 2
 449 711 455 705 459 698 c 0
 463 691 465 683 465 675 c 2
 465 540 l 2
 465 532 462 523 458 516 c 0
 454 509 447 504 440 500 c 2
 285 422 l 1
 285 270 l 1
 315 270 l 1
 315 180 l 1
 240 180 l 2
 229 180 219 184 211 191 c 0
 210 192 209 192 208 193 c 0
 200 201 195 213 195 225 c 2
 195 702 l 1
 102 677 l 2
 98 676 94 675 90 675 c 2
 45 675 l 1
180 45 m 1
 255 120 l 1
 330 45 l 1
 255 -30 l 1
 180 45 l 1
285 523 m 1
 375 568 l 1
 375 648 l 1
 285 697 l 1
 285 523 l 1
EndSplineSet
EndChar

StartChar: question_question
Encoding: 8263 8263 566
Width: 855
VWidth: 0
Flags: W
HStem: 180 90<285 315 615 645> 675 90<45 102.23 555.764 591.128> 790 20G<253 259>
VStem: 195 90<270 422> 375 90<568 641> 525 90<270 377> 705 90<523 603>
LayerCount: 2
Fore
SplineSet
45 675 m 1
 45 765 l 1
 84 765 l 1
 243 808 l 2
 247 809 251 810 255 810 c 0
 263 810 270 809 277 805 c 2
 426 723 l 1
 573 763 l 2
 577 764 581 765 585 765 c 0
 593 765 600 764 607 760 c 2
 772 670 l 2
 779 666 785 660 789 653 c 0
 793 646 795 638 795 630 c 2
 795 495 l 2
 795 487 792 478 788 471 c 0
 784 464 777 459 770 455 c 2
 615 377 l 1
 615 270 l 1
 645 270 l 1
 645 180 l 1
 570 180 l 2
 558 180 546 185 538 193 c 0
 530 201 525 213 525 225 c 2
 525 405 l 2
 525 413 528 422 532 429 c 0
 536 436 543 441 550 445 c 2
 705 523 l 1
 705 603 l 1
 579 672 l 1
 465 641 l 1
 465 540 l 2
 465 532 462 523 458 516 c 0
 454 509 447 504 440 500 c 2
 285 422 l 1
 285 270 l 1
 315 270 l 1
 315 180 l 1
 240 180 l 2
 228 180 216 185 208 193 c 0
 200 201 195 213 195 225 c 2
 195 450 l 2
 195 458 198 467 202 474 c 0
 206 481 213 486 220 490 c 2
 375 568 l 1
 375 630 l 1
 375 648 l 1
 249 717 l 1
 102 677 l 2
 98 676 94 675 90 675 c 2
 45 675 l 1
180 45 m 1
 255 120 l 1
 330 45 l 1
 255 -30 l 1
 180 45 l 1
510 45 m 1
 585 120 l 1
 660 45 l 1
 585 -30 l 1
 510 45 l 1
EndSplineSet
Ligature2: "'liga' Ligaturen-1" question question
LCarets2: 1 0 
Ligature2: "'liga' Ligaturen-1" question question
EndChar

StartChar: four.superior
Encoding: 8308 8308 459
Width: 480
VWidth: 0
Flags: MW
HStem: 390 90<375 405> 480 90<165 285>
VStem: 285 90<570 675>
DStem2: 93 644 165 585 0.800914 0.598779<22.3379 172.338>
LayerCount: 2
Fore
SplineSet
75 525 m 2
 75 608 l 2
 75 622 82 636 93 644 c 2
 303 801 l 2
 310 807 320 810 329 810 c 2
 330 810 l 2
 342 810 353 805 361 797 c 0
 370 789 375 777 375 765 c 2
 375 480 l 1
 405 480 l 5
 405 390 l 5
 330 390 l 2
 318 390 306 395 298 403 c 0
 290 411 285 423 285 435 c 2
 285 480 l 1
 120 480 l 2
 108 480 96 485 88 493 c 0
 80 501 75 513 75 525 c 2
165 570 m 1
 285 570 l 1
 285 675 l 1
 165 585 l 1
 165 570 l 1
EndSplineSet
EndChar

StartChar: five.superior
Encoding: 8309 8309 460
Width: 480
VWidth: 0
Flags: W
HStem: 720 90<175 405>
LayerCount: 2
Fore
SplineSet
75 480 m 5
 75 570 l 5
 120 570 l 6
 130 570 139 567 147 561 c 6
 240 491 l 5
 285 525 l 5
 93 669 l 6
 82 677 75 691 75 705 c 6
 75 765 l 6
 75 777 80 789 88 797 c 4
 96 805 108 810 120 810 c 6
 405 810 l 5
 405 720 l 5
 175 720 l 5
 387 561 l 6
 398 553 405 539 405 525 c 4
 405 511 398 497 387 489 c 6
 267 399 l 6
 259 393 250 390 240 390 c 4
 230 390 221 393 213 399 c 6
 105 480 l 5
 75 480 l 5
EndSplineSet
EndChar

StartChar: six.superior
Encoding: 8310 8310 461
Width: 480
VWidth: 0
Flags: W
HStem: 790 20G<235 246.5>
VStem: 75 90<615 652>
LayerCount: 2
Fore
SplineSet
75 525 m 2
 75 675 l 2
 75 689 82 703 93 711 c 2
 213 801 l 2
 221 807 230 810 240 810 c 2
 242 810 l 2
 251 810 260 806 267 801 c 2
 375 720 l 1
 405 720 l 1
 405 630 l 1
 360 630 l 2
 350 630 341 633 333 639 c 2
 240 709 l 1
 165 652 l 1
 165 615 l 1
 213 651 l 2
 221 657 232 660 242 660 c 0
 251 660 260 656 267 651 c 2
 387 561 l 2
 398 553 405 539 405 525 c 0
 405 511 398 497 387 489 c 2
 267 399 l 2
 259 393 250 390 240 390 c 0
 230 390 221 393 213 399 c 2
 93 489 l 2
 82 497 75 511 75 525 c 2
195 525 m 1
 240 491 l 1
 285 525 l 1
 240 559 l 1
 195 525 l 1
EndSplineSet
EndChar

StartChar: seven.superior
Encoding: 8311 8311 462
Width: 479
VWidth: 0
Flags: W
HStem: 720 90<75 290>
VStem: 75 330<721.062 803.238> 165 135<396.762 480>
LayerCount: 2
Fore
SplineSet
75 720 m 5xc0
 75 810 l 5
 360 810 l 6
 367 810 375 808 382 804 c 4
 389 800 394 795 398 789 c 4
 403 782 405 774 405 765 c 0xc0
 405 759 404 752 401 746 c 6
 280 480 l 5
 300 480 l 5
 300 390 l 5
 255 390 l 5
 210 390 l 6
 203 390 195 392 188 396 c 4
 181 400 176 405 172 411 c 4
 168 417 166 425 165 432 c 4xa0
 164 439 166 447 169 454 c 6
 290 720 l 5
 75 720 l 5xc0
EndSplineSet
EndChar

StartChar: eight.superior
Encoding: 8312 8312 463
Width: 480
VWidth: 0
Flags: W
HStem: 789 20G<235 246.5>
LayerCount: 2
Fore
SplineSet
75 524 m 4
 75 538 82 552 93 560 c 6
 145 599 l 5
 93 638 l 6
 82 646 75 660 75 674 c 4
 75 688 82 702 93 710 c 6
 213 800 l 6
 221 806 230 809 240 809 c 6
 242 809 l 6
 251 809 260 805 267 800 c 6
 387 710 l 6
 398 702 405 688 405 674 c 4
 405 660 398 646 387 638 c 6
 335 599 l 5
 387 560 l 6
 398 552 405 538 405 524 c 4
 405 510 398 496 387 488 c 6
 267 398 l 6
 259 392 250 389 240 389 c 4
 230 389 221 392 213 398 c 6
 93 488 l 6
 82 496 75 510 75 524 c 4
195 524 m 5
 240 490 l 5
 285 524 l 5
 240 558 l 5
 195 524 l 5
195 674 m 5
 240 640 l 5
 285 674 l 5
 240 708 l 5
 195 674 l 5
EndSplineSet
EndChar

StartChar: nine.superior
Encoding: 8313 8313 464
Width: 480
VWidth: 0
Flags: MW
HStem: 480 90<75 105>
VStem: 315 90<548 585>
DStem2: 195 675 93 639 0.8 -0.6<0 56.4> 147 561 105 480 0.8 -0.6<15 116.4> 240 491 267 399 0.8 0.6<0 94.2>
LayerCount: 2
Fore
SplineSet
75 480 m 1
 75 570 l 1
 120 570 l 2
 130 570 139 567 147 561 c 6
 240 491 l 5
 315 548 l 1
 315 585 l 1
 267 549 l 2
 259 543 248 540 238 540 c 0
 229 540 220 544 213 549 c 2
 93 639 l 2
 82 647 75 661 75 675 c 0
 75 689 82 703 93 711 c 2
 213 801 l 2
 221 807 230 810 240 810 c 0
 250 810 259 807 267 801 c 2
 387 711 l 2
 398 703 405 689 405 675 c 2
 405 525 l 2
 405 511 398 497 387 489 c 2
 267 399 l 2
 259 393 250 390 240 390 c 2
 238 390 l 2
 229 390 220 394 213 399 c 6
 105 480 l 5
 75 480 l 1
195 675 m 1
 240 641 l 1
 285 675 l 1
 240 709 l 1
 195 675 l 1
EndSplineSet
EndChar

StartChar: litre
Encoding: 8467 8467 386
Width: 405
VWidth: 0
Flags: W
HStem: 0 21G<235 285> 405 90<45 75 165 171> 720 90<165 210>
VStem: 75 90<158 405 495 720> 240 90<599 698>
LayerCount: 2
Fore
SplineSet
45 405 m 1
 45 495 l 1
 75 495 l 1
 75 765 l 2
 75 777 80 789 88 797 c 0
 96 805 108 810 120 810 c 2
 225 810 l 2
 235 810 244 807 252 801 c 2
 312 756 l 2
 323 748 330 734 330 720 c 2
 330 585 l 2
 330 576 327 567 322 560 c 2
 232 425 l 2
 224 413 210 405 195 405 c 2
 165 405 l 1
 165 158 l 1
 255 90 l 1
 285 90 l 1
 285 0 l 1
 240 0 l 2
 230 0 221 3 213 9 c 2
 93 99 l 2
 82 107 75 121 75 135 c 2
 75 405 l 1
 45 405 l 1
165 495 m 1
 171 495 l 1
 240 599 l 1
 240 698 l 1
 210 720 l 1
 165 720 l 1
 165 495 l 1
EndSplineSet
EndChar

StartChar: numero
Encoding: 8470 8470 387
Width: 1020
VWidth: 0
Flags: W
HStem: 0 90<45 75 525 555> 120 90<615 945> 720 90<45 75 525 555>
VStem: 75 90<90 574> 435 120<720 796.622> 435 90<236 720> 615 90<413 518> 855 90<413 518>
LayerCount: 2
Fore
SplineSet
45 0 m 1xfb
 45 90 l 1
 75 90 l 1
 75 720 l 1
 45 720 l 1
 45 810 l 1
 120 810 l 2
 128 810 137 807 144 803 c 0
 151 799 156 792 160 785 c 2
 435 236 l 1xf7
 435 765 l 2
 435 777 440 789 448 797 c 0
 456 805 468 810 480 810 c 2
 555 810 l 1
 555 720 l 1xfb
 525 720 l 1
 525 90 l 1xf7
 555 90 l 1
 555 0 l 1
 480 0 l 2
 472 0 463 3 456 7 c 0
 449 11 444 18 440 25 c 2
 165 574 l 1
 165 45 l 2
 165 33 160 21 152 13 c 0
 144 5 132 0 120 0 c 2
 45 0 l 1xfb
615 120 m 1
 615 210 l 1
 945 210 l 1
 945 120 l 1
 615 120 l 1
615 390 m 2
 615 540 l 2
 615 552 623 569 633 576 c 2
 753 666 l 2
 760 671 772 675 780 675 c 2
 782 675 l 2
 790 675 801 671 807 666 c 2
 927 576 l 2
 937 569 945 552 945 540 c 2
 945 390 l 2
 945 378 937 361 927 354 c 2
 807 264 l 2
 800 259 788 255 780 255 c 0
 772 255 760 259 753 264 c 2
 633 354 l 2
 623 361 615 378 615 390 c 2
705 413 m 1
 780 356 l 1
 855 413 l 1
 855 518 l 1
 780 574 l 1
 705 518 l 1
 705 413 l 1
EndSplineSet
EndChar

StartChar: circleP
Encoding: 8471 8471 122
Width: 889
VWidth: 528
Flags: MW
HStem: 40 86<340.858 549.024> 188 90<317 335> 505 90<317 335> 684 86<340.858 549.024>
VStem: 75 94<299.458 510.542> 335 90<382 501> 481 90<382 501> 720 94<299.458 510.542>
LayerCount: 2
Fore
SplineSet
75 405 m 0
 75 604 239 770 445 770 c 0
 651 770 814 604 814 405 c 0
 814 206 651 40 445 40 c 0
 239 40 75 206 75 405 c 0
169 405 m 0
 169 248 295 126 445 126 c 0
 595 126 720 248 720 405 c 0
 720 562 595 684 445 684 c 0
 295 684 169 562 169 405 c 0
335 505 m 1
 317 505 l 1
 317 595 l 1
 362 595 l 1
 380 595 l 2
 385 595 393 594 397 592 c 1
 426 614 l 2
 433 619 445 623 453 623 c 0
 454 623 452 622.999 453 622.999 c 0
 461 622.999 474 619 480 614 c 2
 553 559 l 2
 563 552 571 535 571 523 c 2
 571 360 l 2
 571 348 563 331 553 324 c 2
 480 269 l 2
 473 264 461 260 453 260 c 0
 445 260 433 264 426 269 c 1
 425 270 l 1
 425 260 l 1
 425 232 l 2
 425 207 405 188 380 188 c 2
 362 188 l 1
 317 188 l 1
 317 278 l 1
 335 278 l 1
 335 505 l 1
425 382 m 1
 453 361 l 1
 481 382 l 1
 481 501 l 1
 453 521 l 1
 425 501 l 1
 425 382 l 1
EndSplineSet
EndChar

StartChar: servicemark
Encoding: 8480 8480 119
Width: 1155
VWidth: 1074
Flags: W
HStem: 270 90<480 510 840 870 1080 1110> 315 90<75 112> 495 90<173.337 334.953> 675 90<398 435 480 510> 790 20G<267 271 670 681.5 910 920>
VStem: 75 90<587.257 698> 345 90<382 486.948> 510 90<360 652> 750 90<360 652> 990 90<360 652>
LayerCount: 2
Fore
SplineSet
74 650 m 0x7fc0
 74 674 75 702 75 735 c 0
 75 745 78 756 85 764 c 0
 92 772 101 777 111 779 c 2
 261 809 l 2
 263 809 266 810 268 810 c 0
 274 810 280 809 286 807 c 2
 398 765 l 1
 435 765 l 1
 435 675 l 1
 390 675 l 2
 385 675 379 676 374 678 c 2
 266 718 l 1
 165 698 l 1
 166 628 172 592 173 587 c 1
 180 586 199 585 225 585 c 2
 242 585 l 2
 275 585 302 585 326 582 c 0
 354 578 384 568 404 545 c 0
 424 522 429 493 432 462 c 0
 435 434 435 400 435 358 c 2
 435 345 l 2
 435 335 432 324 425 316 c 0
 418 308 409 303 399 301 c 2
 249 271 l 2
 246 270 243 270 240 270 c 0xbfc0
 235 270 229 271 224 273 c 2
 112 315 l 1
 75 315 l 1
 75 405 l 1
 120 405 l 2
 125 405 131 404 136 402 c 2
 244 362 l 1
 345 382 l 1
 345 411 345 437 343 454 c 0
 341 478 336 486 335 487 c 0
 334 488 333 490 315 492 c 0
 297 494 266 495 225 495 c 2
 209 495 l 2
 190 495 173 495 155 499 c 0
 132 504 105 520 93 543 c 0
 77 574 74 604 74 650 c 0x7fc0
480 270 m 1
 480 360 l 1
 510 360 l 1
 510 675 l 1
 480 675 l 1
 480 765 l 1
 555 765 l 2
 566 765 577 761 585 754 c 1
 648 801 l 2
 656 807 665 810 675 810 c 2
 677 810 l 2
 686 810 695 806 702 801 c 2
 795 731 l 1
 888 801 l 2
 896 807 905 810 915 810 c 0
 925 810 934 807 942 801 c 2
 1062 711 l 2
 1073 703 1080 689 1080 675 c 2
 1080 360 l 1
 1110 360 l 1
 1110 270 l 1
 1035 270 l 2xbfc0
 1023 270 1011 275 1003 283 c 0
 995 291 990 303 990 315 c 2x7fc0
 990 652 l 1
 915 709 l 1
 840 652 l 1
 840 360 l 1
 870 360 l 1
 870 270 l 1
 795 270 l 2xbfc0
 783 270 771 275 763 283 c 0
 755 291 750 303 750 315 c 2
 750 652 l 1
 675 709 l 1
 600 652 l 1
 600 315 l 2x7fc0
 600 303 595 291 587 283 c 0
 579 275 567 270 555 270 c 2
 480 270 l 1
EndSplineSet
EndChar

StartChar: trademark
Encoding: 8482 8482 118
Width: 1155
VWidth: 1074
Flags: W
HStem: 270 90<187.446 292.242 480 510 840 870 1080 1110> 300 90<368.519 435> 675 90<45 102 194.93 435 480 510> 790 20G<670 681.5 910 920>
VStem: 75 90<382.604 641.753> 510 90<360 652> 750 90<360 652> 990 90<360 652>
LayerCount: 2
Fore
SplineSet
45 675 m 1xbf
 45 765 l 1
 435 765 l 1
 435 675 l 1
 235 675 l 1
 213 666 200 661 190 648 c 0
 179 633 165 599 165 518 c 0
 165 435 177 394 188 380 c 0
 199 367 217 360 265 360 c 1xbf
 379 389 l 2
 383 390 386 390 390 390 c 2
 435 390 l 1
 435 300 l 1
 396 300 l 1x7f
 281 271 l 2
 277 270 274 270 270 270 c 0
 210 270 154 279 118 323 c 0
 82 367 75 428 75 518 c 0
 75 589 84 639 102 675 c 1
 45 675 l 1xbf
480 270 m 1
 480 360 l 1
 510 360 l 1
 510 675 l 1
 480 675 l 1
 480 765 l 1
 555 765 l 2
 566 765 577 761 585 754 c 1
 648 801 l 2
 656 807 665 810 675 810 c 2
 677 810 l 2
 686 810 695 806 702 801 c 2
 795 731 l 1
 888 801 l 2
 896 807 905 810 915 810 c 0
 925 810 934 807 942 801 c 2
 1062 711 l 2
 1073 703 1080 689 1080 675 c 2
 1080 360 l 1
 1110 360 l 1
 1110 270 l 1
 1035 270 l 2
 1023 270 1011 275 1003 283 c 0
 995 291 990 303 990 315 c 2
 990 652 l 1
 915 709 l 1
 840 652 l 1
 840 360 l 1
 870 360 l 1
 870 270 l 1
 795 270 l 2
 783 270 771 275 763 283 c 0
 755 291 750 303 750 315 c 2
 750 652 l 1
 675 709 l 1
 600 652 l 1
 600 315 l 2
 600 303 595 291 587 283 c 0
 579 275 567 270 555 270 c 2
 480 270 l 1
EndSplineSet
EndChar

StartChar: twothirds
Encoding: 8532 8532 413
Width: 959
VWidth: 955
Flags: W
HStem: 0 90<255 287> 390 90<175 405> 400 20<715 726.5> 720 90<703 735> 790 20<235 246.5>
LayerCount: 2
Fore
SplineSet
255 0 m 1x90
 255 90 l 1
 287 90 l 1
 635 785 l 2
 639 792 644 799 651 803 c 0
 658 807 667 810 675 810 c 2x88
 735 810 l 1
 735 720 l 1
 703 720 l 1
 355 25 l 2
 351 18 346 11 339 7 c 0
 332 3 323 0 315 0 c 2
 255 0 l 1x90
EndSplineSet
Refer: 224 178 N 1 0 0 1 0 0 2
Refer: 225 179 N 1 0 0 1 480 -390 2
EndChar

StartChar: twofifths
Encoding: 8534 8534 415
Width: 1001
VWidth: 955
Flags: W
HStem: 0 90<255 287> 330 90<696 926> 390 90<175 405> 720 90<703 735> 790 20<235 246.5>
LayerCount: 2
Fore
SplineSet
255 0 m 1x90
 255 90 l 1
 287 90 l 1
 635 785 l 2
 639 792 644 799 651 803 c 0
 658 807 667 810 675 810 c 2x88
 735 810 l 1
 735 720 l 1
 703 720 l 1
 355 25 l 2
 351 18 346 11 339 7 c 0
 332 3 323 0 315 0 c 2
 255 0 l 1x90
EndSplineSet
Refer: 224 178 N 1 0 0 1 0 0 2
Refer: 470 8325 N 1 0 0 1 521 180 2
EndChar

StartChar: threefifth
Encoding: 8535 8535 416
Width: 971
VWidth: 955
Flags: W
HStem: 0 90<225 257> 90 90<566 596> 330 90<666 896> 480 90<75 105> 630 90<75 105> 720 90<673 705>
DStem2: 105 720 147 639 0.8 0.6<0 101.4> 147 561 105 480 0.8 -0.6<15 116.4> 257 90 325 25 0.447728 0.89417<0 749.582> 666 330 584 279 0.8 -0.6<0 205> 638 171 596 90 0.8 -0.6<15 116.4>
LayerCount: 2
Fore
SplineSet
225 0 m 1xb4
 225 90 l 1
 257 90 l 1
 605 785 l 2
 609 792 614 799 621 803 c 0
 628 807 637 810 645 810 c 2
 705 810 l 1
 705 720 l 1
 673 720 l 1
 325 25 l 2
 321 18 316 11 309 7 c 0
 302 3 293 0 285 0 c 2
 225 0 l 1xb4
EndSplineSet
Refer: 225 179 N 1 0 0 1 0 0 2
Refer: 470 8325 N 1 0 0 1 491 180 2
EndChar

StartChar: fourfifths
Encoding: 8536 8536 417
Width: 1001
VWidth: 955
Flags: W
HStem: 0 90<255 287> 90 90<596 626> 330 90<696 926> 390 90<375 405> 480 90<165 285> 720 90<703 735>
VStem: 285 90<570 675>
DStem2: 93 644 165 585 0.800914 0.598779<22.3379 172.338> 287 90 355 25 0.447728 0.89417<0 749.582> 696 330 614 279 0.8 -0.6<0 205> 668 171 626 90 0.8 -0.6<15 116.4>
LayerCount: 2
Fore
SplineSet
255 0 m 1x86
 255 90 l 1
 287 90 l 1
 635 785 l 2
 639 792 644 799 651 803 c 0
 658 807 667 810 675 810 c 2
 735 810 l 1
 735 720 l 1
 703 720 l 1
 355 25 l 2
 351 18 346 11 339 7 c 0
 332 3 323 0 315 0 c 2
 255 0 l 1x86
EndSplineSet
Refer: 459 8308 N 1 0 0 1 0 0 2
Refer: 470 8325 N 1 0 0 1 521 180 2
EndChar

StartChar: fivesixths
Encoding: 8538 8538 419
Width: 930
VWidth: 955
Flags: W
HStem: 0 90<225 257> 240 90<825 855> 480 90<75 105> 720 90<175 405 673 705>
VStem: 525 90<225 262>
DStem2: 175 720 93 669 0.8 -0.6<0 205> 147 561 105 480 0.8 -0.6<15 116.4> 257 90 325 25 0.447728 0.89417<0 749.582> 543 321 615 262 0.8 0.6<22.2 116.4> 717 411 690 319 0.8 -0.6<33.6 135> 717 261 690 169 0.8 -0.6<33.6 90>
LayerCount: 2
Fore
SplineSet
225 0 m 1
 225 90 l 1
 257 90 l 1
 605 785 l 2
 609 792 614 799 621 803 c 0
 628 807 637 810 645 810 c 2
 705 810 l 1
 705 720 l 1
 673 720 l 1
 325 25 l 2
 321 18 316 11 309 7 c 0
 302 3 293 0 285 0 c 2
 225 0 l 1
EndSplineSet
Refer: 460 8309 N 1 0 0 1 0 0 2
Refer: 461 8310 N 1 0 0 1 450 -390 2
EndChar

StartChar: threeeighths
Encoding: 8540 8540 421
Width: 930
VWidth: 955
Flags: W
HStem: 0 90<225 257> 480 90<75 105> 630 90<75 105> 720 90<673 705>
DStem2: 105 720 147 639 0.8 0.6<0 101.4> 147 561 105 480 0.8 -0.6<15 116.4> 257 90 325 25 0.447728 0.89417<0 749.582>
LayerCount: 2
Fore
SplineSet
225 0 m 1xd0
 225 90 l 1
 257 90 l 1
 605 785 l 2
 609 792 614 799 621 803 c 0
 628 807 637 810 645 810 c 2
 705 810 l 1
 705 720 l 1
 673 720 l 1
 325 25 l 2
 321 18 316 11 309 7 c 0
 302 3 293 0 285 0 c 2
 225 0 l 1xd0
EndSplineSet
Refer: 225 179 N 1 0 0 1 0 0 2
Refer: 463 8312 N 1 0 0 1 450 -389 2
EndChar

StartChar: seveneighths
Encoding: 8542 8542 423
Width: 915
VWidth: 955
Flags: W
HStem: 0 90<210 242> 390 90<280 300> 720 90<75 290 658 690>
DStem2: 169 454 280 480 0.414061 0.910249<69.6272 292.228> 242 90 310 25 0.447728 0.89417<0 749.582>
LayerCount: 2
Fore
SplineSet
210 0 m 1
 210 90 l 1
 242 90 l 1
 590 785 l 2
 594 792 599 799 606 803 c 0
 613 807 622 810 630 810 c 2
 690 810 l 1
 690 720 l 1
 658 720 l 1
 310 25 l 2
 306 18 301 11 294 7 c 0
 287 3 278 0 270 0 c 2
 210 0 l 1
EndSplineSet
Refer: 462 8311 N 1 0 0 1 0 0 2
Refer: 463 8312 N 1 0 0 1 435 -389 2
EndChar

StartChar: Oneroman
Encoding: 8544 8544 424
Width: 330
VWidth: 0
Flags: W
HStem: 0 90<45 120 210 285> 630 90<45 120 210 285>
VStem: 45 240<0 90 630 720>
LayerCount: 2
Fore
SplineSet
45 0 m 1
 45 90 l 1
 120 90 l 1
 120 630 l 1
 45 630 l 1
 45 720 l 1
 285 720 l 5
 285 630 l 1
 210 630 l 1
 210 90 l 1
 285 90 l 1
 285 0 l 1
 45 0 l 1
EndSplineSet
EndChar

StartChar: Tworoman
Encoding: 8545 8545 425
Width: 570
VWidth: 0
Flags: MW
LayerCount: 2
Fore
SplineSet
45 0 m 1
 45 90 l 1
 120 90 l 1
 120 630 l 1
 45 630 l 1
 45 720 l 1
 525 720 l 5
 525 630 l 1
 450 630 l 1
 450 90 l 1
 525 90 l 1
 525 0 l 1
 45 0 l 1
210 90 m 1
 360 90 l 1
 360 630 l 1
 210 630 l 1
 210 90 l 1
EndSplineSet
EndChar

StartChar: Threeroman
Encoding: 8546 8546 426
Width: 810
VWidth: 0
Flags: MW
LayerCount: 2
Fore
SplineSet
45 0 m 1
 45 90 l 1
 120 90 l 1
 120 630 l 1
 45 630 l 1
 45 720 l 1
 765 720 l 1
 765 630 l 1
 690 630 l 1
 690 90 l 1
 765 90 l 1
 765 0 l 1
 45 0 l 1
210 90 m 1
 360 90 l 1
 360 630 l 1
 210 630 l 1
 210 90 l 1
450 90 m 1
 600 90 l 1
 600 630 l 1
 450 630 l 1
 450 90 l 1
EndSplineSet
EndChar

StartChar: Fourroman
Encoding: 8547 8547 427
Width: 825
VWidth: 0
Flags: MW
LayerCount: 2
Fore
SplineSet
45 0 m 1
 45 90 l 1
 120 90 l 1
 120 630 l 1
 45 630 l 1
 45 720 l 1
 780 720 l 1
 780 630 l 1
 708 630 l 1
 541 90 l 1
 690 90 l 1
 690 0 l 1
 45 0 l 1
210 90 m 1
 419 90 l 1
 252 630 l 1
 210 630 l 1
 210 90 l 1
346 630 m 1
 480 197 l 1
 614 630 l 1
 346 630 l 1
EndSplineSet
EndChar

StartChar: Fiveroman
Encoding: 8548 8548 428
Width: 690
VWidth: 0
Flags: W
HStem: 0 90<135 284 406 555> 630 90<45 117 211 479 573 645>
LayerCount: 2
Fore
SplineSet
45 630 m 5
 45 720 l 5
 645 720 l 5
 645 630 l 5
 573 630 l 5
 406 90 l 5
 555 90 l 5
 555 0 l 5
 135 0 l 5
 135 90 l 5
 284 90 l 5
 117 630 l 5
 45 630 l 5
211 630 m 5
 345 197 l 5
 479 630 l 5
 211 630 l 5
EndSplineSet
EndChar

StartChar: Sixroman
Encoding: 8549 8549 429
Width: 825
VWidth: 0
Flags: W
HStem: 0 90<135 284 406 615 705 780> 630 90<45 117 211 479 573 615 705 780>
VStem: 615 90<90 630>
LayerCount: 2
Fore
SplineSet
45 630 m 1
 45 720 l 1
 780 720 l 1
 780 630 l 5
 705 630 l 1
 705 90 l 1
 780 90 l 1
 780 0 l 1
 135 0 l 1
 135 90 l 1
 284 90 l 1
 117 630 l 1
 45 630 l 1
211 630 m 1
 345 197 l 1
 479 630 l 1
 211 630 l 1
406 90 m 1
 615 90 l 1
 615 630 l 1
 573 630 l 1
 406 90 l 1
EndSplineSet
EndChar

StartChar: Sevenroman
Encoding: 8550 8550 430
Width: 1065
VWidth: 0
Flags: W
HStem: 0 90<135 284 406 615 705 855 945 1020> 630 90<45 117 211 479 573 615 705 855 945 1020>
VStem: 615 90<90 630> 855 90<90 630>
LayerCount: 2
Fore
SplineSet
45 630 m 1
 45 720 l 5
 1020 720 l 1
 1020 630 l 1
 945 630 l 1
 945 90 l 1
 1020 90 l 1
 1020 0 l 1
 135 0 l 1
 135 90 l 1
 284 90 l 1
 117 630 l 1
 45 630 l 1
211 630 m 1
 345 197 l 1
 479 630 l 1
 211 630 l 1
406 90 m 1
 615 90 l 1
 615 630 l 1
 573 630 l 1
 406 90 l 1
705 90 m 1
 855 90 l 1
 855 630 l 1
 705 630 l 1
 705 90 l 1
EndSplineSet
EndChar

StartChar: Eightroman
Encoding: 8551 8551 431
Width: 1305
VWidth: 0
Flags: MW
HStem: 0 90<135 284 406 615 705 855 945 1095 1185 1260> 630 90<45 117 211 479 573 615 705 855 945 1095 1185 1260>
VStem: 615 90<90 630> 855 90<90 630> 1095 90<90 630>
DStem2: 211 630 117 630 0.295453 -0.955357<0 453.26> 345 197 406 90 0.295453 0.955357<0 453.26>
CounterMasks: 1 38
LayerCount: 2
Fore
SplineSet
45 630 m 1
 45 720 l 1
 1260 720 l 1
 1260 630 l 1
 1185 630 l 1
 1185 90 l 1
 1260 90 l 1
 1260 0 l 1
 135 0 l 1
 135 90 l 1
 284 90 l 1
 117 630 l 1
 45 630 l 1
211 630 m 1
 345 197 l 1
 479 630 l 1
 211 630 l 1
406 90 m 1
 615 90 l 1
 615 630 l 1
 573 630 l 1
 406 90 l 1
705 90 m 1
 855 90 l 1
 855 630 l 1
 705 630 l 1
 705 90 l 1
945 90 m 1
 1095 90 l 1
 1095 630 l 1
 945 630 l 1
 945 90 l 1
EndSplineSet
EndChar

StartChar: Nineroman
Encoding: 8552 8552 432
Width: 840
VWidth: 0
Flags: MW
HStem: 0 90<45 120 210 275 381 609 715 795> 630 90<45 120 210 275 381 609 715 795>
VStem: 120 90<90 630>
DStem2: 381 630 275 630 0.526029 -0.850466<0 216.453 362.733 579.187> 275 90 381 90 0.526029 0.850466<55.7591 272.212 418.493 634.946>
LayerCount: 2
Fore
SplineSet
45 0 m 1
 45 90 l 1
 120 90 l 1
 120 630 l 1
 45 630 l 1
 45 720 l 1
 795 720 l 1
 795 630 l 1
 715 630 l 1
 548 360 l 1
 715 90 l 1
 795 90 l 1
 795 0 l 1
 45 0 l 1
210 90 m 1
 275 90 l 1
 442 360 l 1
 275 630 l 1
 210 630 l 1
 210 90 l 1
381 90 m 1
 609 90 l 1
 495 274 l 1
 381 90 l 1
381 630 m 1
 495 446 l 1
 609 630 l 1
 381 630 l 1
EndSplineSet
EndChar

StartChar: Tenroman
Encoding: 8553 8553 433
Width: 690
VWidth: 0
Flags: W
HStem: 0 90<45 125 231 459 565 645> 630 90<45 125 231 459 565 645>
LayerCount: 2
Fore
SplineSet
45 0 m 5
 45 90 l 5
 125 90 l 5
 292 360 l 5
 125 630 l 5
 45 630 l 5
 45 720 l 5
 645 720 l 5
 645 630 l 5
 565 630 l 5
 398 360 l 5
 565 90 l 5
 645 90 l 5
 645 0 l 5
 45 0 l 5
231 90 m 5
 459 90 l 5
 345 274 l 5
 231 90 l 5
231 630 m 5
 345 446 l 5
 459 630 l 5
 231 630 l 5
EndSplineSet
EndChar

StartChar: Elevenroman
Encoding: 8554 8554 434
Width: 840
VWidth: 0
Flags: MW
HStem: 0 90<45 125 231 459 565 630 720 795> 630 90<45 125 231 459 565 630 720 795>
VStem: 630 90<90 630>
DStem2: 231 630 125 630 0.526029 -0.850466<0 216.453 362.733 579.187> 125 90 231 90 0.526029 0.850466<55.7591 272.212 418.493 634.946>
LayerCount: 2
Fore
SplineSet
45 0 m 1
 45 90 l 1
 125 90 l 1
 292 360 l 1
 125 630 l 1
 45 630 l 1
 45 720 l 1
 795 720 l 1
 795 630 l 5
 720 630 l 1
 720 90 l 1
 795 90 l 1
 795 0 l 1
 45 0 l 1
231 90 m 1
 459 90 l 1
 345 274 l 1
 231 90 l 1
231 630 m 1
 345 446 l 1
 459 630 l 1
 231 630 l 1
398 360 m 1
 565 90 l 1
 630 90 l 1
 630 630 l 1
 565 630 l 1
 398 360 l 1
EndSplineSet
EndChar

StartChar: Twelveroman
Encoding: 8555 8555 435
Width: 1080
VWidth: 0
Flags: MW
LayerCount: 2
Fore
SplineSet
45 0 m 5
 45 90 l 1
 125 90 l 1
 292 360 l 1
 125 630 l 1
 45 630 l 1
 45 720 l 1
 1035 720 l 1
 1035 630 l 1
 960 630 l 1
 960 90 l 1
 1035 90 l 1
 1035 0 l 1
 45 0 l 5
231 90 m 1
 459 90 l 1
 345 274 l 1
 231 90 l 1
231 630 m 1
 345 446 l 1
 459 630 l 1
 231 630 l 1
398 360 m 1
 565 90 l 1
 630 90 l 1
 630 630 l 1
 565 630 l 1
 398 360 l 1
720 90 m 1
 870 90 l 1
 870 630 l 1
 720 630 l 1
 720 90 l 1
EndSplineSet
EndChar

StartChar: Fiftyroman
Encoding: 8556 8556 436
Width: 510
VWidth: 0
Flags: MW
LayerCount: 2
Fore
SplineSet
45 0 m 5
 45 90 l 5
 120 90 l 5
 120 630 l 5
 45 630 l 5
 45 720 l 5
 285 720 l 5
 285 630 l 5
 210 630 l 5
 210 90 l 5
 465 90 l 5
 465 0 l 5
 45 0 l 5
EndSplineSet
EndChar

StartChar: Hundredroman
Encoding: 8557 8557 437
Width: 525
VWidth: 0
Flags: MW
LayerCount: 2
Fore
SplineSet
75 360 m 0
 75 472 104 565 167 628 c 0
 230 691 323 720 435 720 c 2
 480 720 l 1
 480 630 l 1
 435 630 l 2
 337 630 273 606 231 564 c 0
 189 522 165 458 165 360 c 0
 165 262 189 198 231 156 c 0
 273 114 337 90 435 90 c 2
 480 90 l 1
 480 0 l 1
 435 0 l 2
 323 0 230 29 167 92 c 0
 104 155 75 248 75 360 c 0
EndSplineSet
EndChar

StartChar: Fivehundredroman
Encoding: 8558 8558 438
Width: 645
VWidth: 0
Flags: MW
LayerCount: 2
Fore
SplineSet
45 0 m 5
 45 90 l 5
 120 90 l 5
 120 630 l 5
 45 630 l 5
 45 720 l 5
 240 720 l 6
 352 720 445 691 508 628 c 4
 571 565 600 472 600 360 c 4
 600 248 571 155 508 92 c 4
 445 29 352 0 240 0 c 6
 45 0 l 5
210 90 m 5
 240 90 l 6
 338 90 402 114 444 156 c 4
 486 198 510 262 510 360 c 4
 510 458 486 522 444 564 c 4
 402 606 338 630 240 630 c 6
 210 630 l 5
 210 90 l 5
EndSplineSet
EndChar

StartChar: Onethousandroman
Encoding: 8559 8559 439
Width: 720
VWidth: 0
Flags: MW
LayerCount: 2
Fore
SplineSet
45 0 m 1
 45 90 l 1
 120 90 l 1
 120 630 l 1
 45 630 l 1
 45 720 l 1
 165 720 l 2
 174 720 183 717 191 712 c 0
 196 708 200 704 203 699 c 2
 360 446 l 1
 517 699 l 2
 519 701 520 703 522 705 c 0
 530 714 543 720 555 720 c 2
 675 720 l 1
 675 630 l 1
 600 630 l 1
 600 90 l 1
 675 90 l 1
 675 0 l 1
 435 0 l 1
 435 90 l 1
 510 90 l 1
 510 517 l 1
 398 336 l 2
 394 330 389 325 382 321 c 0
 375 317 368 315 360 315 c 0
 352 315 345 317 338 321 c 0
 331 325 326 330 322 336 c 2
 210 517 l 1
 210 90 l 1
 285 90 l 1
 285 0 l 1
 45 0 l 1
EndSplineSet
EndChar

StartChar: arrowleft
Encoding: 8592 8592 388
Width: 1080
VWidth: 0
Flags: MW
HStem: 38 90<312 337> 240 90<199 1035> 442 90<312 337>
DStem2: 58 317 199 330 0.708851 0.705359<109.118 268.218> 199 240 58 253 0.708851 -0.705359<0 159.1>
LayerCount: 2
Fore
SplineSet
45 285 m 0
 45 297 50 309 58 317 c 2
 261 519 l 2
 269 527 281 532 293 532 c 2
 337 532 l 1
 337 442 l 1
 312 442 l 1
 199 330 l 1
 1035 330 l 1
 1035 240 l 1
 199 240 l 1
 312 128 l 1
 337 128 l 5
 337 38 l 5
 293 38 l 2
 281 38 269 43 261 51 c 2
 58 253 l 2
 50 261 45 273 45 285 c 0
EndSplineSet
EndChar

StartChar: arrowup
Encoding: 8593 8593 389
Width: 584
VWidth: 0
Flags: MW
VStem: 45 90<518 543> 247 90<-180 656> 449 90<518 543>
DStem2: 58 594 135 543 0.705359 0.708851<18.1612 177.262> 324 797 337 656 0.705359 -0.708851<109.118 268.218>
LayerCount: 2
Fore
SplineSet
292 810 m 0
 304 810 316 805 324 797 c 2
 526 594 l 2
 534 586 539 574 539 562 c 2
 539 518 l 1
 449 518 l 1
 449 543 l 1
 337 656 l 1
 337 -180 l 1
 247 -180 l 1
 247 656 l 1
 135 543 l 1
 135 518 l 5
 45 518 l 5
 45 562 l 2
 45 574 50 586 58 594 c 2
 260 797 l 2
 268 805 280 810 292 810 c 0
EndSplineSet
EndChar

StartChar: arrowdblup
Encoding: 8657 8657 392
Width: 645
VWidth: 0
Flags: MW
LayerCount: 2
Fore
SplineSet
75 518 m 5
 75 562 l 6
 75 574 80 586 88 594 c 6
 291 797 l 6
 299 805 311 810 323 810 c 4
 335 810 346 805 354 797 c 6
 557 594 l 6
 565 586 570 574 570 562 c 6
 570 518 l 5
 480 518 l 5
 480 543 l 5
 435 588 l 5
 435 -180 l 5
 345 -180 l 5
 345 679 l 5
 323 701 l 5
 300 679 l 5
 300 -180 l 5
 210 -180 l 5
 210 588 l 5
 165 543 l 5
 165 518 l 5
 75 518 l 5
EndSplineSet
EndChar

StartChar: arrowdbldown
Encoding: 8659 8659 394
Width: 645
VWidth: 0
Flags: MW
LayerCount: 2
Fore
SplineSet
75 68 m 6
 75 112 l 5
 165 112 l 5
 165 87 l 5
 210 42 l 5
 210 810 l 5
 300 810 l 5
 300 -49 l 5
 323 -71 l 5
 345 -49 l 5
 345 810 l 5
 435 810 l 5
 435 42 l 5
 480 87 l 5
 480 112 l 5
 570 112 l 5
 570 68 l 6
 570 56 565 44 557 36 c 6
 354 -167 l 6
 346 -175 334 -180 322 -180 c 4
 310 -180 299 -175 291 -167 c 6
 88 36 l 6
 80 44 75 56 75 68 c 6
EndSplineSet
EndChar

StartChar: minus
Encoding: 8722 8722 147
Width: 450
VWidth: 1076
Flags: MW
LayerCount: 2
Fore
SplineSet
45 315 m 1
 45 405 l 1
 405 405 l 1
 405 315 l 5
 45 315 l 1
EndSplineSet
EndChar

StartChar: proportional
Encoding: 8733 8733 399
Width: 635
VWidth: 1076
Flags: MW
HStem: 165 90<233 331 547 590> 405 90<233 323 539 590>
DStem2: 84 357 176 330 0.6 0.8<33.6 127.8> 176 330 84 303 0.6 -0.8<0 94.2> 381 477 323 405 0.598845 -0.800865<22.9293 57.2005 147.799 152.33 242.929 277.2>
LayerCount: 2
Fore
SplineSet
75 330 m 0
 75 340 78 349 84 357 c 6
 174 477 l 6
 182 488 196 495 210 495 c 2
 345 495 l 2
 359 495 373 488 381 477 c 2
 415 431 l 1
 500 487 l 2
 507 492 516 495 525 495 c 2
 590 495 l 1
 590 405 l 1
 539 405 l 1
 470 359 l 1
 547 255 l 1
 590 255 l 1
 590 165 l 1
 525 165 l 2
 511 165 497 172 489 183 c 2
 455 229 l 1
 370 173 l 2
 363 168 354 165 345 165 c 2
 210 165 l 2
 196 165 182 172 174 183 c 2
 84 303 l 2
 78 311 75 320 75 330 c 0
176 330 m 5
 233 255 l 1
 331 255 l 1
 400 301 l 1
 323 405 l 1
 233 405 l 5
 176 330 l 5
EndSplineSet
EndChar

StartChar: infinity
Encoding: 8734 8734 396
Width: 840
VWidth: 1076
Flags: W
HStem: 105 90<233 331 547 637> 345 90<233 323 539 637>
LayerCount: 2
Fore
SplineSet
75 270 m 0
 75 280 78 289 84 297 c 2
 174 417 l 2
 182 428 196 435 210 435 c 2
 345 435 l 2
 359 435 373 428 381 417 c 2
 415 371 l 1
 500 427 l 2
 507 432 516 435 525 435 c 2
 660 435 l 2
 674 435 688 428 696 417 c 2
 786 297 l 2
 791 290 795 281 795 272 c 2
 795 270 l 2
 795 260 792 251 786 243 c 2
 696 123 l 2
 688 112 673 105 659 105 c 2
 525 105 l 2
 511 105 497 112 489 123 c 2
 455 169 l 1
 370 113 l 2
 363 108 354 105 345 105 c 2
 210 105 l 2
 196 105 182 112 174 123 c 2
 84 243 l 2
 78 251 75 260 75 270 c 0
176 270 m 1
 233 195 l 1
 331 195 l 1
 400 241 l 1
 323 345 l 1
 233 345 l 1
 176 270 l 1
470 299 m 1
 547 195 l 1
 637 195 l 1
 694 270 l 1
 637 345 l 1
 539 345 l 1
 470 299 l 1
EndSplineSet
EndChar

StartChar: similar
Encoding: 8764 8764 397
Width: 450
VWidth: 545
Flags: MW
HStem: 315 90<45 90 360 405>
DStem2: 192 441 165 349 0.798968 -0.601374<33.7542 116.4>
LayerCount: 2
Fore
SplineSet
45 315 m 1
 45 405 l 1
 90 405 l 1
 138 441 l 2
 146 447 155 450 165 450 c 2
 167 450 l 2
 176 450 185 446 192 441 c 6
 285 371 l 5
 318 396 l 2
 326 402 335 405 345 405 c 2
 405 405 l 1
 405 315 l 1
 360 315 l 1
 312 279 l 2
 304 273 295 270 285 270 c 0
 275 270 266 273 258 279 c 6
 165 349 l 5
 132 324 l 2
 124 318 115 315 105 315 c 2
 45 315 l 1
EndSplineSet
EndChar

StartChar: equivalence
Encoding: 8801 8801 402
Width: 450
VWidth: 1256
Flags: MW
HStem: 135 90<45 405> 315 90<45 405> 495 90<45 405>
CounterMasks: 1 e0
LayerCount: 2
Fore
SplineSet
45 135 m 1
 45 225 l 1
 405 225 l 1
 405 135 l 5
 45 135 l 1
45 315 m 1
 45 405 l 1
 405 405 l 1
 405 315 l 5
 45 315 l 1
45 495 m 1
 45 585 l 5
 405 585 l 1
 405 495 l 1
 45 495 l 1
EndSplineSet
EndChar

StartChar: lessequal
Encoding: 8804 8804 400
Width: 450
VWidth: 1076
Flags: W
HStem: 225 90<45 405> 405 90<239 405>
LayerCount: 2
Fore
SplineSet
45 225 m 5
 45 315 l 5
 405 315 l 5
 405 225 l 5
 45 225 l 5
45 450 m 0
 45 455 46 460 48 465 c 4
 51 474 57 482 65 487 c 6
 372 692 l 5
 422 618 l 5
 239 495 l 5
 405 495 l 5
 405 405 l 5
 90 405 l 6
 80 405 71 408 63 414 c 4
 55 420 50 428 47 437 c 4
 46 441 45 446 45 450 c 0
EndSplineSet
EndChar

StartChar: greaterequal
Encoding: 8805 8805 401
Width: 450
VWidth: 0
Flags: W
HStem: 225 90<45 405> 405 90<45 212>
DStem2: 78 692 28 618 0.831633 -0.555325<0 220.838>
LayerCount: 2
Fore
SplineSet
28 618 m 5
 78 692 l 5
 385 487 l 6
 393 482 400 474 403 465 c 4
 405 460 405 455 405 450 c 0
 405 446 405 441 404 437 c 4
 401 428 395 420 387 414 c 4
 379 408 370 405 360 405 c 6
 45 405 l 5
 45 495 l 5
 212 495 l 5
 28 618 l 5
45 225 m 5
 45 315 l 5
 405 315 l 5
 405 225 l 5
 45 225 l 5
EndSplineSet
EndChar

StartChar: muchless
Encoding: 8810 8810 404
Width: 773
VWidth: 1076
Flags: MW
LayerCount: 2
Fore
SplineSet
45 360 m 0
 45 375 53 389 65 397 c 2
 372 602 l 1
 422 528 l 1
 171 360 l 1
 422 192 l 1
 372 118 l 1
 65 323 l 2
 53 331 45 345 45 360 c 0
368 360 m 0
 368 375 376 389 388 397 c 2
 695 602 l 1
 745 528 l 1
 494 360 l 1
 745 192 l 1
 695 118 l 1
 388 323 l 2
 376 331 368 345 368 360 c 0
EndSplineSet
EndChar

StartChar: muchgreater
Encoding: 8811 8811 403
Width: 773
VWidth: 1076
Flags: W
LayerCount: 2
Fore
SplineSet
45 192 m 1
 296 360 l 1
 45 528 l 1
 95 602 l 1
 402 397 l 2
 414 389 422 375 422 360 c 0
 422 345 414 331 402 323 c 2
 95 118 l 1
 45 192 l 1
368 192 m 1
 619 360 l 1
 368 528 l 1
 418 602 l 1
 725 397 l 2
 737 389 745 375 745 360 c 0
 745 345 737 331 725 323 c 2
 418 118 l 1
 368 192 l 1
EndSplineSet
EndChar

StartChar: perpendicular
Encoding: 8869 8869 405
Width: 810
VWidth: 0
Flags: W
HStem: 0 90<45 360 450 765> 700 20G<360 450>
VStem: 360 90<90 720>
LayerCount: 2
Fore
SplineSet
45 0 m 1
 45 90 l 1
 360 90 l 1
 360 720 l 1
 450 720 l 1
 450 90 l 1
 765 90 l 1
 765 0 l 1
 45 0 l 1
EndSplineSet
EndChar

StartChar: rrot
Encoding: 42843 42843 19
Width: 330
VWidth: 1076
Flags: W
HStem: 0 90<45 89 242 270> 405 90<45 100>
VStem: 45 225<-53 0>
DStem2: 89 90 198 127 0.345705 0.938343<72.4006 245.204>
LayerCount: 2
Fore
SplineSet
45 0 m 1
 45 90 l 1
 89 90 l 1
 174 320 l 1
 100 405 l 1
 45 405 l 1
 45 495 l 1
 120 495 l 2
 133 495 145 489 154 480 c 2
 259 360 l 2
 264 354 268 346 269 338 c 0
 270 335 270 333 270 330 c 0
 270 325 269 319 267 314 c 2
 198 127 l 1
 242 90 l 1
 270 90 l 1
 270 0 l 1
 225 0 l 2
 214 0 204 4 196 11 c 2
 165 37 l 1
 162 29 l 2
 159 21 153 13 146 8 c 0
 138 3 129 0 120 0 c 2
 45 0 l 1
EndSplineSet
EndChar

StartChar: longs_longs_k
Encoding: 57346 57346 181
Width: 930
VWidth: 531
Flags: MW
HStem: -180 90<45 75 285 315> 0 90<735 765> 405 90<45 75 285 315 525 555 735 885> 720 90<495 555>
VStem: 75 90<-90 405 495 622> 315 90<-90 405 495 647> 555 90<158 405 540 608>
DStem2: 93 681 165 622 0.8 0.6<22.2 122.2> 355 728 405 652 0.80196 0.597378<0 107.495> 645 540 735 495 0.8 0.6<45 150> 747 756 720 664 0.8 -0.6<33.6 90>
CounterMasks: 1 0e
LayerCount: 2
Fore
SplineSet
555 720 m 1
 495 720 l 1
 405 652 l 1
 405 -135 l 2
 405 -147 400 -159 392 -167 c 0
 384 -175 372 -180 360 -180 c 2
 285 -180 l 1
 285 -90 l 1
 315 -90 l 1
 315 405 l 1
 285 405 l 1
 285 495 l 1
 315 495 l 1
 315 647 l 1
 245 682 l 1
 165 622 l 1
 165 -135 l 2
 165 -147 160 -159 152 -167 c 0
 144 -175 132 -180 120 -180 c 2
 45 -180 l 1
 45 -90 l 1
 75 -90 l 1
 75 405 l 1
 45 405 l 1
 45 495 l 1
 75 495 l 1
 75 645 l 2
 75 659 82 673 93 681 c 2
 213 771 l 2
 220 776 228 779 236 780 c 0
 244 781 253 779 260 775 c 2
 355 728 l 1
 453 801 l 2
 461 807 470 810 480 810 c 2
 600 810 l 2
 612 810 624 805 632 797 c 0
 640 789 645 777 645 765 c 2
 645 720 l 5
 693 756 l 6
 701 762 710 765 720 765 c 0
 730 765 739 762 747 756 c 2
 867 666 l 2
 878 658 885 644 885 630 c 0
 885 616 878 602 867 594 c 2
 735 495 l 1
 885 495 l 1
 885 405 l 1
 645 405 l 1
 645 158 l 1
 735 90 l 1
 765 90 l 1
 765 0 l 1
 720 0 l 2
 710 0 701 3 693 9 c 2
 573 99 l 2
 562 107 555 121 555 135 c 2
 555 405 l 1
 525 405 l 1
 525 495 l 1
 555 495 l 1
 555 720 l 1
645 540 m 1
 765 630 l 1
 720 664 l 5
 645 608 l 5
 645 540 l 1
EndSplineSet
Ligature2: "'liga' Ligaturen-1" longs longs k
LCarets2: 2 240 480 
EndChar

StartChar: longs_longs_thorn
Encoding: 57347 57347 183
Width: 945
VWidth: 531
Flags: W
HStem: -180 90<45 75 285 315 525 555> 0 21G<715 725> 405 90<45 75 285 315> 520 20G<715 725> 720 90<495 555>
VStem: 45 120<-166.622 -90 405 495> 75 90<-90 405 495 622> 285 120<-166.622 -90 405 495> 315 90<-90 405 495 647> 555 90<-90 45 158 382 495 720> 795 90<158 382>
LayerCount: 2
Fore
SplineSet
45 -90 m 1xfc60
 75 -90 l 1
 75 405 l 1xfa60
 45 405 l 1
 45 495 l 1xfc60
 75 495 l 1
 75 645 l 2
 75 659 82 673 93 681 c 2
 213 771 l 2
 220 776 228 779 236 780 c 0
 244 781 253 779 260 775 c 2
 355 728 l 1
 453 801 l 2
 461 807 470 810 480 810 c 2
 600 810 l 2
 612 810 624 805 632 797 c 0
 640 789 645 777 645 765 c 2
 645 495 l 1
 693 531 l 2
 701 537 710 540 720 540 c 0
 730 540 739 537 747 531 c 2
 867 441 l 2
 878 433 885 419 885 405 c 2
 885 135 l 2
 885 121 878 107 867 99 c 2
 747 9 l 2
 739 3 730 0 720 0 c 0
 710 0 701 3 693 9 c 2
 645 45 l 1
 645 -135 l 2
 645 -147 640 -159 632 -167 c 0
 624 -175 612 -180 600 -180 c 2
 525 -180 l 1
 525 -90 l 1
 555 -90 l 1
 555 720 l 1
 495 720 l 1
 405 652 l 1xfae0
 405 -135 l 2
 405 -147 400 -159 392 -167 c 0
 384 -175 372 -180 360 -180 c 2
 285 -180 l 1
 285 -90 l 1xf960
 315 -90 l 1
 315 405 l 1xf8e0
 285 405 l 1
 285 495 l 1xf960
 315 495 l 1
 315 647 l 1
 245 682 l 1
 165 622 l 1xfae0
 165 -135 l 2
 165 -147 160 -159 152 -167 c 0
 144 -175 132 -180 120 -180 c 2
 45 -180 l 1
 45 -90 l 1xfc60
645 158 m 1
 720 101 l 1
 795 158 l 1
 795 382 l 1
 720 439 l 1
 645 382 l 1
 645 158 l 1
EndSplineSet
Ligature2: "'liga' Ligaturen-1" longs longs thorn
LCarets2: 2 240 480 
EndChar

StartChar: longs_longs_l
Encoding: 57348 57348 179
Width: 705
VWidth: 531
Flags: W
HStem: -180 90<45 75 285 315> 0 21G<525 606> 405 90<45 75 285 315> 720 90<495 555>
VStem: 45 120<-166.622 -90 405 495> 75 90<-90 405 495 622> 285 120<-166.622 -90 405 495> 315 90<-90 405 495 647>
LayerCount: 2
Fore
SplineSet
45 -90 m 1xf8
 75 -90 l 1
 75 405 l 1xf4
 45 405 l 1
 45 495 l 1xf8
 75 495 l 1
 75 645 l 2
 75 659 82 673 93 681 c 2
 213 771 l 2
 220 776 228 779 236 780 c 0
 244 781 253 779 260 775 c 2
 355 728 l 1
 453 801 l 2
 461 807 470 810 480 810 c 2
 600 810 l 2
 612 810 624 805 632 797 c 0
 640 789 645 777 645 765 c 2
 645 45 l 2
 645 33 640 21 632 13 c 0
 624 5 612 0 600 0 c 2
 525 0 l 1
 525 90 l 1
 555 90 l 1
 555 720 l 1
 495 720 l 1
 405 652 l 1xf5
 405 -135 l 2
 405 -147 400 -159 392 -167 c 0
 384 -175 372 -180 360 -180 c 2
 285 -180 l 1
 285 -90 l 1xf2
 315 -90 l 1
 315 405 l 1xf1
 285 405 l 1
 285 495 l 1xf2
 315 495 l 1
 315 647 l 1
 245 682 l 1
 165 622 l 1xf5
 165 -135 l 2
 165 -147 160 -159 152 -167 c 0
 144 -175 132 -180 120 -180 c 2
 45 -180 l 1
 45 -90 l 1xf8
EndSplineSet
Ligature2: "'liga' Ligaturen-1" longs longs l
LCarets2: 2 240 480 
EndChar

StartChar: longs_longs_t
Encoding: 57352 57352 63
Width: 810
VWidth: 531
Flags: W
HStem: -180 90<45 75 285 315> 0 21G<715 765> 405 90<45 75 285 315 525 555 645 765> 790 20G<475 486.5>
VStem: 45 120<-166.622 -90 405 495> 75 90<-90 405 495 622> 285 120<-166.622 -90 405 495> 315 90<-90 405 495 647> 555 90<158 405 495 652>
LayerCount: 2
Fore
SplineSet
45 -90 m 1xf880
 75 -90 l 1
 75 405 l 1xf480
 45 405 l 1
 45 495 l 1xf880
 75 495 l 1
 75 645 l 2
 75 659 82 673 93 681 c 2
 213 771 l 2
 220 776 228 779 236 780 c 0
 244 781 253 779 260 775 c 2
 355 728 l 1
 453 801 l 2
 461 807 470 810 480 810 c 2
 482 810 l 2
 491 810 500 806 507 801 c 2
 627 711 l 2
 638 703 645 689 645 675 c 2
 645 495 l 1
 765 495 l 1
 765 405 l 1
 645 405 l 1
 645 158 l 1
 735 90 l 1
 765 90 l 1
 765 0 l 1
 720 0 l 2
 710 0 701 3 693 9 c 2
 573 99 l 2
 562 107 555 121 555 135 c 2
 555 405 l 1
 525 405 l 1
 525 495 l 1
 555 495 l 1
 555 652 l 1
 480 709 l 1
 405 652 l 1xf580
 405 -135 l 2
 405 -147 400 -159 392 -167 c 0
 384 -175 372 -180 360 -180 c 2
 285 -180 l 1
 285 -90 l 1xf280
 315 -90 l 1
 315 405 l 1xf180
 285 405 l 1
 285 495 l 1xf280
 315 495 l 1
 315 647 l 1
 245 682 l 1
 165 622 l 1xf580
 165 -135 l 2
 165 -147 160 -159 152 -167 c 0
 144 -175 132 -180 120 -180 c 2
 45 -180 l 1
 45 -90 l 1xf880
EndSplineSet
Ligature2: "'liga' Ligaturen-1" longs longs t
LCarets2: 2 240 480 
EndChar

StartChar: longs_t_z
Encoding: 57353 57353 64
Width: 750
VWidth: 531
Flags: W
HStem: -180 90<45 75 495 525> 0 21G<475 525> 405 90<45 75 285 315 405 525> 790 20G<235 246.5>
VStem: 45 120<-166.622 -90 405 495> 75 90<-90 405 495 652> 315 90<158 405 495 652> 615 90<-22 112>
LayerCount: 2
Fore
SplineSet
45 -90 m 1xfb
 75 -90 l 1
 75 405 l 1xf7
 45 405 l 1
 45 495 l 1xfb
 75 495 l 1
 75 675 l 2
 75 689 82 703 93 711 c 2
 213 801 l 2
 221 807 230 810 240 810 c 2
 242 810 l 2
 251 810 260 806 267 801 c 2
 387 711 l 2
 398 703 405 689 405 675 c 2
 405 495 l 1
 540 495 l 2
 550 495 559 492 567 486 c 2
 687 396 l 2
 698 388 705 375 705 360 c 0
 705 349 701 338 694 330 c 2
 606 232 l 1
 687 171 l 2
 698 163 705 149 705 135 c 2
 705 -45 l 2
 705 -59 698 -73 687 -81 c 2
 567 -171 l 2
 559 -177 550 -180 540 -180 c 2
 495 -180 l 1
 495 -90 l 1
 525 -90 l 1
 615 -22 l 1
 615 112 l 1
 513 189 l 2
 502 197 495 210 495 225 c 0
 495 236 499 247 506 255 c 2
 594 353 l 1
 525 405 l 1
 405 405 l 1
 405 158 l 1
 495 90 l 1
 525 90 l 1
 525 0 l 1
 480 0 l 2
 470 0 461 3 453 9 c 2
 333 99 l 2
 322 107 315 121 315 135 c 2
 315 405 l 1
 285 405 l 1
 285 495 l 1
 315 495 l 1
 315 652 l 1
 240 709 l 1
 165 652 l 1xf7
 165 -135 l 2
 165 -147 160 -159 152 -167 c 0
 144 -175 132 -180 120 -180 c 2
 45 -180 l 1
 45 -90 l 1xfb
EndSplineSet
Ligature2: "'liga' Ligaturen-1" longs t z
LCarets2: 2 240 420 
EndChar

StartChar: k_k
Encoding: 57354 57354 582
Width: 705
VWidth: 0
Flags: MW
HStem: 0 90<255 285 570 600> 405 90<45 75 255 390 570 660> 720 90<45 75 360 390>
VStem: 75 90<158 405 540 608> 390 90<158 405 540 608>
DStem2: 165 158 93 99 0.8 -0.6<0 112.8> 480 158 408 99 0.8 -0.6<0 112.8>
LayerCount: 2
Fore
SplineSet
45 405 m 1
 45 495 l 1
 75 495 l 1
 75 720 l 1
 45 720 l 1
 45 810 l 1
 120 810 l 2
 132 810 144 805 152 797 c 0
 160 789 165 777 165 765 c 2
 165 720 l 1
 213 756 l 2
 221 762 230 765 240 765 c 0
 244 765 247 765 251 764 c 0
 264 761 276 750 281 738 c 2
 341 603 l 2
 345 594 347 584 344 574 c 0
 341 564 335 555 327 549 c 2
 255 495 l 1
 390 495 l 1
 390 720 l 1
 360 720 l 1
 360 810 l 1
 435 810 l 2
 447 810 459 805 467 797 c 0
 475 789 480 777 480 765 c 2
 480 720 l 1
 528 756 l 2
 536 762 545 765 555 765 c 0
 559 765 562 765 566 764 c 0
 579 761 591 750 596 738 c 2
 656 603 l 2
 659 597 660 591 660 584 c 0
 660 581 660 577 659 574 c 0
 656 564 650 555 642 549 c 2
 570 495 l 1
 660 495 l 1
 660 405 l 1
 480 405 l 1
 480 158 l 1
 570 90 l 1
 600 90 l 1
 600 0 l 1
 555 0 l 2
 545 0 536 3 528 9 c 2
 408 99 l 2
 397 107 390 121 390 135 c 2
 390 405 l 1
 165 405 l 1
 165 158 l 1
 255 90 l 1
 285 90 l 1
 285 0 l 1
 240 0 l 2
 230 0 221 3 213 9 c 2
 93 99 l 2
 82 107 75 121 75 135 c 2
 75 405 l 1
 45 405 l 1
165 540 m 1
 244 600 l 1
 222 650 l 1
 165 608 l 1
 165 540 l 1
480 540 m 1
 559 600 l 1
 537 650 l 1
 480 608 l 1
 480 540 l 1
EndSplineSet
LCarets2: 1 314 
Ligature2: "'liga' Ligaturen-1" k k
EndChar

StartChar: copyleft
Encoding: 57356 57356 456
Width: 889
VWidth: 568
Flags: HW
HStem: 40 86<340.858 549.024> 188 90<420.62 498.761> 210 90<308 375.71> 498 90<306 344> 532 90<452 495.67> 684 86<340.858 549.024>
VStem: 75 94<299.458 510.542> 515 90<289.344 518.513> 720 94<299.458 510.542>
DStem2: 363 299 347 210 0.972082 -0.234641<-32.5815 105.618>
LayerCount: 2
Fore
SplineSet
75 405 m 0x8780
 75 604 239 770 445 770 c 0
 651 770 814 604 814 405 c 0
 814 206 651 40 445 40 c 0
 239 40 75 206 75 405 c 0x8780
169 405 m 0
 169 248 295 126 445 126 c 0
 595 126 720 248 720 405 c 0
 720 562 595 684 445 684 c 0
 295 684 169 562 169 405 c 0
306 498 m 1x9780
 306 588 l 1
 344 588 l 1x9780
 429 620 l 2
 433 622 441 622 445 622 c 0
 489 622 537 613 567 574 c 0
 597 535 605 482 605 405 c 2
 605 388 l 2
 605 319 599 269 569 232 c 0
 539 195 492 188 445 188 c 0xcf80
 442 188 437 188 434 189 c 2
 347 210 l 1
 308 210 l 1
 308 300 l 1
 353 300 l 2xa780
 356 300 360 300 363 299 c 2
 449 278 l 1
 483 278 494 282 499 289 c 0
 505 296 515 325 515 388 c 2
 515 405 l 2
 515 474 504 509 496 519 c 0
 489 529 479 531 452 532 c 1xcf80
 368 501 l 2
 364 499 358 498 353 498 c 2
 351 498 l 1
 306 498 l 1x9780
EndSplineSet
EndChar

StartChar: longs.short
Encoding: 57357 57357 581
Width: 240
VWidth: 0
Flags: MW
HStem: -180 90<45 75> 405 90<45 75> 720 90<229 255>
VStem: 75 90<-90 405 495 656>
DStem2: 88 707 165 656 0.707107 0.707107<18.3848 108.894>
LayerCount: 2
Fore
SplineSet
45 -90 m 1
 75 -90 l 1
 75 405 l 1
 45 405 l 1
 45 495 l 1
 75 495 l 1
 75 675 l 2
 75 687 80 699 88 707 c 6
 178 797 l 6
 186 805 198 810 210 810 c 2
 255 810 l 1
 255 720 l 1
 229 720 l 5
 165 656 l 5
 165 -135 l 2
 165 -147 160 -159 152 -167 c 0
 144 -175 132 -180 120 -180 c 2
 45 -180 l 1
 45 -90 l 1
EndSplineSet
EndChar

StartChar: longs_longs.short
Encoding: 57358 57358 583
Width: 480
VWidth: 0
Flags: W
HStem: -180 90<45 75 285 315> 405 90<45 75 285 315> 790 20G<444 495>
VStem: 45 120<-166.622 -90 405 495> 75 90<-90 405 495 622> 285 120<-166.622 -90 405 495> 315 90<-90 405 495 647>
LayerCount: 2
Fore
SplineSet
45 -90 m 1xf0
 75 -90 l 1
 75 405 l 1xe8
 45 405 l 1
 45 495 l 1xf0
 75 495 l 1
 75 645 l 2
 75 659 82 673 93 681 c 2
 213 771 l 2
 220 776 228 779 236 780 c 0
 244 781 253 779 260 775 c 2
 351 730 l 1
 418 797 l 2
 426 805 438 810 450 810 c 2
 495 810 l 1
 495 720 l 1
 469 720 l 1
 405 656 l 1xea
 405 -135 l 2
 405 -147 400 -159 392 -167 c 0
 384 -175 372 -180 360 -180 c 2
 285 -180 l 1
 285 -90 l 1xe4
 315 -90 l 1
 315 405 l 1xe2
 285 405 l 1
 285 495 l 1xe4
 315 495 l 1
 315 647 l 1
 245 682 l 1
 165 622 l 1xea
 165 -135 l 2
 165 -147 160 -159 152 -167 c 0
 144 -175 132 -180 120 -180 c 2
 45 -180 l 1
 45 -90 l 1xf0
EndSplineSet
Ligature2: "'liga' Ligaturen-1" longs longs.short
EndChar

StartChar: one.fitted
Encoding: 57361 57361 578
Width: 480
VWidth: 0
Flags: MW
LayerCount: 2
Fore
SplineSet
75 480 m 1
 75 570 l 1
 104 570 l 1
 271 710 l 2
 279 716 289 720 299 720 c 2
 300 720 l 2
 312 720 323 715 331 707 c 0
 340 699 345 687 345 675 c 2
 345 90 l 1
 375 90 l 1
 375 0 l 1
 300 0 l 2
 288 0 276 5 268 13 c 0
 260 21 255 33 255 45 c 2
 255 579 l 1
 149 490 l 2
 141 483 130 480 120 480 c 2
 75 480 l 1
EndSplineSet
Substitution2: "'pnum' Proportionalziffern-1" one
Substitution2: "'onum' Minuskelziffern-1" one.fitted.oldstyle
EndChar

StartChar: one.fitted.oldstyle
Encoding: 57362 57362 579
Width: 480
VWidth: 0
Flags: MW
HStem: 0 90<345 375> 300 90<75 104>
VStem: 255 90<90 399>
DStem2: 104 390 149 310 0.766337 0.642438<0 121.499>
LayerCount: 2
Fore
SplineSet
75 300 m 1
 75 390 l 1
 104 390 l 1
 271 530 l 2
 279 536 289 540 299 540 c 2
 300 540 l 2
 312 540 323 535 331 527 c 0
 340 519 345 507 345 495 c 2
 345 90 l 1
 375 90 l 5
 375 0 l 5
 300 0 l 2
 288 0 276 5 268 13 c 0
 260 21 255 33 255 45 c 2
 255 399 l 1
 149 310 l 2
 141 303 130 300 120 300 c 2
 75 300 l 1
EndSplineSet
Substitution2: "'pnum' Proportionalziffern-1" one.oldstyle
Substitution2: "'lnum' Versalziffern-1" one.fitted
EndChar

StartChar: S.alt
Encoding: 57371 57371 107
Width: 615
VWidth: 909
Flags: MW
LayerCount: 2
Fore
SplineSet
75 405 m 0
 75 558 77 659 98 715 c 0
 110 749 134 777 165 792 c 0
 196 807 230 810 270 810 c 2
 390 810 l 2
 395 810 401 809 406 807 c 2
 518 765 l 1
 555 765 l 1
 555 675 l 1
 510 675 l 2
 505 675 499 676 494 678 c 2
 382 720 l 1
 270 720 l 1
 234 719 196 723 182 684 c 0
 169 648 165 558 165 405 c 0
 165 254 181 170 204 134 c 0
 216 116 227 107 246 100 c 0
 264 93 291 90 325 90 c 1
 465 125 l 1
 465 241 463 317 453 354 c 0
 448 373 443 382 437 387 c 0
 431 392 422 397 403 400 c 0
 376 405 331 405 270 405 c 2
 225 405 l 1
 225 495 l 1
 270 495 l 1
 292 495 l 2
 342 495 382 494 418 488 c 0
 447 483 475 474 497 454 c 0
 519 434 532 407 540 377 c 0
 554 323 555 253 555 150 c 2
 555 90 l 2
 555 80 551 70 545 62 c 0
 539 54 531 48 521 46 c 2
 341 1 l 2
 337 0 334 0 330 0 c 0
 288 0 251 3 216 16 c 0
 181 29 149 52 128 86 c 0
 85 153 75 249 75 405 c 0
EndSplineSet
LCarets2: 8 0 0 0 0 0 0 0 0 
EndChar

StartChar: Scedilla.alt
Encoding: 57374 57374 475
Width: 615
VWidth: 0
Flags: W
HStem: -180 21G<340 346> 0 90<225.079 321> 405 90<225 436.717> 675 90<518 555> 720 90<190.394 382>
VStem: 75 90<175.716 657.455> 465 90<125 378.404>
LayerCount: 2
Fore
SplineSet
75 405 m 0xee
 75 558 77 659 98 715 c 0
 110 749 134 777 165 792 c 0
 196 807 230 810 270 810 c 2
 390 810 l 2xee
 395 810 401 809 406 807 c 2
 518 765 l 1
 555 765 l 1
 555 675 l 1
 510 675 l 2xf6
 505 675 499 676 494 678 c 2
 382 720 l 1
 270 720 l 1
 234 719 196 723 182 684 c 0
 169 648 165 558 165 405 c 0
 165 254 181 170 204 134 c 0
 216 116 227 107 246 100 c 0
 264 93 291 90 325 90 c 1
 465 125 l 1
 465 241 463 317 453 354 c 0
 448 373 443 382 437 387 c 0
 431 392 422 397 403 400 c 0
 376 405 331 405 270 405 c 2
 225 405 l 1
 225 495 l 1
 270 495 l 1
 292 495 l 2
 342 495 382 494 418 488 c 0
 447 483 475 474 497 454 c 0
 519 434 532 407 540 377 c 0
 554 323 555 253 555 150 c 2
 555 90 l 2
 555 80 551 70 545 62 c 0
 539 54 531 48 521 46 c 2
 416 20 l 1
 442 -20 l 2
 447 -27 450 -36 450 -45 c 0
 450 -54 447 -63 442 -70 c 2
 382 -160 l 2
 375 -170 365 -177 353 -179 c 0
 351 -179 347 -180 345 -180 c 0
 335 -180 326 -177 318 -171 c 2
 270 -135 l 1
 240 -135 l 1
 240 -45 l 1
 285 -45 l 2
 295 -45 304 -48 312 -54 c 2
 334 -70 l 1
 351 -45 l 1
 321 0 l 1
 283 0 248 4 216 16 c 0
 181 29 149 52 128 86 c 0
 85 153 75 249 75 405 c 0xee
EndSplineSet
EndChar

StartChar: zero.oldstyle
Encoding: 57376 57376 568
Width: 480
VWidth: 1076
Flags: MW
LayerCount: 2
Fore
SplineSet
75 135 m 2
 75 405 l 6
 75 419 82 433 93 441 c 6
 213 531 l 6
 221 537 230 540 240 540 c 6
 242 540 l 6
 251 540 260 536 267 531 c 6
 387 441 l 6
 398 433 405 419 405 405 c 6
 405 135 l 2
 405 121 398 107 387 99 c 2
 267 9 l 2
 259 3 250 0 240 0 c 0
 230 0 221 3 213 9 c 2
 93 99 l 2
 82 107 75 121 75 135 c 2
165 158 m 1
 240 101 l 1
 315 158 l 1
 315 382 l 5
 240 439 l 5
 165 382 l 5
 165 158 l 1
EndSplineSet
Substitution2: "'lnum' Versalziffern-1" zero
EndChar

StartChar: one.oldstyle
Encoding: 57377 57377 569
Width: 240
VWidth: 1024
Flags: W
HStem: 0 21G<114 195> 520 20G<45 126>
VStem: 45 120<450 526.622>
LayerCount: 2
Fore
SplineSet
45 450 m 1
 45 540 l 5
 120 540 l 2
 132 540 144 535 152 527 c 0
 160 519 165 507 165 495 c 2
 165 90 l 1
 195 90 l 1
 195 0 l 1
 120 0 l 2
 108 0 96 5 88 13 c 0
 80 21 75 33 75 45 c 2
 75 450 l 1
 45 450 l 1
EndSplineSet
Substitution2: "'tnum' Tabellenziffern-1" one.fitted.oldstyle
Substitution2: "'lnum' Versalziffern-1" one
EndChar

StartChar: two.oldstyle
Encoding: 57378 57378 570
Width: 480
VWidth: 1076
Flags: MW
LayerCount: 2
Fore
SplineSet
75 45 m 2
 75 225 l 2
 75 239 82 253 93 261 c 2
 285 405 l 1
 240 439 l 1
 147 369 l 2
 139 363 130 360 120 360 c 2
 75 360 l 1
 75 450 l 1
 105 450 l 1
 213 531 l 2
 221 537 230 540 240 540 c 2
 242 540 l 2
 251 540 260 536 267 531 c 2
 387 441 l 2
 398 433 405 419 405 405 c 0
 405 391 398 377 387 369 c 2
 165 202 l 1
 165 135 l 1
 213 171 l 2
 221 177 230 180 240 180 c 0
 250 180 259 177 267 171 c 2
 375 90 l 1
 405 90 l 1
 405 0 l 1
 360 0 l 2
 350 0 341 3 333 9 c 2
 240 79 l 1
 147 9 l 2
 140 4 132 1 124 0 c 0
 123 0 121 0 120 0 c 0
 113 0 106 2 100 5 c 0
 93 9 86 14 82 21 c 0
 78 28 75 37 75 45 c 2
EndSplineSet
Substitution2: "'lnum' Versalziffern-1" two
EndChar

StartChar: three.oldstyle
Encoding: 57379 57379 571
Width: 480
VWidth: 1076
Flags: MW
HStem: -90 90<75 105> 360 90<75 105>
VStem: 315 90<-22 82 308 382>
DStem2: 105 450 147 369 0.8 0.6<0 101.4> 147 -9 105 -90 0.8 -0.6<15 116.4> 267 531 240 439 0.8 -0.6<33.6 127.8> 240 -79 267 -171 0.8 0.6<0 94.2>
LayerCount: 2
Fore
SplineSet
75 0 m 1
 120 0 l 2
 130 0 139 -3 147 -9 c 2
 240 -79 l 1
 315 -22 l 1
 315 82 l 1
 212 157 l 2
 201 165 193 180 193 194 c 0
 193 208 200 222 211 230 c 2
 315 308 l 1
 315 382 l 5
 240 439 l 5
 147 369 l 2
 139 363 130 360 120 360 c 2
 75 360 l 1
 75 450 l 1
 105 450 l 1
 213 531 l 2
 221 537 230 540 240 540 c 2
 242 540 l 2
 251 540 260 536 267 531 c 6
 387 441 l 6
 398 433 405 419 405 405 c 2
 405 285 l 2
 405 271 398 257 387 249 c 2
 314 194 l 1
 387 141 l 2
 398 133 405 119 405 105 c 2
 405 -45 l 2
 405 -59 398 -73 387 -81 c 2
 267 -171 l 2
 259 -177 250 -180 240 -180 c 0
 230 -180 221 -177 213 -171 c 2
 105 -90 l 1
 75 -90 l 1
 75 0 l 1
EndSplineSet
Substitution2: "'lnum' Versalziffern-1" three
EndChar

StartChar: four.oldstyle
Encoding: 57380 57380 572
Width: 480
VWidth: 1076
Flags: W
HStem: -180 21G<354 435> 0 90<150 315 405 435> 520 20G<285 366>
VStem: 60 90<90 181> 285 120<450 526.622> 315 90<-90 0 90 450>
LayerCount: 2
Fore
SplineSet
60 45 m 6xf4
 60 195 l 6
 60 204 63 213 68 220 c 6
 158 355 l 6
 166 367 180 375 195 375 c 6
 240 375 l 5
 240 285 l 5
 219 285 l 5
 150 181 l 5
 150 90 l 5
 315 90 l 5
 315 450 l 5xf4
 285 450 l 5
 285 540 l 5
 360 540 l 6
 372 540 384 535 392 527 c 4
 400 519 405 507 405 495 c 6xf8
 405 90 l 5
 435 90 l 5
 435 0 l 5
 405 0 l 5
 405 -90 l 5
 435 -90 l 5
 435 -180 l 5
 360 -180 l 6
 348 -180 336 -175 328 -167 c 4
 320 -159 315 -147 315 -135 c 6
 315 0 l 5
 105 0 l 6
 93 0 81 5 73 13 c 4
 65 21 60 33 60 45 c 6xf4
EndSplineSet
Substitution2: "'lnum' Versalziffern-1" four
EndChar

StartChar: five.oldstyle
Encoding: 57381 57381 573
Width: 480
VWidth: 1076
Flags: MW
LayerCount: 2
Fore
SplineSet
75 0 m 1
 120 0 l 2
 130 0 139 -3 147 -9 c 2
 240 -79 l 1
 315 -22 l 1
 315 68 l 1
 93 234 l 2
 82 242 75 256 75 270 c 2
 75 495 l 2
 75 503 78 512 82 519 c 0
 86 526 93 531 100 535 c 0
 106 538 113 540 120 540 c 0
 121 540 123 540 124 540 c 0
 132 539 140 536 147 531 c 2
 240 461 l 1
 333 531 l 2
 341 537 350 540 360 540 c 2
 405 540 l 1
 405 450 l 1
 375 450 l 1
 267 369 l 2
 259 363 250 360 240 360 c 0
 230 360 221 363 213 369 c 2
 165 405 l 1
 165 292 l 1
 387 126 l 2
 398 118 405 104 405 90 c 2
 405 -45 l 2
 405 -59 398 -73 387 -81 c 2
 267 -171 l 2
 259 -177 250 -180 240 -180 c 0
 230 -180 221 -177 213 -171 c 2
 105 -90 l 1
 75 -90 l 1
 75 0 l 1
EndSplineSet
Substitution2: "'lnum' Versalziffern-1" five
EndChar

StartChar: six.oldstyle
Encoding: 57382 57382 574
Width: 480
VWidth: 1076
Flags: MW
LayerCount: 2
Fore
SplineSet
75 135 m 2
 75 315 l 1
 75 585 l 2
 75 599 82 613 93 621 c 2
 213 711 l 2
 221 717 230 720 240 720 c 2
 242 720 l 2
 251 720 260 716 267 711 c 2
 375 630 l 1
 405 630 l 1
 405 540 l 1
 360 540 l 2
 350 540 341 543 333 549 c 2
 240 619 l 1
 165 562 l 1
 165 405 l 1
 213 441 l 2
 221 447 230 450 240 450 c 0
 250 450 259 447 267 441 c 2
 387 351 l 2
 398 343 405 329 405 315 c 6
 405 135 l 2
 405 121 398 107 387 99 c 2
 267 9 l 2
 259 3 250 0 240 0 c 0
 230 0 221 3 213 9 c 2
 93 99 l 2
 82 107 75 121 75 135 c 2
165 157 m 1
 240 101 l 1
 315 157 l 1
 315 292 l 1
 240 349 l 1
 165 292 l 1
 165 157 l 1
EndSplineSet
Substitution2: "'lnum' Versalziffern-1" six
EndChar

StartChar: seven.oldstyle
Encoding: 57383 57383 575
Width: 480
VWidth: 1076
Flags: MW
HStem: -180 90<267 285> 450 90<75 306>
DStem2: 166 -124 267 -90 0.236956 0.97152<56.9643 590.827>
LayerCount: 2
Fore
SplineSet
75 450 m 1
 75 540 l 1
 363 540 l 2
 377 540 390 534 398 523 c 0
 404 515 408 505 408 495 c 0
 408 492 408 487 407 484 c 2
 267 -90 l 1
 285 -90 l 5
 285 -180 l 5
 210 -180 l 2
 196 -180 183 -174 175 -163 c 0
 169 -155 165 -145 165 -135 c 0
 165 -132 165 -127 166 -124 c 2
 306 450 l 1
 75 450 l 1
EndSplineSet
Substitution2: "'lnum' Versalziffern-1" seven
EndChar

StartChar: nine.oldstyle
Encoding: 57385 57385 577
Width: 480
VWidth: 1076
Flags: W
HStem: -180 21G<235 245> -20 20G<75 125> 520 20G<235 246.5>
VStem: 75 90<247 382> 315 90<-23 135 247 382>
LayerCount: 2
Fore
SplineSet
75 0 m 1
 120 0 l 2
 130 0 139 -3 147 -9 c 2
 240 -79 l 1
 315 -23 l 1
 315 135 l 1
 267 99 l 2
 259 93 250 90 240 90 c 0
 230 90 221 93 213 99 c 2
 93 189 l 2
 82 197 75 211 75 225 c 2
 75 405 l 2
 75 419 82 433 93 441 c 2
 213 531 l 2
 221 537 230 540 240 540 c 2
 242 540 l 2
 251 540 260 536 267 531 c 2
 387 441 l 2
 398 433 405 419 405 405 c 2
 405 -45 l 2
 405 -59 398 -73 387 -81 c 2
 267 -171 l 2
 259 -177 250 -180 240 -180 c 0
 230 -180 221 -177 213 -171 c 2
 105 -90 l 1
 75 -90 l 1
 75 0 l 1
165 247 m 1
 240 191 l 1
 315 247 l 1
 315 382 l 1
 240 439 l 1
 165 382 l 1
 165 247 l 1
EndSplineSet
Substitution2: "'lnum' Versalziffern-1" nine
EndChar

StartChar: f_ij
Encoding: 57387 57387 67
Width: 720
VWidth: 531
Flags: MW
HStem: -180 90<45 75 465 555> 0 90<405 465> 405 90<45 75 165 315 525 555>
VStem: 75 90<-90 405 495 652> 315 90<90 405 600 652> 555 90<-90 45 158 405 600 720>
DStem2: 93 711 165 652 0.8 0.6<22.2 116.4> 267 801 240 709 0.8 -0.6<33.6 127.8>
CounterMasks: 1 1c
LayerCount: 2
Fore
SplineSet
45 -90 m 1
 75 -90 l 1
 75 405 l 1
 45 405 l 1
 45 495 l 1
 75 495 l 1
 75 675 l 2
 75 689 82 703 93 711 c 6
 213 801 l 6
 221 807 230 810 240 810 c 2
 242 810 l 2
 251 810 260 806 267 801 c 2
 387 711 l 2
 398 703 405 689 405 675 c 2
 405 600 l 1
 315 600 l 1
 315 652 l 1
 240 709 l 5
 165 652 l 5
 165 495 l 1
 360 495 l 2
 372 495 384 490 392 482 c 0
 400 474 405 462 405 450 c 2
 405 90 l 1
 465 90 l 1
 555 158 l 1
 555 405 l 1
 525 405 l 1
 525 495 l 1
 600 495 l 2
 612 495 624 490 632 482 c 0
 640 474 645 462 645 450 c 2
 645 -135 l 2
 645 -147 640 -159 632 -167 c 0
 624 -175 612 -180 600 -180 c 2
 465 -180 l 1
 465 -90 l 1
 555 -90 l 1
 555 45 l 1
 507 9 l 2
 499 3 490 0 480 0 c 2
 360 0 l 2
 348 0 336 5 328 13 c 0
 320 21 315 33 315 45 c 2
 315 405 l 1
 165 405 l 1
 165 -135 l 2
 165 -147 160 -159 152 -167 c 0
 144 -175 132 -180 120 -180 c 2
 45 -180 l 1
 45 -90 l 1
555 600 m 1
 555 720 l 1
 645 720 l 1
 645 600 l 1
 555 600 l 1
EndSplineSet
Ligature2: "'liga' Ligaturen-1" f ij
LCarets2: 1 240 
EndChar

StartChar: f_eth
Encoding: 57388 57388 73
Width: 705
VWidth: 531
Flags: MW
HStem: -180 90<45 75> 405 90<45 75 165 270> 592 90<525 555> 720 90<255 325 531 555>
VStem: 75 90<-90 405 495 652> 315 90<158 382> 555 90<158 382>
DStem2: 93 711 165 652 0.8 0.6<22.2 135> 367 801 325 720 0.801215 -0.598376<14.8174 83.4177 177.799 197.799> 405 158 333 99 0.8 -0.6<0 94.2> 380 679 425 593 0.64131 0.767282<-37.1273 0 94.2382 128.296> 425 593 405 495 0.799135 -0.601151<0 42.9301 136.53 230.73> 480 101 507 9 0.8 0.6<0 94.2>
CounterMasks: 1 0e
LayerCount: 2
Fore
SplineSet
45 -90 m 1
 75 -90 l 1
 75 405 l 1
 45 405 l 1
 45 495 l 1
 75 495 l 1
 75 675 l 2
 75 689 82 703 93 711 c 2
 213 801 l 2
 221 807 230 810 240 810 c 2
 340 810 l 2
 350 810 359 807 367 801 c 2
 437 748 l 1
 475 794 l 2
 483 804 497 810 510 810 c 2
 555 810 l 1
 555 720 l 1
 531 720 l 1
 509 694 l 1
 525 682 l 1
 555 682 l 1
 555 592 l 1
 510 592 l 2
 500 592 491 596 483 602 c 2
 452 625 l 1
 425 593 l 1
 627 441 l 2
 638 433 645 419 645 405 c 2
 645 135 l 2
 645 121 638 107 627 99 c 2
 507 9 l 2
 499 3 490 0 480 0 c 0
 470 0 461 3 453 9 c 6
 333 99 l 6
 322 107 315 121 315 135 c 2
 315 405 l 2
 315 419 322 433 333 441 c 2
 405 495 l 1
 333 549 l 2
 323 556 316 568 315 580 c 1
 315 585 l 2
 315 595 318 606 325 614 c 2
 380 679 l 1
 325 720 l 1
 255 720 l 1
 165 652 l 1
 165 495 l 1
 270 495 l 1
 270 405 l 1
 165 405 l 1
 165 -135 l 2
 165 -147 160 -159 152 -167 c 0
 144 -175 132 -180 120 -180 c 2
 45 -180 l 1
 45 -90 l 1
405 158 m 5
 480 101 l 5
 555 158 l 1
 555 382 l 1
 480 439 l 1
 405 382 l 1
 405 158 l 5
EndSplineSet
Ligature2: "'liga' Ligaturen-1" f eth
LCarets2: 1 240 
EndChar

StartChar: f_f_eth
Encoding: 57389 57389 74
Width: 945
VWidth: 531
Flags: W
HStem: -180 90<45 75 285 315> 0 21G<715 725> 405 90<45 75 165 315 405 510> 720 90<495 565 771 795>
VStem: 75 90<-90 405 495 622> 315 90<-90 405 495 647> 555 90<158 382> 795 90<158 382>
LayerCount: 2
Back
SplineSet
45 -90 m 1
 75 -90 l 1
 75 405 l 1
 45 405 l 1
 45 495 l 1
 75 495 l 1
 75 645 l 2
 75 659 82 673 93 681 c 2
 213 771 l 2
 220 776 228 779 236 780 c 0
 244 781 253 779 260 775 c 2
 355 728 l 1
 453 801 l 2
 461 807 470 810 480 810 c 2
 580 810 l 2
 590 810 599 807 607 801 c 2
 677 748 l 1
 715 794 l 2
 723 804 737 810 750 810 c 2
 795 810 l 1
 795 720 l 1
 771 720 l 1
 749 694 l 1
 765 682 l 1
 795 682 l 1
 795 592 l 1
 750 592 l 2
 740 592 731 596 723 602 c 2
 692 625 l 1
 665 593 l 1
 867 441 l 2
 878 433 885 419 885 405 c 2
 885 135 l 2
 885 121 878 107 867 99 c 2
 747 9 l 2
 739 3 730 0 720 0 c 0
 710 0 701 3 693 9 c 2
 573 99 l 2
 562 107 555 121 555 135 c 2
 555 405 l 2
 555 419 562 433 573 441 c 2
 645 495 l 1
 573 549 l 2
 563 556 556 568 555 580 c 1
 555 585 l 2
 555 595 558 606 565 614 c 2
 620 679 l 1
 565 720 l 1
 495 720 l 1
 405 652 l 1
 405 495 l 1
 510 495 l 1
 510 405 l 1
 405 405 l 1
 405 -135 l 2
 405 -147 400 -159 392 -167 c 0
 384 -175 372 -180 360 -180 c 2
 285 -180 l 1
 285 -90 l 1
 315 -90 l 1
 315 405 l 1
 165 405 l 1
 165 -135 l 2
 165 -147 160 -159 152 -167 c 0
 144 -175 132 -180 120 -180 c 2
 45 -180 l 1
 45 -90 l 1
165 495 m 1
 315 495 l 1
 315 647 l 1
 245 682 l 1
 165 622 l 1
 165 495 l 1
645 158 m 1
 720 101 l 1
 795 158 l 1
 795 382 l 1
 720 439 l 1
 645 382 l 1
 645 158 l 1
EndSplineSet
Fore
SplineSet
45 -90 m 1
 75 -90 l 1
 75 405 l 1
 45 405 l 1
 45 495 l 1
 75 495 l 1
 75 645 l 2
 75 659 82 673 93 681 c 2
 213 771 l 2
 220 776 228 779 236 780 c 0
 244 781 253 779 260 775 c 2
 355 728 l 1
 453 801 l 2
 461 807 470 810 480 810 c 2
 580 810 l 2
 590 810 599 807 607 801 c 2
 677 748 l 1
 715 794 l 2
 723 804 737 810 750 810 c 2
 795 810 l 1
 795 720 l 1
 771 720 l 1
 749 694 l 1
 765 682 l 1
 795 682 l 1
 795 592 l 1
 750 592 l 2
 740 592 731 596 723 602 c 2
 692 625 l 1
 665 593 l 1
 867 441 l 2
 878 433 885 419 885 405 c 2
 885 135 l 2
 885 121 878 107 867 99 c 2
 747 9 l 2
 739 3 730 0 720 0 c 0
 710 0 701 3 693 9 c 2
 573 99 l 2
 562 107 555 121 555 135 c 2
 555 405 l 2
 555 419 562 433 573 441 c 2
 645 495 l 1
 573 549 l 2
 563 556 556 568 555 580 c 1
 555 585 l 2
 555 595 558 606 565 614 c 2
 620 679 l 1
 565 720 l 1
 495 720 l 1
 405 652 l 1
 405 495 l 1
 510 495 l 1
 510 405 l 1
 405 405 l 1
 405 -135 l 2
 405 -147 400 -159 392 -167 c 0
 384 -175 372 -180 360 -180 c 2
 285 -180 l 1
 285 -90 l 1
 315 -90 l 1
 315 405 l 1
 165 405 l 1
 165 -135 l 2
 165 -147 160 -159 152 -167 c 0
 144 -175 132 -180 120 -180 c 2
 45 -180 l 1
 45 -90 l 1
165 495 m 1
 315 495 l 1
 315 647 l 1
 245 682 l 1
 165 622 l 1
 165 495 l 1
645 158 m 1
 720 101 l 1
 795 158 l 1
 795 382 l 1
 720 439 l 1
 645 382 l 1
 645 158 l 1
EndSplineSet
Ligature2: "'liga' Ligaturen-1" f f eth
LCarets2: 2 240 480 
EndChar

StartChar: f_f_b
Encoding: 57393 57393 52
Width: 945
VWidth: 531
Flags: W
HStem: -180 90<45 75 285 315> 0 21G<525 606 715 725> 405 90<45 75 165 315 405 510> 520 20G<715 725> 720 90<495 555>
VStem: 75 90<-90 405 495 622> 315 90<-90 405 495 647> 555 90<158 382 495 720> 795 90<158 382>
LayerCount: 2
Fore
SplineSet
45 -90 m 1
 75 -90 l 1
 75 405 l 1
 45 405 l 1
 45 495 l 1
 75 495 l 1
 75 645 l 2
 75 659 82 673 93 681 c 2
 213 771 l 2
 220 776 228 779 236 780 c 0
 244 781 253 779 260 775 c 2
 355 728 l 1
 453 801 l 2
 461 807 470 810 480 810 c 2
 600 810 l 2
 612 810 624 805 632 797 c 0
 640 789 645 777 645 765 c 2
 645 495 l 1
 693 531 l 2
 701 537 710 540 720 540 c 0
 730 540 739 537 747 531 c 2
 867 441 l 2
 878 433 885 419 885 405 c 2
 885 135 l 2
 885 121 878 107 867 99 c 2
 747 9 l 2
 739 3 730 0 720 0 c 0
 710 0 701 3 693 9 c 2
 645 45 l 1
 645 33 640 21 632 13 c 0
 624 5 612 0 600 0 c 2
 525 0 l 1
 525 90 l 1
 555 90 l 1
 555 720 l 1
 495 720 l 1
 405 652 l 1
 405 495 l 1
 510 495 l 1
 510 405 l 1
 405 405 l 1
 405 -135 l 2
 405 -147 400 -159 392 -167 c 0
 384 -175 372 -180 360 -180 c 2
 285 -180 l 1
 285 -90 l 1
 315 -90 l 1
 315 405 l 1
 165 405 l 1
 165 -135 l 2
 165 -147 160 -159 152 -167 c 0
 144 -175 132 -180 120 -180 c 2
 45 -180 l 1
 45 -90 l 1
165 495 m 1
 315 495 l 1
 315 647 l 1
 245 682 l 1
 165 622 l 1
 165 495 l 1
645 158 m 1
 720 101 l 1
 795 158 l 1
 795 382 l 1
 720 439 l 1
 645 382 l 1
 645 158 l 1
EndSplineSet
Ligature2: "'liga' Ligaturen-1" f f b
LCarets2: 2 240 480 
EndChar

StartChar: f_f_j
Encoding: 57395 57395 54
Width: 720
VWidth: 531
Flags: MW
LayerCount: 2
Fore
SplineSet
45 -90 m 1
 75 -90 l 1
 75 405 l 1
 45 405 l 1
 45 495 l 1
 75 495 l 1
 75 645 l 2
 75 659 82 673 93 681 c 2
 213 771 l 2
 220 776 228 779 236 780 c 0
 244 781 253 779 260 775 c 2
 355 728 l 1
 453 801 l 2
 461 807 470 810 480 810 c 2
 482 810 l 2
 491 810 500 806 507 801 c 2
 627 711 l 2
 638 703 645 689 645 675 c 2
 645 600 l 1
 555 600 l 1
 555 652 l 1
 480 709 l 1
 405 652 l 1
 405 495 l 1
 600 495 l 2
 612 495 624 490 632 482 c 0
 640 474 645 462 645 450 c 2
 645 -135 l 2
 645 -147 640 -159 632 -167 c 0
 624 -175 612 -180 600 -180 c 2
 465 -180 l 1
 465 -90 l 1
 555 -90 l 1
 555 405 l 1
 405 405 l 1
 405 -135 l 2
 405 -147 400 -159 392 -167 c 0
 384 -175 372 -180 360 -180 c 2
 285 -180 l 1
 285 -90 l 1
 315 -90 l 1
 315 405 l 1
 165 405 l 1
 165 -135 l 2
 165 -147 160 -159 152 -167 c 0
 144 -175 132 -180 120 -180 c 2
 45 -180 l 1
 45 -90 l 1
165 495 m 1
 315 495 l 1
 315 647 l 1
 245 682 l 1
 165 622 l 1
 165 495 l 1
EndSplineSet
Ligature2: "'liga' Ligaturen-1" f f j
LCarets2: 2 240 480 
EndChar
